<svg width="46" height="44" viewBox="0 0 46 44" fill="none" xmlns="http://www.w3.org/2000/svg">
<mask id="mask0_1485_2380" style="mask-type:alpha" maskUnits="userSpaceOnUse" x="0" y="0" width="46" height="44">
<path d="M9.67767 10.0288C11.3685 4.09359 16.7911 0 22.9625 0V0C29.1338 0 34.5565 4.09359 36.2473 10.0288L45.925 44H0L9.67767 10.0288Z" fill="black"/>
</mask>
<g mask="url(#mask0_1485_2380)">
<path d="M9.67767 10.0288C11.3685 4.09359 16.7911 0 22.9625 0V0C29.1338 0 34.5565 4.09359 36.2473 10.0288L45.925 44H0L9.67767 10.0288Z" fill="#9598A1"/>
<path d="M10.1848 10.4773C11.7789 4.7372 17.0051 0.764648 22.9624 0.764648V0.764648C28.9198 0.764648 34.1459 4.7372 35.7401 10.4773L45.1595 44.3934H0.765381L10.1848 10.4773Z" fill="url(#paint0_linear_1485_2380)"/>
<path fill-rule="evenodd" clip-rule="evenodd" d="M17.9975 13.7773C15.1185 13.7773 12.7845 16.1113 12.7845 18.9904C12.7845 21.0401 13.9674 22.8135 15.6878 23.6651C16.1786 23.9081 16.3282 24.8678 15.8821 25.1855C13.1992 27.0962 11.4812 30.033 11.4812 33.3265C11.4812 39.0847 16.7326 43.7526 23.2105 43.7526C29.6885 43.7526 34.9399 39.0847 34.9399 33.3265C34.9399 30.033 33.2219 27.0962 30.539 25.1855C30.093 24.8678 30.2426 23.9081 30.7333 23.6651C32.4537 22.8135 33.6367 21.0401 33.6367 18.9904C33.6367 16.1113 31.3027 13.7773 28.4236 13.7773H17.9975Z" fill="#9598A1"/>
<mask id="mask1_1485_2380" style="mask-type:alpha" maskUnits="userSpaceOnUse" x="10" y="22" width="26" height="22">
<ellipse cx="22.9627" cy="33.388" rx="12.2467" ry="10.4261" fill="#D9D9D9"/>
</mask>
<g mask="url(#mask1_1485_2380)">
<ellipse cx="22.9627" cy="33.388" rx="12.2467" ry="10.4261" fill="#9598A1"/>
<path d="M8.41992 38.2705C8.41992 38.2705 11.7217 31.3818 23.4281 31.3818C35.1344 31.3818 39.0366 38.2705 39.0366 38.2705" stroke="black" stroke-width="4"/>
</g>
<rect x="13.0122" y="13.7773" width="20.8522" height="10.4261" rx="5.21304" fill="#9598A1"/>
<path d="M15.6182 19.2085C15.6182 17.649 16.8824 16.3848 18.4419 16.3848H28.4336C29.9931 16.3848 31.2573 17.649 31.2573 19.2085V19.3272C31.2573 20.8211 30.0462 22.0322 28.5522 22.0322V22.0322C27.7854 22.0322 27.0546 21.7068 26.5416 21.1368L26.3701 20.9462C25.7479 20.2549 24.8615 19.8601 23.9315 19.8601H23.4377H22.944C22.0139 19.8601 21.1276 20.2549 20.5054 20.9462L20.3339 21.1368C19.8209 21.7068 19.0901 22.0322 18.3232 22.0322V22.0322C16.8293 22.0322 15.6182 20.8211 15.6182 19.3272V19.2085Z" fill="black"/>
<ellipse cx="21.1327" cy="24.3542" rx="1.30326" ry="1.73768" transform="rotate(-30 21.1327 24.3542)" fill="black"/>
<ellipse cx="1.30326" cy="1.73768" rx="1.30326" ry="1.73768" transform="matrix(-0.866025 -0.5 -0.5 0.866026 28.239 23.501)" fill="black"/>
</g>
<defs>
<linearGradient id="paint0_linear_1485_2380" x1="22.9625" y1="22.962" x2="22.9624" y2="44.3934" gradientUnits="userSpaceOnUse">
<stop/>
<stop offset="1" stop-color="#121212"/>
</linearGradient>
</defs>
</svg>
