<?xml version="1.0" encoding="UTF-8"?>
<svg id="Layer_1" xmlns="http://www.w3.org/2000/svg" version="1.1" viewBox="0 0 140 38">
  <!-- Generator: Adobe Illustrator 29.2.1, SVG Export Plug-In . SVG Version: 2.1.0 Build 116)  -->
  <path d="M11,5.7c-.3.2-.4.2-1.2-.3-1.1-.7-1.7-1.8-2.4-2.9-.2-.3-.6-.2-.7,0-1.1,2.3,0,5.2,1.6,7,0,0,0,.1,0,.2h.7c.2-.3.4-.7.5-1,.6-.9,1.1-1.7,1.6-2.2v-.9h0Z" style="fill: #0e5168;"/>
  <path d="M27.7,2.4c-.1-.2-.5-.2-.6,0-.2.3-.3.6-.4.8-.7,1.2-1.7,2.2-3,2.7v1.1c.4.5.8,1,1.2,1.7.2.4.4.8.6,1.1h.7c0-.1-.1-.2-.2-.3,1.6-1.8,2.8-4.8,1.5-7.1Z" style="fill: #0e5168;"/>
  <path d="M24.8,6.4c.2-.3.6.3.9.2,0,0,.8-.8,1-.9,0,.1.7.8.7.8,0,0-.8,1.6-.9,1.6-.6-.4-1.4-1.1-1.7-1.7Z" style="fill: #bfcfdb;"/>
  <path d="M9.4,6.6c-.2.5-1,1.2-1.5,1.5-.1,0-.9-1.4-.9-1.6s.5-.7.6-.8c.4-.1.9,1,1.2,1,.1,0,.4-.3.5-.4,0,0,0,.2,0,.2h0Z" style="fill: #bfcfdb;"/>
  <path d="M9.4,6.6s0-.2,0-.2c-.1,0-.4.4-.5.4-.3,0-.8-1.1-1.2-1l.6-.8c0,.3,1.4,1,1.4,1.1,0,0-.2.4-.3.4Z" style="fill: #fff;"/>
  <path d="M26.7,5.7c-.2,0-.9.9-1,.9-.2,0-.7-.5-.9-.2,0,0,0-.1-.1-.2l1.4-1.1c0,0,.5.6.6.7h0Z" style="fill: #fff;"/>
  <path d="M25.4,8.2c-.2-.2-.3-.4-.5-.6-.3-.4-.4-.8-.9-1.1.6-.5.6.5,1,.9.3.4.8.7,1.2,1l-.3.4c-.2-.2-.3-.4-.5-.6h0Z" style="fill: #bfcfdb;"/>
  <path d="M26.8,5.4c.3-.3.2-.9.7-1,0,0,.1,0,.2,0,.1,0,0,1.3-.2,1.5-.1.2-.6-.4-.7-.5Z" style="fill: #bfcfdb;"/>
  <path d="M7.6,5.4c-.2.2-.4.5-.7.5,0,0-.2-.9-.2-1.1h0c.2-.3.5-.2.6,0l.2.5h0Z" style="fill: #bfcfdb;"/>
  <path d="M7.6,5.4l-.2-.4c-.1-.3-.4-.3-.6-.2h0c0,0-.1-.3,0-.4,0,0,.8-.3.9-.3,0,0,.6.7.6.7s-.5.5-.6.6Z" style="fill: #fff;"/>
  <path d="M27.7,4.5c-.5,0-.6.7-.9,1,0,0-.6-.5-.6-.6,0,0,.5-.6.5-.6.2.2.8.2.9.2h0Z" style="fill: #fff;"/>
  <path d="M10.1,7c-.4.5-1.1,1.4-1.5,1.9l-.4-.4,1.3-1.3s.5-.2.6-.2Z" style="fill: #bfcfdb;"/>
  <path d="M27.6,3.1c.1.3.2.8.2.9-1,.2-.6-.4-.4-.9,0,0,.2,0,.2,0Z" style="fill: #fff;"/>
  <path d="M6.8,3.2c0,0,.1,0,.1,0,.2.3.6.9,0,.9-.6,0-.3-.5-.2-.9h0Z" style="fill: #fff;"/>
  <path d="M9.6,7.3c0,0,0,0,0-.1,0-.4.3-1.2.9-.8,0,0-.7.8-.8.9h0Z" style="fill: #fff;"/>
  <path d="M33.7,21.2c.2-1.6-1.3-3.3-2.3-4.5,2-.8-1.4-4.5-2.7-4.6.3-1.2-.5-1.8-1.4-2.3,0,0,0,0,0,0-1.3-.5-3.2-2.7-2.9-4.1-.4.1-.9.2-1.3.3,2-1.6-1.2-2.7-2.5-2.1-.2,0,.7-1.3,0-1.7-1-.5-2.7.9-3.4,1.6-.7-.7-2.3-2-3.3-1.7-.9.3,0,1.6-.3,1.7-1.3-.4-4.6.6-2.5,2.2-.4,0-.7-.1-1.1-.2,0,1.7-1.4,3.5-3.1,4,0,0,.1.1.2.2-.9.5-1.7,1.1-1.3,2.3-1.3,0-4.7,3.9-2.7,4.6-1,.8-4,5.2-1.2,5.2-.4,1.1-1.2,5.8.6,5.8,0,0,.7.9.8,1,.2.2,1.1.7,1.1.8-.2.4-.4.7-.2,1.1-1.1.2-2.8,1.1-2.6,2.5-.7,1-1.3,2.4.6,2-.3.9,1.2,1.1,2.4.6.4.3,1.3.3,2.4.3,2.5-.2,4.9.6,5.4-1.7,0-.9,0-2.6.6-2.7.2,0,1.5.3,1.9.3,1.5.2,2.8.2,4,0,1.7-.1,3.2-1.3,3.1,1.4v.2c0,3.2,2.5,2.3,5.4,2.5,1,0,2,0,2.4-.3,1.3.5,2.7.3,2.4-.6,1.9.4,1.3-1,.6-2,.1-1.3-1.2-2.3-2.4-2.4h0c.1-.6.2-.7-.2-1.3.9-.4,1.5-1.3,2-1.8,1.8,0,1-4.6.6-5.7h.6c.1-.3.4-.4.4-.8h0Z" style="fill: #0e5168;"/>
  <path d="M25.7,9.7c-.6-.5-1.1-1.1-1.5-1.7-.1-.2-.5-1.3-.6-1.3-.2,0-1.3.4-1.4.2,0-.8.4-1.5.8-2.1-1.1-.5-2.4-.3-3.3.6l.3-2.4c-1.2.2-2,1.3-2.8,2.1-.6-1-1.6-2-2.8-2.2l.3,2.5c-.8-1.2-2.2-1.2-3.4-.5.5.4.9.9,1.1,1.6h-1.7c-.2,1.5-1,2.4-2,3.3-1.1.9-3.5,1.6-1.4,3.3,0,0,.2.2.3.1,0-1,1.3-1.1,2.9-.9.4.2,1.2.3,2.3.3,1.6.2,3.1.4,3.9,0,4.1-.2,9-.5,9.9.4-.8.2.3,0,.4,0,2.4-1.3-.3-2.2-1.3-3.1h0Z" style="fill: #fff;"/>
  <path d="M11.6,32.8c-.1,1.4.3,2-1.4,2.4-2.1.5-4.7,0-6.9.3-.2,0-.2-1-.2-1.2h0c.1,0,.2.4.3.5.2,0,3.2,0,3.6,0,2.6-.3,3.6-2.4,3.2-4.8.3.2.6.7.7,1.1,0,.3.5,1.8.6,1.8h0Z" style="fill: #167baa;"/>
  <path d="M31.1,34.3h.1c0,.1,0,1.1,0,1.1-.7,0-1.5-.1-2.2-.2-1.2,0-5.2.3-5.9-.8-.3-.4-.1-1.5-.3-2.1.2.3.2.7.6.8-.1-1.2,0-2.5.7-3.5-.3,2.6.2,4.8,3.2,5.1.4,0,3.1,0,3.4,0,0,0,.3-.3.3-.4h0Z" style="fill: #167baa;"/>
  <path d="M5.5,27.7c.2.3.3.9.5,1.3h-.1c-1.8-.1-2.7-1.3-3.5-2.9l-.2.3c-.3,0-.2-1.5-.2-1.7,0-1.1.3-1.8.5-2.5.2,1.1.6,3.7,1.4,4.5.4.3,1.3.7,1.5,1h0Z" style="fill: #167baa;"/>
  <path d="M32.1,22.8c.2,1.2.4,2.4.2,3.6-.1.2-.2-.3-.3-.3-.6,1.5-1.7,2.9-3.5,2.8,0,0,.4-1.2.5-1.4,1.9-.6,3.3-2.9,3.1-4.8,0,.1,0,0,.1,0h0Z" style="fill: #167baa;"/>
  <path d="M28.7,26.6c-.2.4-.3,1.1-.5,1.4-.3.4-1.7.8-2.1.6-.4-.1-.4-.6-.4-.9l.2-.3c1.1,1,2-.1,2.7-.9,0,0,.1,0,.1.1h0Z" style="fill: #167baa;"/>
  <path d="M8.6,27.4c0,0,0,.2.2.2,0,0,0,.9-.1.9-.3.5-2.1,0-2.4-.5-.3-.3-.3-1-.5-1.4,0,0,0-.1.2-.1.7.9,1.6,1.9,2.7.9h0Z" style="fill: #167baa;"/>
  <path d="M24.1,29.6c-.6,1.1-.8,2.3-.7,3.5-.4-.1-.4-.5-.6-.8-.1-.5-.2-.9-.7-1.2.7-.4,1.3-1,1.8-1.7,0-.1.2-.2.3-.3h0c0,.1,0,.3-.1.5h0Z" style="fill: #0c5880;"/>
  <path d="M10.4,29c.4.9.9,1.6,1.8,2-.4.7-.5,1-.6,1.7,0,0-.5-1.4-.6-1.8,0-.3-.4-.9-.7-1.1,0-.2-.1-.7-.2-.9,0,0,.2,0,.2,0Z" style="fill: #0c5880;"/>
  <path d="M27.6,30.1c-.8-.3-1.6.2-2.4-.3-.5-.3-1-1.3-1.2-1.9.1.2.6.3.6.4.2.2.2.5.3.6.7.9,1.6.5,2.5.4.1,0,0,.6,0,.8h0Z" style="fill: #167baa;"/>
  <path d="M26.6,20.6c0,.6,0,1.2,0,1.8,0,.3-.1.5-.4.6-.8.4-1.4.9-1.9,1.5.7-1.4,2.3-2.5,2-4.3l.2.4h0Z" style="fill: #167baa;"/>
  <path d="M9.8,24.2c-.5-.6-1.2-.9-1.8-1.3-.1-.1-.2-.3-.2-.4,0-.7.1-1.5.1-2.2.2.9.4,1.6.8,2.4.3.4.7.8,1,1.2,0,0,.7.6.1.4h0Z" style="fill: #167baa;"/>
  <path d="M5.9,23.3v.3c1.8-.5,3.8.9,3.9,2.8-.4-.3-.4-.9-.7-1.3-.4-.7-1.6-1.4-2.5-1.5-.4,0-1.7.4-.8-.4Z" style="fill: #fff;"/>
  <path d="M9.4,29.7c-.8.6-1.6.5-2.5.3,0-.1,0-.6,0-.6,1,.3,1.9.5,2.5-.5l.2.2-.3.6Z" style="fill: #167baa;"/>
  <path d="M32.2,19.9c.2.3.4.7.6,1-.4,0-1.3-1.1-1.8-1.1-.3-.5-.7-1.2-1-1.7.5,0,2,2.1,2.1,2,0,0,0-.2,0-.2h0Z" style="fill: #0c5880;"/>
  <path d="M28.8,23.7c-1.9-.3-3.4.9-4.1,2.6h-.1c.2-1.9,2.4-3.3,4.2-2.6Z" style="fill: #a6dcf5;"/>
  <path d="M4.1,18.6l-1.7,1.9c-.2.1-.6.6-.8.6l.4-.7,2.5-2.4c-.1.2-.2.5-.4.7Z" style="fill: #0c5880;"/>
  <path d="M32.3,33.1c.4.4.7,1.5.2,1.8v-.8c.1,0-.6.2-.6.2,0-.1-.4-.8-.5-.9.3,0,.7,0,.9-.3h0Z" style="fill: #1d89b9;"/>
  <path d="M2.9,33.5c-.2.2-.3.6-.4.8l-.9-.3c0-.7.2-.4.4-.9.2.3.6.3.9.4Z" style="fill: #1d89b9;"/>
  <path d="M11.2,29.2c0,.1.1.2,0,.4-.2-.2-.6-.4-.8-.5h-.2s-.1-.1-.1-.2c-.2.3-.3.6-.6.8l.3-.6-.2-.2c0-.1.1-.5.2-.5,0,0,.3,0,.5-.2-.1.9.9,1,1.1,1h0Z" style="fill: #167baa;"/>
  <path d="M7.3,17.9c.1.9,0,4.3-.5,4.9l.5-4.9Z" style="fill: #fff;"/>
  <path d="M29.2,29.9l.2.8c0,0-.9,0-1,0,0-.7,0-.9.8-.8Z" style="fill: #23a0e1;"/>
  <path d="M4.4,31.5c-.3.2-.8.3-1.1.5-.5.3-.7.9-1.2,1,.7-1.2.9-1.5,2.3-1.6Z" style="fill: #a6dcf5;"/>
  <path d="M10.4,29.9c0-.2-.1-.7-.2-.9,0,0-.1-.1-.1-.2-.2.3-.3.6-.6.8-.8.6-1.6.5-2.5.3,0,.2-.1.7,0,.9.1.4,1.7.9,1.6,1.9,0,0,0,0,0,0,0,0,0,0,0,0-.9-.8-2-1.2-3.2-1.2-.2,0-.5,0-.7,0-.3.2-.8.3-1.1.5-.5.3-.7.9-1.2,1,0,0,0,0,0,0,.2.3.6.4.9.5.7-.3.8-.8,1.2-1,.4-.2.9-.2,1.1,0,0,0,.2-.1,0,0-.8.4-1.5.9-2.1,1.6.1,0,.2.4.3.5.2,0,3.2,0,3.6,0,2.6-.3,3.6-2.4,3.2-4.8h0Z" style="fill: #2ec9fd;"/>
  <path d="M2.5,34.3c0,.2,0,.5-.2.7-.7,0-.8-.4-.7-1l.9.3h0Z" style="fill: #0c5880;"/>
  <path d="M32.6,34.9c-.7.5-.5-.3-.6-.6l.8-.2v.8Z" style="fill: #0f6893;"/>
  <path d="M3.2,34.3h0c.1-.7,1.4-1.5,2.1-1.6,0,0,.2-.1,0,0-.8.4-1.5.9-2.1,1.6Z" style="fill: #a6dcf5;"/>
  <path d="M4.1,18.6c-.2.4-.5.8-.7,1.2,0-.1-.1,0-.2,0-.3.2-.5.4-.8.6l1.7-1.9Z" style="fill: #167baa;"/>
  <path d="M31.2,34.3h-.1c0,0-.1-.4-.3-.5-.2-.3-1.5-1-1.5-1.1.8.2,1.8.7,1.9,1.6Z" style="fill: #a6dcf5;"/>
  <path d="M5.2,29.8c-.1.3.1.6.1.9-.1,0-.4,0-.4,0,0-.3,0-.8.3-.8h0Z" style="fill: #1d89b9;"/>
  <path d="M29.4,30.7l-.2-.8c.4,0,.4.8.2.8Z" style="fill: #a6dcf5;"/>
  <path d="M5.3,29.9s0,0,0,0c-.1.3.1.6,0,.9h0c.2,0,.4,0,.6.1,0-.6,0-.9-.6-.9Z" style="fill: #23a0e1;"/>
  <path d="M19.7,21.7c-2.1.7-4.3.4-6.2-.6,0,0-.1,0,0,0,1.9,1.9,5.3,1.8,7.5.3l-1.2,1.2c0,0-.1,0-.3,0-1.2,0-2.2.2-3.4.2-.4,0-1-.3-1.3-.3-.8-.7-1.8-1.4-2.3-2.3,0-.1,0-.3.2-.2,2.7,1.4,6.3,1.4,9.1.1.2,0,.3.1.2.3-.1.2-1,.8-2.2,1.2h0Z" style="fill: #167baa;"/>
  <path d="M20.9,21.5c-2.2,1.5-5.6,1.6-7.5-.3,0,0,0-.1,0,0,1.9,1,4.1,1.3,6.2.6.6-.2,1.5-.4,1.2-.2Z" style="fill: #0e5168;"/>
  <path d="M23.1,29.3c0,.1-.4.6-.5.7-1.8,1.7-7.5,1.6-9.7.7-.7-.3-1.2-.7-1.8-1.1,0-.1,0-.2,0-.4,1.7.7,3.4,1.3,5.3,1.4,2.4.1,4.5-.4,6.7-1.3Z" style="fill: #dce4e8;"/>
  <path d="M14.7,22.6c1,1,3.2,1.1,4.4.5,0,0,.5-.3.3-.4.1,0,.2,0,.3,0,.9,0,2.9,1.2,3.3,2,.6,1.1.7,3.2.2,4.6-2.2.9-4.3,1.4-6.7,1.3-1.9,0-3.6-.7-5.3-1.4,0,0,0,0,0-.2-.5-2.7.3-6.1,3.6-6.4Z" style="fill: #fff;"/>
  <path d="M14.7,22.6c.3,0,.9.2,1.3.3,1.2,0,2.3-.1,3.4-.2.2,0-.2.4-.3.4-1.2.5-3.5.5-4.5-.5,0,0,0,0,.1,0h0Z" style="fill: #dce4e8;"/>
  <path d="M32.2,19.9c0,0,0,.2,0,.2-.1,0-1.7-2-2.1-2-.4-.7-.7-1.3-1.1-1.9.4.4.9.7,1.3,1,.9.8,1.5,1.7,2,2.7Z" style="fill: #1d89b9;"/>
  <path d="M28.3,15c1.4,1.2,4.1,3.4,4.5,5.2,0,.2.2.7,0,.8-.2-.4-.4-.7-.6-1-.6-1-1.2-1.9-2-2.7-.4-.3-.9-.6-1.3-1,.4.6.8,1.3,1.1,1.9.3.5.7,1.2,1,1.7.3.6.6,1.3.8,2,0,.3.2.6.2,1,0,0-.3.1-.3,0-.1-1.1-3-4.6-3.8-5.6-.1-.2,0-1,0-1.1s.3-.1.3-.3-.4-.5-.6-.8c-.1-.1,0-.3.2-.2.1,0,.3.2.4.2h0Z" style="fill: #fff;"/>
  <path d="M4.4,17.9l-2.5,2.4c0-.1,0-.4.2-.5.6-1,1.5-2.1,2.3-2.9l1-.7c-.4.6-.7,1.1-1,1.7Z" style="fill: #1d89b9;"/>
  <path d="M30.2,31.6c-1.6-.2-2.8.4-4,1.4,0,0,0-.2,0-.3-.7-.8,1.4-1.8,1.4-1.9,0,0,0-.5,0-.6-.8-.3-1.6.2-2.4-.3-1.5-1.4-1.9-3.6-.8-5.4.7-1.4,2.3-2.5,2-4.3l.2.4c0-.9-.1-1.8.5-2.6,0,1.7.2,3.3.6,4.9.3.3,1.1.2,1.1.8-1.9-.3-3.4.9-4.1,2.6,0,0,.6.2.7.1.6-.5.7-1.5,1.5-1.7.8-.4-.5.9-.6,1.1-.3.5-.4,1.2-.7,1.6v.5l.3-.5c1.1,1,1.9-.1,2.7-1,.3.2.4.7.4,1,5.9-2.7,2-8-.9-11.4,0,0,.3-.1.3-.3,0,0-.4-.4-.6-.7-.1-.1,0-.3.2-.3.1,0,.3.2.4.2.4,0,2.7.9,2.8.8.2,0-.3-.9-.3-.9-.5-.8-1.1-1.5-1.9-1.8-.3,0-1.7-.3-2.3-.3,1.8-1.3,0-2.3-.7-2.9-1.3-1.1-1.6-.6-2.5-2.5h-1.6c0-1,.1-1.6.5-2.4-1-.2-2,.2-2.8.7-.3-.6-.1-1.3,0-2l-2.3,1.8-2.1-1.9-.3,2.3c-.7-.8-1.8-1.3-2.8-.9.5.6.7,1.2.9,2-.3,0-2-.5-2.1-.4-.4,2.6-4.6,4.5-3.1,6.5,0,.1-.3,0-.3-.1-2-.2-2.5.2-3.6,1.9,0,0-.4.4-.4.7,0,0,0,.2.2.1l2.7-.7c-1.9,1.3-4.5,3.5-4.6,6l.4-.7c.3-1.1,2.4-3.5,3.5-4.2-2.4,3.9-5.4,8.7,0,11.5,0-.4,0-1,.4-1.1.7.9,1.6,1.9,2.7.9-.2-.6-.4-1.3-.7-1.8-.1-.2-1-1-.4-.8.9.3,1.6,2,2,2.8.2-.4.2-.7.2-1.1-.4-.3-.4-.9-.7-1.3-.4-.7-1.6-1.4-2.5-1.5-.4,0-1.7.4-.8-.4.2-.5.6,0,.9-.5l.5-4.9c.9,2.4,0,3.7,2.3,5.9.2.2.3.4,0,.4.8.9,1.4,3.1.3,4-.1.8.5.9,1.1,1,0,0,0-.3-.1-.4-.5-2.7.6-5.8,3.7-6.1-.8-.7-1.8-1.4-2.3-2.3,0-.1,0-.3.2-.2,2.7,1.4,6.3,1.4,9.1.1.2,0,.3.1.2.3-.2.4-.6.8-1,1l-1.2,1.2c.9,0,2.9,1.2,3.3,2,.6,1.4.8,4.1-.3,5.3l1.3-.9c.2-.1.2,0,.2,0-.6,2.7,0,4.4,1.3,5.1,1.2.7,3.1.7,5.2.5,0,0,.3-.3.3-.4,0-.6-1.6-1.4-1.8-1.6.6-.2,1.1.2,1.3.4.4.4.8.2.9.3.3,0,.7,0,.9-.3-.5-.5-1.3-1.4-2.1-1.5h0Z" style="fill: #2ec9fd;"/>
  <path d="M32.3,33.1h0c-.5-.5-1.8-.9-2.5-1-1.6-.2-2.4,0-3.6.9,0,0,0-.2,0-.3,0-.2.6-.5.8-.6,1.6-1,4.7-1.1,5.4,1h0Z" style="fill: #2ec9fd;"/>
  <path d="M27.7,22.9c-.7-.6-.7-3.9-.7-4.9h.1c0,1.6.2,3.2.6,4.9h0Z" style="fill: #a6dcf5;"/>
  <path d="M25.6,27.4c0-.7.8-2.2,1.3-2.6,0,0,0,0,0,0,.1,0,.3-.2.2,0,0,.2-.7.8-.8,1.1-.3.5-.4,1.2-.7,1.5h0Z" style="fill: #a6dcf5;"/>
  <path d="M7.5,24.8c.6.8,1.2,1.8,1.2,2.8-.1,0-.1-.1-.2-.2-.2-.6-.4-1.3-.7-1.8-.1-.2-1-1-.4-.8h0Z" style="fill: #fff;"/>
  <path d="M18.9,12.4c1.4.9,3.1-.7,2.2-2.1-1.1-1.6-3.3-.4-2.7,1.4-.4,0-.2-.8-.2-1.1.1-.5.3-1,.8-1.2,1.8-.9,3.1.4,2.8,2.3,0,.4-.9,1.1-1.3,1.2-.5.1-1.4,0-1.6-.4h0Z" style="fill: #fff;"/>
  <path d="M16,11.5c.2-1-.9-2.2-2-1.9-.1,0-.9.8-1,.9-.7,1.5,1,2.9,2.3,1.9.3,0,0,.2,0,.2-1,.5-2.2.2-2.8-.7-.2-.3,0-.3-.1-.6-.1-1.5,1-2.5,2.5-2.2,1,.3,1.3,1.5,1,2.3h0Z" style="fill: #fff;"/>
  <path d="M16,11.5c-.6,2.1-3.9,1.1-2.9-1,.7-1.7,3.2-.8,2.9,1Z" style="fill: #0e5168;"/>
  <path d="M13.9,10c.8-.2,1,1,.4,1.2-.8.2-1-1-.4-1.2Z" style="fill: #fff;"/>
  <path d="M14.6,11.5c.3-.1.5.3.2.4-.4.1-.3-.4-.2-.4Z" style="fill: #fff;"/>
  <path d="M18.9,12.4c-.2-.1-.4-.5-.5-.8-.6-1.8,1.6-2.9,2.7-1.4,1,1.4-.7,3.1-2.2,2.1h0Z" style="fill: #0e5168;"/>
  <path d="M20,10c.8-.2,1,1,.4,1.2-.8.2-.9-1-.4-1.2Z" style="fill: #fff;"/>
  <path d="M19.5,11.5c.4-.2.5.4.2.5-.2,0-.4-.4-.2-.5Z" style="fill: #fff;"/>
  <path d="M14.8,8.7c-.9,0-1.5.1-1.9.4,0,0-.2,0-.3,0,0,0-.1-.2,0-.3.4-1,1.5-1.2,2.4-.5,0,0,.1.2,0,.3,0,0-.1.2-.2.1Z" style="fill: #0e5168; fill-rule: evenodd;"/>
  <path d="M19,8.5c-.1,0-.2,0-.2-.1,0,0,0-.2,0-.3.9-.7,2-.4,2.4.5,0,0,0,.2,0,.3,0,0-.2,0-.3,0-.4-.2-1-.5-1.9-.4Z" style="fill: #0e5168; fill-rule: evenodd;"/>
  <path d="M10.9,14.2c0,2,.3,4.3,1.8,5.6,2.3,1.9,6.4,2.1,8.7.2-.3.5-1,1-1.6,1.3-1.4.7-2.8.8-4.5.3-3.5-1-5.1-4-4.6-7.4,0,0,0,0,.1,0h0Z" style="fill: #fff;"/>
  <path d="M22.9,14c.7.2.6.7.6,1.3l-.7,2.9c-.3.6-.8,1.4-1.3,1.9-2.3,1.9-6.4,1.7-8.7-.2-1.6-1.3-1.9-3.6-1.8-5.6,1.1-.4,6.1-.1,7.6-.1h2.4c.3,0,.5,0,.8,0,.4,0,.7-.1,1.2,0h0Z" style="fill: #0e5168;"/>
  <path d="M22.8,18.1l.7-2.9c0,1.1-.3,1.9-.7,2.9Z" style="fill: #0e5168;"/>
  <path d="M16.6,18.4c1-.1,2.1.2,2.8.9l.5-.7c.2.5.4.8.8,1.2-1,.9-2.6,1.5-4,1.4-.4,0-2.7-.9-2.8-1.2,0,0,.4-1.2.5-1.3.3-.3.4.9.6.9.4-.5.9-1,1.6-1.1h0Z" style="fill: #fff;"/>
  <path d="M13.7,14.5l.2,1c.2,0,.2-.6.2-.6.1-.1,2.5.7,3,.8.5,0,1.3,0,1.8-.1.7-.1,1.3-.9,1.5,0,.2,0,.2-.8.2-1,.4,0,.9-.2,1.3,0-.3.4-.9,2.1-1.4,2.2-.9.2-.9-1-1.2-1-.9,1.6-3.7,1.7-4.3-.2-.3-.1-.2,1.7-1.3,1.1-.4-.2-1.4-2.2-1.2-2.3.4,0,.8.2,1.2.2Z" style="fill: #fff;"/>
  <path d="M20.6,14.6c0,.2,0,1-.2,1-.2-1-.9-.2-1.5,0-.4,0-1.3.2-1.8.1-.5,0-2.9-.9-3-.8,0,0,0,.6-.2.6l-.2-1c2.1.2,4.9.2,6.9,0Z" style="fill: #cacaca;"/>
  <path d="M24.9,14.3c0,0-.2,0-.3,0-.7-.6-1.4-.8-1.8-.8-.1,0-.2,0-.2-.2,0,0,0-.2,0-.3.9-.6,2-.1,2.3,1,0,.1,0,.2,0,.3Z" style="fill: #0e5168; fill-rule: evenodd;"/>
  <path d="M11.1,13.3c-.7.4-1.1.9-1.3,1.2,0,0-.1.1-.2.1,0,0-.2,0-.2-.1-.2-.9.6-1.7,1.6-1.6,0,0,.2,0,.2.2,0,0,0,.2-.1.2h0Z" style="fill: #0e5168; fill-rule: evenodd;"/>
  <path d="M6.3,14.7c-1.1,1-2.9,2.2-4,3.9,0,.1,0,.2.2.1,1.3-1.5,2.6-2.2,2.9-2.6-.4.6-.5,1-.9,1.6-.3.5-.7,1.2-1,1.7-.3.6-.6,1.3-.8,2,0,.3-.2.6-.2,1,2-4.8,3.5-6.4,3.9-6.8-.5.3-.4,0-.2-.3.3-.2.5-.4.7-.7,0-.1,0-.3-.2-.2-.2,0-.3.1-.4.2Z" style="fill: #fff;"/>
  <path d="M25.9,28.9c.1,0,.3,0,.4,0,.9-.3,1.2-.9,1.3-1,.1-.3.2-.6,0-.8,0-.2-.2-.4-.4-.5-.3-.1-.7,0-1,.2h0s0,0,0,0c-.4.5-.5.9-.6,1.2,0,.2,0,.4.1.6,0,0,.1,0,.2.1h0Z" style="fill: #0e5168; fill-rule: evenodd;"/>
  <path d="M27.2,27.7s-.3.5-1,.8c0,0-.1,0-.1,0,0,0,0,0,0-.1,0-.2.2-.6.6-1.1.5-.5.9,0,.6.5Z" style="fill: #fff; fill-rule: evenodd;"/>
  <path d="M24.8,27.6c0,0,.2,0,.2-.1.4-.4.4-.8.4-.8,0-.2,0-.3-.2-.4,0,0-.2-.1-.4-.1-.2,0-.4.2-.5.4h0c0,.4,0,.7,0,.8,0,.1.1.2.2.3,0,0,0,0,.1,0h0Z" style="fill: #0e5168; fill-rule: evenodd;"/>
  <path d="M25.2,26.6s0,.4-.3.7c0,0,0,0,0,0,0,0,0,0,0,0,0-.1,0-.4,0-.7.1-.4.5-.2.5,0Z" style="fill: #fff; fill-rule: evenodd;"/>
  <path d="M9.6,27.8c0,0-.2,0-.2-.1-.4-.4-.4-.8-.4-.8,0-.2,0-.3.2-.4,0,0,.2-.1.4-.1.2,0,.4.2.5.4h0c0,.4,0,.7,0,.8,0,.1-.1.2-.2.3,0,0,0,0-.1,0h0Z" style="fill: #0e5168; fill-rule: evenodd;"/>
  <path d="M9.2,26.8s0,.4.3.7c0,0,0,0,0,0,0,0,0,0,0,0,0-.1,0-.4,0-.7-.1-.4-.5-.2-.5,0Z" style="fill: #fff; fill-rule: evenodd;"/>
  <path d="M28.7,29.1c.1,0,.3,0,.4,0,.9-.3,1.2-.9,1.3-1,.1-.3.2-.6,0-.8,0-.2-.2-.4-.4-.5-.3-.1-.7,0-1,.2h0s0,0,0,0c-.4.5-.5.9-.6,1.2,0,.2,0,.4.1.6,0,0,.1,0,.2.1h0Z" style="fill: #0e5168; fill-rule: evenodd;"/>
  <path d="M30,27.9s-.3.5-1,.8c0,0-.1,0-.1,0,0,0,0,0,0-.1,0-.2.2-.6.6-1.1.5-.5.9,0,.6.5Z" style="fill: #fff; fill-rule: evenodd;"/>
  <path d="M8.9,28.9c-.1,0-.3,0-.4,0-.9-.3-1.2-.9-1.3-1-.1-.3-.2-.6,0-.8,0-.2.2-.4.4-.5.3-.1.7,0,1,.2h0s0,0,0,0c.4.5.5.9.6,1.2,0,.2,0,.4-.1.6,0,0-.1,0-.2.1h0Z" style="fill: #0e5168; fill-rule: evenodd;"/>
  <path d="M7.6,27.7s.3.5,1,.8c0,0,.1,0,.1,0,0,0,0,0,0-.1,0-.2-.2-.6-.6-1.1-.5-.5-.9,0-.6.5Z" style="fill: #fff; fill-rule: evenodd;"/>
  <path d="M6.2,29.1c-.1,0-.3,0-.4,0-.9-.3-1.2-.9-1.3-1-.1-.3-.2-.6,0-.8,0-.2.2-.4.4-.5.3-.1.7,0,1,.2h0s0,0,0,0c.4.5.5.9.6,1.2,0,.2,0,.4-.1.6,0,0-.1,0-.2.1h0Z" style="fill: #0e5168; fill-rule: evenodd;"/>
  <path d="M4.9,27.9s.3.5,1,.8c0,0,.1,0,.1,0,0,0,0,0,0-.1,0-.2-.2-.6-.6-1.1-.5-.5-.9,0-.6.5Z" style="fill: #fff; fill-rule: evenodd;"/>
  <path d="M3,34.3s.4-.6.9-.5c.4,0,1.2.8.9,1.7-.3.8-2,.5-2,.5v-1.1l.3-.5Z" style="fill: #0e5168; fill-rule: evenodd;"/>
  <path d="M3.2,34.5c0,0-.3.4-.5.7,0,0,0,.1,0,.2,0,0,0,0,.2,0,.4,0,1.2-.3,1.4-.3,0,0,0,0,0,0,0,0,0,0,0-.1,0-.5-.2-.8-.7-.8,0,0,0,0,0,0,0,0-.2.1-.4.3Z" style="fill: #fff; fill-rule: evenodd;"/>
  <path d="M3,34.8c0,.1-.2.2-.2.4,0,0,0,.1,0,.2,0,0,0,0,.2,0,.4,0,1.2-.3,1.4-.3,0,0,0,0,0,0,0,0,0,0,0-.1,0-.3,0-.6-.3-.7-.3.2-.8.4-1.2.6h0Z" style="fill: #e2e2e2; fill-rule: evenodd;"/>
  <path d="M1.5,33.5s.4-.6.9-.5c.4,0,1.2.5.9,1.3-.1.4-.5.7-.9.8-.5.2-1.1,0-1.1,0v-1.1l.3-.5h0Z" style="fill: #0e5168; fill-rule: evenodd;"/>
  <path d="M1.8,33.7c0,0-.3.4-.5.7,0,0,0,.1,0,.2,0,0,0,0,.2,0,.4,0,1.2-.3,1.4-.3,0,0,0,0,0,0,0,0,0,0,0-.1,0-.5-.2-.8-.7-.8,0,0,0,0,0,0,0,0-.2.1-.4.3Z" style="fill: #fff; fill-rule: evenodd;"/>
  <path d="M1.6,34c0,.1-.2.2-.2.4,0,0,0,.1,0,.2,0,0,0,0,.2,0,.4,0,1.2-.3,1.4-.3,0,0,0,0,0,0,0,0,0,0,0-.1,0-.3,0-.6-.3-.7-.3.2-.8.4-1.2.6h0Z" style="fill: #e2e2e2; fill-rule: evenodd;"/>
  <path d="M31.3,34s-.2-.7-.7-.8c-.4,0-1.4.4-1.3,1.3,0,.9,1.8,1.1,1.8,1.1l.3-1.1v-.6Z" style="fill: #0e5168; fill-rule: evenodd;"/>
  <path d="M30.9,34.1c0-.2-.2-.3-.2-.4,0,0,0,0,0,0-.5-.1-.8,0-.9.5,0,0,0,.1,0,.2,0,0,0,0,0,0,.1.1.8.5,1.2.7,0,0,.1,0,.2,0,0,0,0,0,0-.2,0-.3-.2-.7-.3-.8h0Z" style="fill: #fff; fill-rule: evenodd;"/>
  <path d="M31.1,34.5c0,.1,0,.3.1.4,0,0,0,.1,0,.2,0,0-.1,0-.2,0-.4-.2-1.1-.6-1.2-.7h0c0,0,0-.1,0-.2,0-.3.2-.5.5-.6.3.3.6.6.9.9h0Z" style="fill: #e2e2e2; fill-rule: evenodd;"/>
  <path d="M32.9,33.6s-.2-.7-.7-.8c-.4,0-1.3.1-1.2,1,0,.4.3.8.6,1,.5.3,1.2.3,1.2.3l.2-1v-.6Z" style="fill: #0e5168; fill-rule: evenodd;"/>
  <path d="M32.5,33.7c0-.2-.2-.3-.2-.4,0,0,0,0,0,0-.5-.1-.8,0-.9.5,0,0,0,.1,0,.2,0,0,0,0,0,0,.1.1.8.5,1.2.7,0,0,.1,0,.2,0,0,0,0,0,0-.2,0-.3-.2-.7-.3-.8h0Z" style="fill: #fff; fill-rule: evenodd;"/>
  <path d="M32.7,34.1c0,.1,0,.3.1.4,0,0,0,.1,0,.2,0,0-.1,0-.2,0-.4-.2-1.1-.6-1.2-.7,0,0,0,0,0,0,0,0,0,0,0-.2,0-.3.2-.5.5-.6.3.3.6.6.9.9h0Z" style="fill: #e2e2e2; fill-rule: evenodd;"/>
  <path d="M31.2,31.8s0,0,0,0c0,0,0,0,0,0Z" style="fill: #a6dcf5;"/>
  <path d="M30.3,31.4c.3.2,1.2.6,1.7,1.4,0,0,.2,0,.3,0-.2-.6-1-1.3-2-1.5h0Z" style="fill: #a6dcf5;"/>
  <path d="M39,15v-2.1h5.5v2.1h-1.5v7.9h5v2.1h-8.9v-2.1h1.5v-7.9h-1.5ZM49.5,20.4v4.7h-2.5v-4.7h2.5ZM57.5,25c-.4,0-.6-.1-.8-.3-.2-.2-.3-.5-.3-.9v-1.9l.2-.3v-1c0,0-.2-.5-.2-.5v-.7c0-.3,0-.6-.2-.8-.1-.2-.3-.4-.6-.4-.2,0-.5-.1-.9-.1s-.9,0-1.2.3c-.3.2-.5.5-.6.9l-2.2-.3c0-.6.3-1.2.6-1.6.3-.4.8-.8,1.4-1,.6-.2,1.3-.3,2.2-.3s1.5.1,2.1.3c.6.2,1,.6,1.3,1,.3.5.4,1.1.4,1.8v3.9h1.1v2h-2.4ZM53.3,25.2c-.9,0-1.6-.2-2.1-.6-.5-.4-.7-1-.7-1.8s.2-1.3.7-1.7c.5-.4,1.2-.7,2.2-.9l3.4-.6v1.2l-2.7.6c-.4,0-.7.2-.8.4-.2.2-.3.4-.3.7s0,.6.3.7c.2.2.5.2.9.2s.8-.1,1.2-.3c.3-.2.6-.5.8-.9.2-.4.3-.9.3-1.4l.4,1.9h-.5c-.1.9-.4,1.6-1,2-.5.4-1.2.7-2.1.7ZM67.5,18.2h-1.3v-2h3.7v6.8h1.3v2h-3.7v-6.8ZM64.2,16.2v5.4c0,.5.1.9.4,1.2.2.3.6.4,1,.4s.7-.1,1-.3c.3-.2.5-.5.7-.9.2-.4.3-.9.3-1.5l.4,1.9h-.5c-.1.9-.5,1.6-1,2.1-.5.5-1.2.7-2,.7s-1.6-.3-2.1-.8c-.5-.5-.7-1.3-.7-2.2v-4h-1.2v-2h3.6ZM76.1,23h1.1v2h-5v-2h1.4v-4.8h-1.4v-2h3.8v6.8ZM79.5,23v-3.4c0-.5-.1-.9-.4-1.2-.2-.3-.6-.4-1.1-.4s-.7.1-1.1.3c-.3.2-.5.5-.7.9-.2.4-.3.9-.3,1.4l-.4-1.9h.5c0-.6.3-1.1.5-1.6.3-.4.6-.7,1-.9.4-.2.9-.3,1.5-.3.9,0,1.6.3,2.1.8.5.5.7,1.3.7,2.2v4h1.3v2h-4.8v-2h1.1ZM89,25.2c-1,0-1.8-.2-2.6-.6-.7-.4-1.3-.9-1.7-1.6-.4-.7-.6-1.5-.6-2.4s.1-1.3.3-1.9c.2-.6.5-1.1.9-1.5.4-.4.8-.7,1.3-1s1.1-.3,1.7-.3,1,0,1.3.3c.4.2.6.4.8.8s.3.8.3,1.3h.5l-.4,1.5c0-.4-.2-.7-.3-.9-.2-.3-.4-.5-.7-.6-.3-.1-.6-.2-1-.2s-.9.1-1.2.3c-.3.2-.6.5-.8.9-.2.4-.3.8-.3,1.3s0,.9.3,1.3c.2.4.5.7.8.9.4.2.8.3,1.3.3s.9-.1,1.3-.3c.4-.2.6-.5.7-.9l2.4.8c-.3.8-.8,1.4-1.6,1.9-.8.5-1.7.7-2.8.7ZM90.9,19.8v-3.7h2.4v3.7h-2.4ZM98.2,23h1.1v2h-4.9v-2h1.3v-8.7h-1.3v-2h3.8v10.7ZM101.7,23v-3.4c0-.5-.1-.9-.3-1.2-.2-.3-.6-.4-1-.4s-.7.1-1.1.3c-.3.2-.6.5-.8,1-.2.4-.3,1-.3,1.6l-.4-1.9h.5c0-.7.3-1.2.5-1.7.3-.4.6-.8,1-1,.4-.2.9-.3,1.5-.3.9,0,1.6.3,2,.8.5.5.7,1.3.7,2.2v4.1h1.3v2h-4.8v-2h1.1ZM106.1,28.4v-2h1.3v-8.2h-1.3v-2h3.8v4.2s0,.4,0,.4v1.2s0,4.4,0,4.4h1.3v2h-5ZM112.8,25.2c-.6,0-1.2-.1-1.8-.4-.5-.3-1-.7-1.4-1.3-.4-.6-.7-1.3-.9-2.1l1.2-.8c0,.5,0,.9.3,1.3.2.4.4.7.8.9s.7.3,1.2.3.9-.1,1.2-.3c.3-.2.6-.5.8-.9.2-.4.3-.8.3-1.3s0-.9-.3-1.3c-.2-.4-.4-.7-.8-.9-.3-.2-.7-.3-1.2-.3s-.9.1-1.2.3c-.3.2-.6.5-.8.9-.2.4-.3.8-.3,1.3l-.2-2h.4c.1-.6.3-1,.5-1.4.2-.4.6-.7,1-.9.4-.2.9-.3,1.4-.3s1.2.1,1.6.4c.5.2.9.6,1.3,1,.3.4.6.9.8,1.5.2.6.3,1.2.3,1.8,0,.9-.2,1.7-.5,2.4-.3.7-.8,1.2-1.4,1.6-.6.4-1.3.6-2.2.6ZM125.3,25c-.4,0-.6-.1-.8-.3-.2-.2-.3-.5-.3-.9v-1.9l.2-.3v-1c0,0-.2-.5-.2-.5v-.7c0-.3,0-.6-.2-.8-.1-.2-.3-.4-.6-.4-.2,0-.5-.1-.9-.1s-.9,0-1.2.3c-.3.2-.5.5-.6.9l-2.2-.3c0-.6.3-1.2.6-1.6.3-.4.8-.8,1.4-1,.6-.2,1.3-.3,2.2-.3s1.5.1,2.1.3c.6.2,1,.6,1.3,1,.3.5.4,1.1.4,1.8v3.9h1.1v2h-2.4ZM121.1,25.2c-.9,0-1.6-.2-2.1-.6-.5-.4-.7-1-.7-1.8s.2-1.3.7-1.7c.5-.4,1.2-.7,2.2-.9l3.4-.6v1.2l-2.7.6c-.4,0-.7.2-.8.4-.2.2-.3.4-.3.7s0,.6.3.7c.2.2.5.2.9.2s.8-.1,1.2-.3c.3-.2.6-.5.8-.9.2-.4.3-.9.3-1.4l.4,1.9h-.5c-.1.9-.4,1.6-1,2-.5.4-1.2.7-2.1.7ZM135.7,25v-3.9s0-1.2,0-1.2v-1.4s0-4.1,0-4.1h-1.7v-2h4.2v10.7h1.3v2h-3.7ZM132.8,16c.6,0,1.2.1,1.8.4.5.3,1,.7,1.4,1.3.4.6.7,1.3.9,2.1l-1.2.8c0-.5,0-.9-.3-1.3-.2-.4-.4-.7-.8-.9s-.7-.3-1.2-.3-.9.1-1.2.3c-.3.2-.6.5-.8.9-.2.4-.3.8-.3,1.3s0,.9.3,1.3c.2.4.4.7.8.9.3.2.7.3,1.2.3s.9-.1,1.2-.3.6-.5.8-.9c.2-.4.3-.8.3-1.3l.2,2h-.4c-.1.6-.3,1-.5,1.4-.2.4-.6.7-1,.9-.4.2-.9.3-1.4.3s-1.2-.1-1.7-.4c-.5-.2-.9-.6-1.3-1-.3-.4-.6-.9-.8-1.5-.2-.6-.3-1.2-.3-1.8,0-.9.2-1.7.5-2.4.3-.7.8-1.2,1.4-1.6.6-.4,1.3-.6,2.2-.6Z" style="fill: #2ec9fd;"/>
</svg>