<?xml version="1.0" encoding="UTF-8"?>
<svg id="Layer_1" xmlns="http://www.w3.org/2000/svg" version="1.1" viewBox="0 0 36 34">
  <!-- Generator: Adobe Illustrator 29.2.1, SVG Export Plug-In . SVG Version: 2.1.0 Build 116)  -->
  <path d="M12.5,5.2c-.3.2-.4.2-1.1-.2-1-.6-1.5-1.6-2.2-2.6-.2-.2-.5-.2-.6,0-1,2,0,4.6,1.5,6.2,0,0,0,0,0,.2h.6c.2-.3.3-.6.5-.9.5-.8,1-1.5,1.5-2v-.8h0Z" style="fill: #0e5168;"/>
  <path d="M27.4,2.3c-.1-.2-.4-.2-.5,0-.1.3-.3.6-.3.7-.7,1-1.5,2-2.7,2.4v.9c.4.4.7.9,1.1,1.5.2.3.4.7.6,1h.6c0,0,0-.2-.1-.3,1.5-1.6,2.5-4.2,1.4-6.3Z" style="fill: #0e5168;"/>
  <path d="M24.8,5.8c.2-.3.6.2.8.2,0,0,.7-.7.9-.8,0,0,.6.7.6.7,0,0-.7,1.4-.8,1.4-.5-.3-1.2-1-1.5-1.5Z" style="fill: #bfcfdb;"/>
  <path d="M11.1,6c-.2.5-.9,1.1-1.3,1.4-.1,0-.8-1.2-.8-1.4s.5-.6.6-.7c.3-.1.8.9,1.1.9.1,0,.3-.3.4-.4,0,0,0,.2,0,.2h0Z" style="fill: #bfcfdb;"/>
  <path d="M11.1,6s0-.2,0-.2c0,0-.3.4-.4.4-.3,0-.7-1-1.1-.9l.5-.7c0,.3,1.2.9,1.2,1,0,0-.2.4-.3.4Z" style="fill: #fff;"/>
  <path d="M26.5,5.2c-.2,0-.8.8-.9.8-.2,0-.6-.5-.8-.2,0,0,0-.1,0-.2l1.2-1c0,0,.4.5.5.6h0Z" style="fill: #fff;"/>
  <path d="M25.3,7.4c-.1-.2-.3-.4-.4-.6-.2-.3-.4-.7-.8-1,.6-.4.6.4.9.8.2.3.7.6,1,.9l-.3.4c-.2-.2-.3-.4-.4-.6h0Z" style="fill: #bfcfdb;"/>
  <path d="M26.6,4.9c.2-.3.1-.8.6-.9,0,0,.1,0,.2,0,.1,0,0,1.2-.2,1.3-.1.2-.5-.4-.6-.4Z" style="fill: #bfcfdb;"/>
  <path d="M9.5,4.9c-.2.2-.4.4-.6.5,0,0-.2-.8-.2-.9h0c.2-.2.5-.2.5,0l.2.4h0Z" style="fill: #bfcfdb;"/>
  <path d="M9.5,4.9l-.2-.4c0-.2-.4-.3-.6-.1h0c0,0-.1-.2,0-.4,0,0,.7-.2.8-.2,0,0,.5.6.5.6s-.5.4-.5.5Z" style="fill: #fff;"/>
  <path d="M27.4,4c-.5,0-.5.6-.8.9,0,0-.5-.4-.5-.5,0,0,.4-.5.4-.5.1.2.7.1.8.2h0Z" style="fill: #fff;"/>
  <path d="M11.7,6.4c-.3.5-1,1.2-1.3,1.7l-.4-.4,1.2-1.1s.4-.1.5-.1Z" style="fill: #bfcfdb;"/>
  <path d="M27.2,2.9c0,.2.2.7.2.8-.9.2-.5-.3-.3-.8,0,0,.1,0,.2,0Z" style="fill: #fff;"/>
  <path d="M8.8,2.9c0,0,0,0,.1,0,.2.3.6.8,0,.8-.5,0-.3-.4-.2-.8h0Z" style="fill: #fff;"/>
  <path d="M11.2,6.6c0,0,0,0,0,0,0-.4.3-1.1.8-.7,0,0-.6.7-.7.8h0Z" style="fill: #fff;"/>
  <path d="M32.7,18.9c.2-1.4-1.2-3-2.1-4,1.8-.7-1.2-4-2.4-4.1.3-1.1-.5-1.6-1.2-2.1,0,0,0,0,0,0-1.2-.4-2.8-2.4-2.6-3.7-.4.1-.8.2-1.2.3,1.8-1.5-1.1-2.4-2.3-1.8-.2,0,.6-1.1,0-1.5-.9-.4-2.4.8-3,1.4-.6-.6-2-1.8-2.9-1.5-.8.2,0,1.4-.3,1.5-1.2-.3-4.1.5-2.2,1.9-.3,0-.7,0-1-.2,0,1.5-1.3,3.1-2.8,3.6,0,0,0,.1.1.2-.8.5-1.5,1-1.2,2-1.2,0-4.2,3.4-2.4,4.1-.9.7-3.6,4.6-1.1,4.6-.4,1-1.1,5.2.6,5.1,0,0,.6.8.7.9.2.2,1,.6,1,.7-.2.3-.4.6-.2,1-1,.2-2.5,1-2.3,2.2-.6.9-1.1,2.1.5,1.8-.2.8,1.1,1,2.2.6.3.3,1.2.2,2.1.2,2.3-.2,4.3.6,4.8-1.5,0-.8,0-2.3.6-2.4.2,0,1.3.2,1.7.3,1.4.2,2.5.2,3.6,0,1.5-.1,2.8-1.2,2.7,1.2v.2c0,2.8,2.2,2.1,4.8,2.2.9,0,1.8,0,2.1-.2,1.1.4,2.4.2,2.2-.6,1.7.4,1.1-.9.5-1.8.1-1.1-1-2-2.2-2.1h0c.1-.5.2-.6-.2-1.1.8-.4,1.3-1.1,1.8-1.6,1.6,0,.9-4.1.5-5h.6c0-.3.3-.4.4-.7h0Z" style="fill: #0e5168;"/>
  <path d="M25.6,8.7c-.5-.4-1-.9-1.4-1.5-.1-.2-.5-1.1-.5-1.2-.1,0-1.2.4-1.3.2,0-.7.3-1.3.7-1.9-1-.5-2.2-.3-2.9.5l.2-2.2c-1.1.2-1.7,1.2-2.5,1.9-.5-.9-1.5-1.8-2.5-1.9l.2,2.2c-.7-1.1-2-1.1-3-.4.4.4.8.8,1,1.4h-1.5c-.2,1.3-.9,2.2-1.8,2.9-1,.8-3.1,1.4-1.3,2.9,0,0,.2.2.3.1,0-.9,1.1-1,2.6-.8.4.2,1.1.2,2,.3,1.4.2,2.8.3,3.5,0,3.7-.2,8-.4,8.8.3-.7.2.3,0,.4,0,2.1-1.2-.3-2-1.2-2.7h0Z" style="fill: #fff;"/>
  <path d="M13,29.3c-.1,1.2.2,1.8-1.2,2.1-1.9.4-4.2,0-6.1.3-.1,0-.2-.9-.2-1.1h0c0,0,.2.4.3.4.2,0,2.9,0,3.2,0,2.3-.2,3.2-2.1,2.8-4.3.2.2.5.7.6.9,0,.3.4,1.6.5,1.6h0Z" style="fill: #167baa;"/>
  <path d="M30.4,30.6h0c0,.1,0,1,0,1-.7,0-1.3-.1-2-.1-1.1,0-4.6.3-5.2-.7-.2-.4-.1-1.4-.2-1.9.2.2.2.6.6.7-.1-1.1,0-2.2.6-3.2-.3,2.4.2,4.3,2.9,4.5.4,0,2.8,0,3,0,0,0,.2-.3.3-.3h0Z" style="fill: #167baa;"/>
  <path d="M7.6,24.7c.2.2.2.8.4,1.1h-.1c-1.6-.1-2.4-1.2-3.1-2.6v.3c-.4,0-.4-1.3-.3-1.5,0-1,.3-1.6.5-2.2.2,1,.6,3.3,1.3,4,.3.3,1.2.7,1.4.9h0Z" style="fill: #167baa;"/>
  <path d="M31.3,20.4c.2,1,.3,2.2.1,3.2-.1.2-.2-.2-.2-.2-.6,1.3-1.5,2.6-3.1,2.5,0,0,.4-1.1.4-1.2,1.7-.5,2.9-2.6,2.7-4.3,0,.1,0,0,0,0h0Z" style="fill: #167baa;"/>
  <path d="M28.2,23.8c-.2.4-.2,1-.5,1.3-.3.4-1.5.7-1.9.6-.3-.1-.3-.5-.3-.8l.2-.3c1,.9,1.8,0,2.4-.8,0,0,0,0,.1,0h0Z" style="fill: #167baa;"/>
  <path d="M10.4,24.5c0,0,0,.2.1.2,0,0,0,.8,0,.8-.2.4-1.9,0-2.2-.4-.2-.3-.3-.9-.5-1.3,0,0,0-.1.2,0,.6.8,1.4,1.7,2.4.8h0Z" style="fill: #167baa;"/>
  <path d="M24.1,26.5c-.6,1-.7,2-.6,3.2-.4,0-.4-.5-.6-.7,0-.5-.2-.8-.6-1.1.6-.4,1.2-.9,1.6-1.5,0-.1.2-.2.2-.3h0c0,.1,0,.3,0,.5h0Z" style="fill: #0c5880;"/>
  <path d="M11.9,25.9c.3.8.8,1.4,1.6,1.8-.4.6-.4.9-.5,1.5,0,0-.4-1.3-.5-1.6,0-.3-.3-.8-.6-.9,0-.2-.1-.6-.2-.8,0,0,.2,0,.2,0Z" style="fill: #0c5880;"/>
  <path d="M27.3,26.9c-.7-.2-1.4.2-2.1-.3-.5-.3-.9-1.2-1-1.7,0,.2.5.3.6.3.2.1.2.4.3.6.6.8,1.4.5,2.2.3.1,0,0,.6,0,.7h0Z" style="fill: #167baa;"/>
  <path d="M26.4,18.4c0,.5,0,1,0,1.6,0,.2-.1.4-.3.5-.7.3-1.2.8-1.7,1.3.6-1.2,2.1-2.2,1.8-3.8l.2.4h0Z" style="fill: #167baa;"/>
  <path d="M11.4,21.6c-.5-.6-1.1-.8-1.6-1.2-.1,0-.2-.2-.2-.4,0-.7.1-1.3.1-2,.2.8.3,1.4.7,2.1.2.4.6.7.9,1.1,0,0,.6.5,0,.3h0Z" style="fill: #167baa;"/>
  <path d="M7.9,20.8v.2c1.6-.4,3.4.8,3.5,2.5-.3-.2-.4-.8-.6-1.1-.4-.6-1.5-1.3-2.2-1.3-.4,0-1.5.3-.7-.3Z" style="fill: #fff;"/>
  <path d="M11.1,26.5c-.7.6-1.4.4-2.3.2,0,0,0-.5,0-.6.9.3,1.7.4,2.2-.4l.2.2-.2.6Z" style="fill: #167baa;"/>
  <path d="M31.4,17.8c.2.3.4.6.5.9-.4,0-1.2-1-1.6-1-.2-.5-.6-1-.9-1.5.4,0,1.8,1.8,1.9,1.8,0,0,0-.2,0-.2h0Z" style="fill: #0c5880;"/>
  <path d="M28.4,21.2c-1.7-.3-3.1.8-3.7,2.3h0c.2-1.7,2.2-3,3.8-2.3Z" style="fill: #a6dcf5;"/>
  <path d="M6.3,16.6l-1.5,1.7c-.1.1-.6.5-.7.5l.4-.6,2.2-2.2c-.1.2-.2.4-.3.6Z" style="fill: #0c5880;"/>
  <path d="M31.5,29.5c.4.3.6,1.3.2,1.6v-.7c.1,0-.6.1-.6.1,0-.1-.4-.7-.5-.8.3,0,.6,0,.8-.3h0Z" style="fill: #1d89b9;"/>
  <path d="M5.3,29.9c-.1.2-.3.5-.4.7l-.8-.3c0-.6.2-.4.4-.8.2.2.5.2.8.3Z" style="fill: #1d89b9;"/>
  <path d="M12.6,26.1c0,.1,0,.2,0,.3-.2-.2-.5-.3-.7-.5h-.2s0-.1-.1-.2c-.2.3-.3.5-.6.7l.2-.6-.2-.2c0-.1.1-.4.1-.4,0,0,.3,0,.4-.2-.1.8.8.9,1,.9h0Z" style="fill: #167baa;"/>
  <path d="M9.2,16.1c0,.8,0,3.8-.5,4.4l.5-4.4Z" style="fill: #fff;"/>
  <path d="M28.7,26.7l.2.7c0,0-.8,0-.9,0,0-.6,0-.8.7-.7Z" style="fill: #23a0e1;"/>
  <path d="M6.6,28.1c-.3.2-.7.3-1,.5-.4.3-.6.8-1.1.9.6-1,.8-1.3,2.1-1.4Z" style="fill: #a6dcf5;"/>
  <path d="M11.9,26.7c0-.2-.1-.6-.2-.8,0,0,0-.1-.1-.2-.2.3-.3.5-.6.7-.7.6-1.4.4-2.3.2,0,.2-.1.6,0,.8.1.3,1.5.8,1.4,1.7,0,0,0,0,0,0,0,0,0,0,0,0-.8-.7-1.8-1.1-2.9-1.1-.2,0-.4,0-.6,0-.3.2-.7.3-1,.5-.4.3-.6.8-1.1.9,0,0,0,0,0,0,.2.2.6.4.8.5.6-.2.7-.7,1.1-.9.3-.2.8-.2.9,0,0,0,.1-.1,0,0-.7.3-1.3.8-1.9,1.4,0,0,.2.4.3.4.2,0,2.9,0,3.2,0,2.3-.2,3.2-2.1,2.8-4.3h0Z" style="fill: #2ec9fd;"/>
  <path d="M4.9,30.6c0,.2,0,.4-.1.6-.6,0-.7-.3-.6-.9l.8.3h0Z" style="fill: #0c5880;"/>
  <path d="M31.7,31.2c-.6.4-.5-.3-.6-.6h.7c0-.1-.1.6-.1.6Z" style="fill: #0f6893;"/>
  <path d="M5.6,30.6h0c.1-.6,1.2-1.3,1.8-1.4,0,0,.1-.1,0,0-.7.3-1.3.8-1.9,1.4Z" style="fill: #a6dcf5;"/>
  <path d="M6.3,16.6c-.2.3-.4.7-.6,1.1,0-.1-.1,0-.2,0-.2.2-.5.4-.7.6l1.5-1.7Z" style="fill: #167baa;"/>
  <path d="M30.4,30.6h0c0,0-.1-.3-.2-.5-.2-.2-1.4-.9-1.4-1,.7.1,1.6.7,1.7,1.4Z" style="fill: #a6dcf5;"/>
  <path d="M7.3,26.6c-.1.3,0,.5,0,.8,0,0-.3,0-.4,0,0-.2,0-.7.3-.7h0Z" style="fill: #1d89b9;"/>
  <path d="M28.9,27.4l-.2-.7c.4,0,.3.7.2.7Z" style="fill: #a6dcf5;"/>
  <path d="M7.4,26.7s0,0,0,0c-.1.3,0,.5,0,.8h0c.2,0,.4,0,.5,0,0-.5,0-.8-.6-.8Z" style="fill: #23a0e1;"/>
  <path d="M20.3,19.4c-1.9.6-3.8.3-5.5-.6,0,0,0,0,0,0,1.7,1.7,4.7,1.6,6.7.3l-1.1,1.1c0,0-.1,0-.2,0-1,0-2,.2-3.1.1-.3,0-.9-.2-1.1-.2-.7-.6-1.6-1.2-2-2.1,0-.1,0-.2.2-.2,2.4,1.2,5.6,1.2,8.1,0,.2,0,.3,0,.2.2,0,.2-.9.7-2,1.1h0Z" style="fill: #167baa;"/>
  <path d="M21.3,19.2c-1.9,1.3-5,1.4-6.7-.3,0,0,0,0,0,0,1.7.9,3.6,1.2,5.5.6.6-.2,1.4-.4,1.1-.2Z" style="fill: #0e5168;"/>
  <path d="M23.3,26.2c0,.1-.3.5-.4.6-1.6,1.5-6.7,1.4-8.6.6-.6-.3-1-.6-1.6-1,0,0,0-.2,0-.3,1.5.6,3.1,1.2,4.7,1.2,2.1,0,4-.4,6-1.1Z" style="fill: #dce4e8;"/>
  <path d="M15.8,20.2c.9.9,2.9,1,3.9.5,0,0,.5-.3.2-.4,0,0,.2,0,.2,0,.8,0,2.5,1,2.9,1.8.5,1,.6,2.9.1,4.1-1.9.8-3.9,1.2-6,1.1-1.7,0-3.2-.7-4.7-1.2,0,0,0,0,0-.1-.5-2.4.2-5.4,3.2-5.7Z" style="fill: #fff;"/>
  <path d="M15.8,20.2c.2,0,.8.2,1.1.2,1.1,0,2,0,3.1-.1.2,0-.2.3-.2.4-1.1.5-3.1.4-4-.4,0,0,0,0,0,0h0Z" style="fill: #dce4e8;"/>
  <path d="M31.4,17.8c0,0,0,.2,0,.2-.1,0-1.5-1.8-1.9-1.8-.3-.6-.6-1.2-1-1.7.3.4.8.6,1.1.9.8.7,1.3,1.5,1.8,2.4Z" style="fill: #1d89b9;"/>
  <path d="M27.9,13.4c1.2,1.1,3.6,3,4.1,4.6,0,.2.2.6,0,.7-.1-.3-.3-.6-.5-.9-.5-.9-1.1-1.7-1.8-2.4-.3-.3-.8-.5-1.1-.9.4.5.7,1.1,1,1.7.3.5.6,1.1.9,1.5.3.6.5,1.2.7,1.8,0,.3.2.6.2.9,0,0-.2.1-.2,0-.1-.9-2.7-4.1-3.3-5,0-.1,0-.9,0-1s.3-.1.3-.3-.4-.4-.6-.7c0-.1,0-.3.2-.2.1,0,.2.2.3.2h0Z" style="fill: #fff;"/>
  <path d="M6.6,16l-2.2,2.2c0-.1,0-.4.1-.5.5-.9,1.3-1.8,2.1-2.6l.9-.6c-.3.5-.6,1-.9,1.5Z" style="fill: #1d89b9;"/>
  <path d="M29.6,28.2c-1.4-.2-2.5.4-3.5,1.2,0,0,0-.2,0-.2-.6-.7,1.3-1.6,1.3-1.7,0,0,0-.5,0-.6-.7-.2-1.4.2-2.1-.3-1.3-1.2-1.7-3.2-.7-4.8.6-1.2,2.1-2.2,1.8-3.8l.2.4c0-.8-.1-1.6.5-2.3,0,1.5.2,3,.5,4.4.3.3.9.2,1,.7-1.7-.3-3.1.8-3.7,2.3,0,0,.6.2.6.1.5-.5.6-1.3,1.4-1.5.7-.3-.5.8-.6,1-.2.4-.3,1.1-.6,1.4v.5l.2-.4c1,.9,1.7-.1,2.4-.9.3.2.4.6.3.9,5.3-2.4,1.8-7.1-.8-10.2,0,0,.3-.1.3-.3,0,0-.3-.4-.6-.6,0-.1,0-.3.2-.2.1,0,.2.1.3.2.3,0,2.4.8,2.5.7.2,0-.3-.8-.3-.8-.4-.7-1-1.3-1.7-1.6-.2,0-1.5-.3-2.1-.3,1.6-1.2,0-2-.6-2.6-1.2-.9-1.4-.6-2.2-2.3h-1.4c0-.9.1-1.4.5-2.1-.9-.2-1.8.2-2.5.6-.3-.6-.1-1.2,0-1.8l-2.1,1.6-1.9-1.7-.2,2.1c-.6-.7-1.6-1.2-2.5-.8.5.6.6,1.1.8,1.8-.2,0-1.8-.5-1.9-.3-.4,2.3-4.1,4-2.8,5.8,0,0-.2,0-.3-.1-1.8-.1-2.2.2-3.2,1.7,0,0-.3.4-.4.6,0,0,0,.2.2.1l2.4-.6c-1.7,1.2-4.1,3.2-4.1,5.3l.4-.6c.3-1,2.2-3.2,3.1-3.7-2.2,3.4-4.8,7.8,0,10.2,0-.3,0-.9.3-1,.6.8,1.4,1.7,2.4.8-.2-.6-.3-1.1-.6-1.6,0-.2-.9-.9-.3-.7.8.2,1.4,1.8,1.8,2.5.2-.3.2-.6.2-1-.3-.2-.4-.8-.6-1.1-.4-.6-1.5-1.3-2.2-1.3-.4,0-1.5.3-.7-.3.2-.4.6,0,.8-.4l.5-4.4c.8,2.1,0,3.3,2.1,5.2.2.2.2.4,0,.3.7.8,1.2,2.8.3,3.5-.1.7.5.8,1,.9,0,0,0-.3,0-.4-.4-2.4.5-5.2,3.3-5.5-.7-.6-1.6-1.2-2-2.1,0-.1,0-.2.2-.2,2.4,1.2,5.6,1.2,8.1,0,.2,0,.3,0,.2.2-.2.4-.6.7-.9.9l-1.1,1.1c.8,0,2.5,1,2.9,1.8.6,1.2.7,3.7-.3,4.7l1.2-.8c.1,0,.2,0,.2,0-.5,2.4,0,3.9,1.2,4.6,1.1.7,2.7.6,4.7.5,0,0,.2-.3.3-.3,0-.5-1.4-1.2-1.6-1.4.5-.2.9.1,1.2.3.3.3.7.2.8.3.3,0,.6,0,.8-.3-.5-.5-1.2-1.2-1.9-1.3h0Z" style="fill: #2ec9fd;"/>
  <path d="M31.5,29.5h0c-.5-.5-1.6-.8-2.2-.9-1.4-.2-2.1,0-3.2.8,0,0,0-.2,0-.2,0-.2.5-.5.7-.6,1.4-.9,4.2-1,4.8.9h0Z" style="fill: #2ec9fd;"/>
  <path d="M27.4,20.5c-.6-.5-.6-3.5-.6-4.3h0c0,1.4.2,2.9.5,4.3h0Z" style="fill: #a6dcf5;"/>
  <path d="M25.5,24.5c0-.6.7-1.9,1.1-2.4,0,0,0,0,0,0,.1,0,.3-.2.2,0,0,.2-.6.7-.7,1-.2.4-.3,1-.6,1.4h0Z" style="fill: #a6dcf5;"/>
  <path d="M9.4,22.1c.5.7,1.1,1.6,1.1,2.5,0,0-.1-.1-.1-.2-.2-.6-.3-1.1-.6-1.6,0-.2-.9-.9-.3-.7h0Z" style="fill: #fff;"/>
  <path d="M19.5,11.1c1.3.8,2.8-.6,1.9-1.9-.9-1.4-2.9-.3-2.4,1.2-.3,0-.2-.7-.2-1,0-.5.3-.9.7-1.1,1.6-.8,2.8.3,2.5,2,0,.3-.8.9-1.2,1-.4.1-1.2,0-1.4-.4h0Z" style="fill: #fff;"/>
  <path d="M17,10.3c.2-.9-.8-2-1.7-1.7,0,0-.8.7-.9.8-.6,1.3.9,2.5,2.1,1.7.3,0,0,.2,0,.2-.9.5-2,.2-2.5-.6-.1-.3,0-.3-.1-.5-.1-1.3.9-2.3,2.2-1.9.9.2,1.2,1.4.9,2.1h0Z" style="fill: #fff;"/>
  <path d="M17,10.3c-.6,1.9-3.5,1-2.6-.9.6-1.5,2.8-.7,2.6.9Z" style="fill: #0e5168;"/>
  <path d="M15.1,9c.7-.2.9.9.3,1-.7.2-.9-.9-.3-1Z" style="fill: #fff;"/>
  <path d="M15.7,10.3c.3-.1.5.3.2.4-.3,0-.3-.3-.2-.4Z" style="fill: #fff;"/>
  <path d="M19.5,11.1c-.2-.1-.4-.5-.5-.7-.5-1.6,1.4-2.6,2.4-1.2.9,1.3-.6,2.7-1.9,1.9h0Z" style="fill: #0e5168;"/>
  <path d="M20.6,9c.7-.2.9.9.3,1-.7.2-.8-.9-.3-1Z" style="fill: #fff;"/>
  <path d="M20,10.3c.4-.2.4.4.2.4-.1,0-.3-.3-.2-.4Z" style="fill: #fff;"/>
  <path d="M15.9,7.8c-.8,0-1.4.1-1.7.3,0,0-.2,0-.2,0,0,0-.1-.1,0-.2.4-.9,1.4-1.1,2.2-.5,0,0,.1.2,0,.2,0,0-.1.1-.2.1Z" style="fill: #0e5168; fill-rule: evenodd;"/>
  <path d="M19.6,7.7c0,0-.2,0-.2-.1,0,0,0-.2,0-.2.8-.6,1.8-.4,2.2.5,0,0,0,.2,0,.2,0,0-.2,0-.2,0-.3-.2-.9-.4-1.7-.3Z" style="fill: #0e5168; fill-rule: evenodd;"/>
  <path d="M12.4,12.7c0,1.8.2,3.8,1.6,5,2,1.7,5.7,1.9,7.8.2-.2.4-.9.9-1.4,1.1-1.2.6-2.5.7-4,.3-3.1-.9-4.5-3.5-4.1-6.6,0,0,0,0,.1,0h0Z" style="fill: #fff;"/>
  <path d="M23.1,12.5c.6.2.5.6.5,1.1l-.6,2.6c-.3.6-.7,1.2-1.2,1.7-2.1,1.7-5.7,1.5-7.8-.2-1.4-1.2-1.7-3.2-1.6-5,1-.3,5.4-.1,6.8-.1h2.1c.3,0,.5,0,.7,0,.4,0,.6-.1,1.1,0h0Z" style="fill: #0e5168;"/>
  <path d="M23,16.2l.6-2.6c0,1-.2,1.7-.6,2.6Z" style="fill: #0e5168;"/>
  <path d="M17.5,16.5c.9-.1,1.8.2,2.5.8l.4-.6c.2.5.4.7.7,1-.9.8-2.4,1.3-3.5,1.2-.4,0-2.4-.8-2.5-1.1,0,0,.4-1.1.4-1.1.3-.2.4.8.6.8.4-.4.8-.9,1.4-1h0Z" style="fill: #fff;"/>
  <path d="M14.9,13l.2.9c.1,0,.2-.5.2-.6,0,0,2.2.6,2.7.7.4,0,1.2,0,1.6-.1.6-.1,1.2-.8,1.4,0,.2,0,.2-.7.2-.9.3,0,.8-.2,1.1,0-.3.4-.8,1.9-1.2,2-.8.2-.8-.9-1.1-.9-.8,1.5-3.3,1.5-3.9-.2-.3-.1-.2,1.5-1.1,1-.3-.2-1.2-2-1.1-2.1.3,0,.7.2,1,.2Z" style="fill: #fff;"/>
  <path d="M21.1,13.1c0,.2,0,.9-.2.9-.2-.9-.8-.2-1.4,0-.4,0-1.2.2-1.6.1-.5,0-2.6-.8-2.7-.7,0,0,0,.5-.2.6l-.2-.9c1.8.2,4.3.1,6.2,0Z" style="fill: #cacaca;"/>
  <path d="M24.9,12.8c0,0-.2,0-.3,0-.6-.6-1.2-.7-1.6-.7,0,0-.2,0-.2-.2,0,0,0-.2,0-.2.8-.5,1.8,0,2.1.9,0,0,0,.2,0,.2Z" style="fill: #0e5168; fill-rule: evenodd;"/>
  <path d="M12.6,11.9c-.7.3-1,.8-1.1,1.1,0,0-.1.1-.2.1,0,0-.2,0-.2-.1-.2-.8.5-1.5,1.4-1.4,0,0,.2,0,.2.2,0,0,0,.2-.1.2h0Z" style="fill: #0e5168; fill-rule: evenodd;"/>
  <path d="M8.3,13.1c-1,.9-2.6,2-3.5,3.5,0,.1,0,.2.2.1,1.2-1.4,2.3-2,2.6-2.3-.4.5-.5.9-.8,1.4-.3.5-.6,1.1-.9,1.5-.3.6-.5,1.2-.7,1.8,0,.3-.2.6-.2.9,1.8-4.3,3.1-5.7,3.4-6-.5.3-.4,0-.2-.2.2-.2.4-.3.6-.6,0-.1,0-.3-.2-.2-.2,0-.2.1-.3.2Z" style="fill: #fff;"/>
  <path d="M25.7,25.8c.1,0,.3,0,.4,0,.8-.3,1.1-.8,1.1-.9.1-.2.2-.5,0-.7,0-.2-.2-.3-.4-.4-.3-.1-.6,0-.9.2h0s0,0,0,0c-.3.4-.5.8-.6,1.1,0,.2,0,.4.1.5,0,0,0,0,.2.1h0Z" style="fill: #0e5168; fill-rule: evenodd;"/>
  <path d="M26.9,24.7s-.3.5-.9.7c0,0,0,0-.1,0,0,0,0,0,0-.1,0-.2.2-.6.5-1,.4-.4.8,0,.6.4Z" style="fill: #fff; fill-rule: evenodd;"/>
  <path d="M24.8,24.6c0,0,.2,0,.2,0,.3-.3.4-.7.4-.7,0-.2,0-.3-.1-.4,0,0-.2-.1-.3-.1-.2,0-.3.1-.4.4h0c0,.3,0,.6,0,.7,0,.1,0,.2.2.2,0,0,0,0,.1,0h0Z" style="fill: #0e5168; fill-rule: evenodd;"/>
  <path d="M25.1,23.8s0,.3-.3.6c0,0,0,0,0,0,0,0,0,0,0,0,0-.1,0-.4,0-.6.1-.3.4-.2.4,0Z" style="fill: #fff; fill-rule: evenodd;"/>
  <path d="M11.2,24.8c0,0-.2,0-.2,0-.3-.3-.4-.7-.4-.7,0-.2,0-.3.1-.4,0,0,.2-.1.3-.1.2,0,.3.1.4.4h0c0,.3,0,.6,0,.7,0,.1,0,.2-.2.2,0,0,0,0-.1,0h0Z" style="fill: #0e5168; fill-rule: evenodd;"/>
  <path d="M10.9,24s0,.3.3.6c0,0,0,0,0,0,0,0,0,0,0,0,0-.1,0-.4,0-.6-.1-.3-.4-.2-.4,0Z" style="fill: #fff; fill-rule: evenodd;"/>
  <path d="M28.2,26c.1,0,.3,0,.4,0,.8-.3,1.1-.8,1.1-.9.1-.2.2-.5,0-.7,0-.2-.2-.3-.4-.4-.3-.1-.6,0-.9.2h0s0,0,0,0c-.3.4-.5.8-.6,1.1,0,.2,0,.4.1.5,0,0,0,0,.2.1h0Z" style="fill: #0e5168; fill-rule: evenodd;"/>
  <path d="M29.4,24.9s-.3.5-.9.7c0,0,0,0-.1,0,0,0,0,0,0-.1,0-.2.2-.6.5-1,.4-.4.8,0,.6.4Z" style="fill: #fff; fill-rule: evenodd;"/>
  <path d="M10.7,25.8c-.1,0-.3,0-.4,0-.8-.3-1.1-.8-1.1-.9-.1-.2-.2-.5,0-.7,0-.2.2-.3.4-.4.3-.1.6,0,.9.2h0s0,0,0,0c.3.4.5.8.6,1.1,0,.2,0,.4-.1.5,0,0,0,0-.2.1h0Z" style="fill: #0e5168; fill-rule: evenodd;"/>
  <path d="M9.5,24.7s.3.5.9.7c0,0,0,0,.1,0,0,0,0,0,0-.1,0-.2-.2-.6-.5-1-.4-.4-.8,0-.6.4Z" style="fill: #fff; fill-rule: evenodd;"/>
  <path d="M8.2,26c-.1,0-.3,0-.4,0-.8-.3-1.1-.8-1.1-.9-.1-.2-.2-.5,0-.7,0-.2.2-.3.4-.4.3-.1.6,0,.9.2h0s0,0,0,0c.3.4.5.8.6,1.1,0,.2,0,.4-.1.5,0,0,0,0-.2.1h0Z" style="fill: #0e5168; fill-rule: evenodd;"/>
  <path d="M7,24.9s.3.5.9.7c0,0,0,0,.1,0,0,0,0,0,0-.1,0-.2-.2-.6-.5-1-.4-.4-.8,0-.6.4Z" style="fill: #fff; fill-rule: evenodd;"/>
  <path d="M5.3,30.6s.4-.6.8-.5c.4,0,1.1.7.8,1.5-.3.7-1.8.4-1.8.4v-1l.3-.4Z" style="fill: #0e5168; fill-rule: evenodd;"/>
  <path d="M5.6,30.8c0,0-.3.4-.4.6,0,0,0,.1,0,.2,0,0,0,0,.1,0,.4,0,1.1-.2,1.2-.3,0,0,0,0,0,0,0,0,0,0,0-.1,0-.5-.2-.7-.7-.7,0,0,0,0,0,0,0,0-.2.1-.3.3Z" style="fill: #fff; fill-rule: evenodd;"/>
  <path d="M5.4,31.1c0,0-.1.2-.2.3,0,0,0,.1,0,.2,0,0,0,0,.1,0,.4,0,1.1-.2,1.2-.3,0,0,0,0,0,0,0,0,0,0,0-.1,0-.3,0-.5-.3-.6-.3.2-.7.4-1,.5h0Z" style="fill: #e2e2e2; fill-rule: evenodd;"/>
  <path d="M4.1,29.9s.4-.6.8-.5c.4,0,1.1.4.8,1.2-.1.3-.4.6-.8.7-.5.1-1,0-1,0v-1l.3-.4h0Z" style="fill: #0e5168; fill-rule: evenodd;"/>
  <path d="M4.3,30.1c0,0-.3.4-.4.6,0,0,0,.1,0,.2,0,0,0,0,.1,0,.4,0,1.1-.2,1.2-.3,0,0,0,0,0,0,0,0,0,0,0-.1,0-.5-.2-.7-.7-.7,0,0,0,0,0,0,0,0-.2.1-.3.3Z" style="fill: #fff; fill-rule: evenodd;"/>
  <path d="M4.1,30.4c0,0-.1.2-.2.3,0,0,0,.1,0,.2,0,0,0,0,.1,0,.4,0,1.1-.2,1.2-.3,0,0,0,0,0,0,0,0,0,0,0-.1,0-.3,0-.5-.3-.6-.3.2-.7.4-1,.5h0Z" style="fill: #e2e2e2; fill-rule: evenodd;"/>
  <path d="M30.5,30.3s-.2-.6-.6-.7c-.4,0-1.3.4-1.2,1.2,0,.8,1.6,1,1.6,1l.3-1v-.5Z" style="fill: #0e5168; fill-rule: evenodd;"/>
  <path d="M30.3,30.4c0-.2-.2-.3-.2-.3,0,0,0,0,0,0-.4-.1-.7,0-.8.5,0,0,0,.1,0,.1,0,0,0,0,0,0,0,0,.7.5,1.1.6,0,0,.1,0,.2,0,0,0,0,0,0-.1,0-.3-.2-.6-.2-.7h0Z" style="fill: #fff; fill-rule: evenodd;"/>
  <path d="M30.4,30.8c0,.1,0,.2,0,.4,0,0,0,.1,0,.1,0,0,0,0-.2,0-.4-.2-1-.5-1.1-.6h0c0,0,0-.1,0-.2,0-.3.2-.5.4-.5.2.2.6.6.8.8h0Z" style="fill: #e2e2e2; fill-rule: evenodd;"/>
  <path d="M32,30s-.2-.6-.6-.7c-.4,0-1.1,0-1.1.9,0,.3.2.7.6.9.4.3,1.1.2,1.1.2l.2-.9v-.5Z" style="fill: #0e5168; fill-rule: evenodd;"/>
  <path d="M31.7,30.1c0-.2-.2-.3-.2-.3,0,0,0,0,0,0-.4-.1-.7,0-.8.5,0,0,0,.1,0,.1,0,0,0,0,0,0,0,0,.7.5,1.1.6,0,0,.1,0,.2,0,0,0,0,0,0-.1,0-.3-.2-.6-.2-.7h0Z" style="fill: #fff; fill-rule: evenodd;"/>
  <path d="M31.8,30.5c0,.1,0,.2,0,.4,0,0,0,.1,0,.1,0,0,0,0-.2,0-.4-.2-1-.5-1.1-.6,0,0,0,0,0,0,0,0,0,0,0-.1,0-.3.2-.5.4-.5.2.2.6.6.8.8h0Z" style="fill: #e2e2e2; fill-rule: evenodd;"/>
  <path d="M30.5,28.4s0,0,0,0c0,0,0,0,0,0Z" style="fill: #a6dcf5;"/>
  <path d="M29.7,28.1c.2.1,1.1.5,1.5,1.3,0,0,.2,0,.3,0-.2-.6-.9-1.2-1.8-1.3h0Z" style="fill: #a6dcf5;"/>
</svg>