<svg width="36" height="34" viewBox="0 0 36 34" fill="none" xmlns="http://www.w3.org/2000/svg">
<circle cx="18" cy="24" r="8" fill="white"/>
<mask id="path-2-outside-1_1382_80594" maskUnits="userSpaceOnUse" x="0.700195" y="0" width="35" height="33" fill="black">
<rect fill="white" x="0.700195" width="35" height="33"/>
<path fill-rule="evenodd" clip-rule="evenodd" d="M18.0628 2C13.934 2 10.3061 4.73875 9.17486 8.70959L2.7002 31.4374H33.4255L26.9508 8.70959C25.8196 4.73874 22.1917 2 18.0628 2ZM10.691 21.2238C12.4692 23.0089 15.0762 24.1711 18.0909 24.1711C21.1548 24.1711 23.7977 22.9706 25.5773 21.1357C25.0528 20.0438 24.2452 19.0899 23.2389 18.3507C23.0926 18.2432 23.1147 18.0086 23.2733 17.9203C24.3428 17.3246 25.0662 16.1824 25.0662 14.8713C25.0662 12.9451 23.5047 11.3836 21.5785 11.3836H14.6032C12.677 11.3836 11.1155 12.9451 11.1155 14.8713C11.1155 16.2099 11.8695 17.3723 12.976 17.957C13.1381 18.0427 13.1644 18.2805 13.0175 18.3903C12.0092 19.1438 11.2049 20.1145 10.691 21.2238ZM26.2083 23.3246C24.0805 25.1121 21.2272 26.2055 18.0909 26.2055C15.0121 26.2055 12.206 25.1519 10.0913 23.4223C10.0703 23.6383 10.0596 23.8571 10.0596 24.078C10.0596 28.1425 13.684 31.4374 18.1549 31.4374C22.6258 31.4374 26.2502 28.1425 26.2502 24.078C26.2502 23.8237 26.236 23.5723 26.2083 23.3246ZM17.3925 19.6461C17.8096 19.4053 17.8874 18.7594 17.5663 18.2033C17.2453 17.6473 16.647 17.3917 16.23 17.6325C15.8129 17.8732 15.7351 18.5192 16.0561 19.0752C16.3772 19.6313 16.9755 19.8869 17.3925 19.6461ZM19.1364 19.6461C18.7194 19.4053 18.6415 18.7594 18.9626 18.2033C19.2836 17.6473 19.8819 17.3917 20.299 17.6325C20.716 17.8732 20.7938 18.5192 20.4728 19.0752C20.1518 19.6313 19.5534 19.8869 19.1364 19.6461ZM12.8594 14.6278C12.8594 13.7994 13.531 13.1278 14.3594 13.1278H21.8225C22.6509 13.1278 23.3225 13.7994 23.3225 14.6278V15.4061C23.3225 16.2345 22.6509 16.9061 21.8225 16.9061H21.3748C20.9495 16.9061 20.5443 16.7256 20.2598 16.4096L19.8457 15.9495C19.5613 15.6334 19.156 15.4529 18.7308 15.4529H18.091H17.4511C17.0259 15.4529 16.6206 15.6334 16.3362 15.9495L15.9221 16.4096C15.6376 16.7256 15.2324 16.9061 14.8071 16.9061H14.3594C13.531 16.9061 12.8594 16.2345 12.8594 15.4061V14.6278Z"/>
</mask>
<path fill-rule="evenodd" clip-rule="evenodd" d="M18.0628 2C13.934 2 10.3061 4.73875 9.17486 8.70959L2.7002 31.4374H33.4255L26.9508 8.70959C25.8196 4.73874 22.1917 2 18.0628 2ZM10.691 21.2238C12.4692 23.0089 15.0762 24.1711 18.0909 24.1711C21.1548 24.1711 23.7977 22.9706 25.5773 21.1357C25.0528 20.0438 24.2452 19.0899 23.2389 18.3507C23.0926 18.2432 23.1147 18.0086 23.2733 17.9203C24.3428 17.3246 25.0662 16.1824 25.0662 14.8713C25.0662 12.9451 23.5047 11.3836 21.5785 11.3836H14.6032C12.677 11.3836 11.1155 12.9451 11.1155 14.8713C11.1155 16.2099 11.8695 17.3723 12.976 17.957C13.1381 18.0427 13.1644 18.2805 13.0175 18.3903C12.0092 19.1438 11.2049 20.1145 10.691 21.2238ZM26.2083 23.3246C24.0805 25.1121 21.2272 26.2055 18.0909 26.2055C15.0121 26.2055 12.206 25.1519 10.0913 23.4223C10.0703 23.6383 10.0596 23.8571 10.0596 24.078C10.0596 28.1425 13.684 31.4374 18.1549 31.4374C22.6258 31.4374 26.2502 28.1425 26.2502 24.078C26.2502 23.8237 26.236 23.5723 26.2083 23.3246ZM17.3925 19.6461C17.8096 19.4053 17.8874 18.7594 17.5663 18.2033C17.2453 17.6473 16.647 17.3917 16.23 17.6325C15.8129 17.8732 15.7351 18.5192 16.0561 19.0752C16.3772 19.6313 16.9755 19.8869 17.3925 19.6461ZM19.1364 19.6461C18.7194 19.4053 18.6415 18.7594 18.9626 18.2033C19.2836 17.6473 19.8819 17.3917 20.299 17.6325C20.716 17.8732 20.7938 18.5192 20.4728 19.0752C20.1518 19.6313 19.5534 19.8869 19.1364 19.6461ZM12.8594 14.6278C12.8594 13.7994 13.531 13.1278 14.3594 13.1278H21.8225C22.6509 13.1278 23.3225 13.7994 23.3225 14.6278V15.4061C23.3225 16.2345 22.6509 16.9061 21.8225 16.9061H21.3748C20.9495 16.9061 20.5443 16.7256 20.2598 16.4096L19.8457 15.9495C19.5613 15.6334 19.156 15.4529 18.7308 15.4529H18.091H17.4511C17.0259 15.4529 16.6206 15.6334 16.3362 15.9495L15.9221 16.4096C15.6376 16.7256 15.2324 16.9061 14.8071 16.9061H14.3594C13.531 16.9061 12.8594 16.2345 12.8594 15.4061V14.6278Z" fill="#121212"/>
<path d="M9.17486 8.70959L10.6175 9.12056L10.6175 9.12056L9.17486 8.70959ZM2.7002 31.4374L1.25759 31.0264L0.713198 32.9374H2.7002V31.4374ZM33.4255 31.4374V32.9374H35.4124L34.8681 31.0264L33.4255 31.4374ZM26.9508 8.70959L25.5082 9.12055L25.5082 9.12055L26.9508 8.70959ZM10.691 21.2238L9.32994 20.5933L8.89052 21.5418L9.62826 22.2824L10.691 21.2238ZM25.5773 21.1357L26.654 22.1801L27.3823 21.4292L26.9294 20.4863L25.5773 21.1357ZM23.2389 18.3507L24.1269 17.1418L24.1269 17.1418L23.2389 18.3507ZM23.2733 17.9203L24.0033 19.2307L24.0033 19.2307L23.2733 17.9203ZM12.976 17.957L13.6768 16.6308L13.6768 16.6308L12.976 17.957ZM13.0175 18.3903L12.1195 17.1888L12.1195 17.1888L13.0175 18.3903ZM26.2083 23.3246L27.699 23.1579L27.3877 20.3748L25.2434 22.1761L26.2083 23.3246ZM10.0913 23.4223L11.0409 22.2612L8.86952 20.4853L8.59834 23.2773L10.0913 23.4223ZM17.5663 18.2033L16.2673 18.9533L16.2673 18.9533L17.5663 18.2033ZM17.3925 19.6461L18.1425 20.9451L18.1425 20.9451L17.3925 19.6461ZM16.23 17.6325L16.98 18.9315L16.98 18.9315L16.23 17.6325ZM16.0561 19.0752L14.7571 19.8252L14.7571 19.8252L16.0561 19.0752ZM18.9626 18.2033L17.6635 17.4533L17.6635 17.4533L18.9626 18.2033ZM20.299 17.6325L19.549 18.9315L19.549 18.9315L20.299 17.6325ZM20.4728 19.0752L21.7718 19.8252L21.7718 19.8252L20.4728 19.0752ZM20.2598 16.4096L19.1449 17.413L19.1449 17.413L20.2598 16.4096ZM19.8457 15.9495L20.9607 14.946L20.9607 14.946L19.8457 15.9495ZM16.3362 15.9495L15.2212 14.946L15.2212 14.946L16.3362 15.9495ZM15.9221 16.4096L17.037 17.413L17.037 17.413L15.9221 16.4096ZM10.6175 9.12056C11.5651 5.79422 14.6041 3.5 18.0628 3.5V0.5C13.2638 0.5 9.04708 3.68327 7.73226 8.29862L10.6175 9.12056ZM4.1428 31.8484L10.6175 9.12056L7.73226 8.29862L1.25759 31.0264L4.1428 31.8484ZM33.4255 29.9374H2.7002V32.9374H33.4255V29.9374ZM25.5082 9.12055L31.9828 31.8484L34.8681 31.0264L28.3934 8.29862L25.5082 9.12055ZM18.0628 3.5C21.5215 3.5 24.5606 5.79422 25.5082 9.12055L28.3934 8.29862C27.0786 3.68327 22.8618 0.5 18.0628 0.5V3.5ZM18.0909 22.6711C15.4663 22.6711 13.2443 21.6616 11.7537 20.1652L9.62826 22.2824C11.694 24.3562 14.6861 25.6711 18.0909 25.6711V22.6711ZM24.5005 20.0914C23.0098 21.6284 20.7583 22.6711 18.0909 22.6711V25.6711C21.5512 25.6711 24.5855 24.3128 26.654 22.1801L24.5005 20.0914ZM22.3509 19.5596C23.1707 20.1618 23.8133 20.9277 24.2252 21.7852L26.9294 20.4863C26.2923 19.1598 25.3197 18.018 24.1269 17.1418L22.3509 19.5596ZM22.5434 16.6099C21.5027 17.1896 21.2583 18.7571 22.3509 19.5596L24.1269 17.1418C24.5318 17.4392 24.6672 17.8926 24.6364 18.2555C24.606 18.6128 24.4071 19.0058 24.0033 19.2307L22.5434 16.6099ZM23.5662 14.8713C23.5662 15.6166 23.1568 16.2682 22.5434 16.6099L24.0033 19.2307C25.5288 18.3809 26.5662 16.7483 26.5662 14.8713H23.5662ZM21.5785 12.8836C22.6763 12.8836 23.5662 13.7736 23.5662 14.8713H26.5662C26.5662 12.1167 24.3332 9.88365 21.5785 9.88365V12.8836ZM14.6032 12.8836H21.5785V9.88365H14.6032V12.8836ZM12.6155 14.8713C12.6155 13.7736 13.5054 12.8836 14.6032 12.8836V9.88365C11.8486 9.88365 9.61549 12.1167 9.61549 14.8713H12.6155ZM13.6768 16.6308C13.0424 16.2955 12.6155 15.6321 12.6155 14.8713H9.61549C9.61549 16.7876 10.6966 18.449 12.2752 19.2832L13.6768 16.6308ZM13.9154 19.5918C15.0122 18.7722 14.7372 17.1911 13.6768 16.6308L12.2752 19.2832C11.8621 19.0649 11.6562 18.6718 11.6202 18.3151C11.5836 17.9529 11.7123 17.4931 12.1195 17.1888L13.9154 19.5918ZM12.052 21.8543C12.4552 20.9841 13.0945 20.2054 13.9154 19.5918L12.1195 17.1888C10.924 18.0822 9.95458 19.245 9.32994 20.5933L12.052 21.8543ZM18.0909 27.7055C21.5763 27.7055 24.7722 26.4901 27.1731 24.4731L25.2434 22.1761C23.3888 23.7341 20.878 24.7055 18.0909 24.7055V27.7055ZM9.14168 24.5834C11.5269 26.5342 14.6693 27.7055 18.0909 27.7055V24.7055C15.3549 24.7055 12.8851 23.7695 11.0409 22.2612L9.14168 24.5834ZM11.5596 24.078C11.5596 23.9056 11.568 23.7353 11.5843 23.5673L8.59834 23.2773C8.57269 23.5414 8.55962 23.8085 8.55962 24.078H11.5596ZM18.1549 29.9374C14.3747 29.9374 11.5596 27.1827 11.5596 24.078H8.55962C8.55962 29.1023 12.9933 32.9374 18.1549 32.9374V29.9374ZM24.7502 24.078C24.7502 27.1827 21.9351 29.9374 18.1549 29.9374V32.9374C23.3165 32.9374 27.7502 29.1023 27.7502 24.078H24.7502ZM24.7176 23.4914C24.7391 23.6839 24.7502 23.8796 24.7502 24.078H27.7502C27.7502 23.7678 27.7329 23.4608 27.699 23.1579L24.7176 23.4914ZM16.2673 18.9533C16.2812 18.9774 16.256 18.9545 16.267 18.8635C16.278 18.772 16.3505 18.5157 16.6425 18.347L18.1425 20.9451C18.8516 20.5357 19.1715 19.8361 19.2454 19.2223C19.3193 18.6092 19.1725 17.9852 18.8654 17.4533L16.2673 18.9533ZM16.98 18.9315C16.6879 19.1001 16.4297 19.0347 16.3449 18.9985C16.2607 18.9625 16.2534 18.9292 16.2673 18.9533L18.8654 17.4533C18.5583 16.9214 18.0913 16.4823 17.5234 16.2397C16.9549 15.9968 16.189 15.924 15.48 16.3334L16.98 18.9315ZM17.3552 18.3252C17.3412 18.3011 17.3665 18.3241 17.3555 18.415C17.3445 18.5066 17.272 18.7629 16.98 18.9315L15.48 16.3334C14.7709 16.7428 14.451 17.4425 14.377 18.0562C14.3032 18.6693 14.45 19.2933 14.7571 19.8252L17.3552 18.3252ZM16.6425 18.347C16.9346 18.1784 17.1928 18.2438 17.2776 18.28C17.3618 18.316 17.3691 18.3494 17.3552 18.3252L14.7571 19.8252C15.0642 20.3572 15.5312 20.7963 16.0991 21.0389C16.6676 21.2817 17.4334 21.3545 18.1425 20.9451L16.6425 18.347ZM17.6635 17.4533C17.3564 17.9852 17.2096 18.6092 17.2835 19.2223C17.3574 19.8361 17.6773 20.5357 18.3864 20.9451L19.8864 18.347C20.1784 18.5157 20.2509 18.772 20.2619 18.8635C20.2729 18.9545 20.2477 18.9774 20.2616 18.9533L17.6635 17.4533ZM21.049 16.3334C20.3399 15.924 19.574 15.9968 19.0055 16.2397C18.4376 16.4823 17.9706 16.9214 17.6635 17.4533L20.2616 18.9533C20.2755 18.9292 20.2683 18.9625 20.184 18.9985C20.0992 19.0347 19.841 19.1001 19.549 18.9315L21.049 16.3334ZM21.7718 19.8252C22.0789 19.2933 22.2258 18.6693 22.1519 18.0562C22.0779 17.4425 21.758 16.7428 21.049 16.3334L19.549 18.9315C19.2569 18.7629 19.1845 18.5066 19.1734 18.415C19.1625 18.3241 19.1877 18.3011 19.1738 18.3252L21.7718 19.8252ZM18.3864 20.9451C19.0955 21.3545 19.8614 21.2817 20.4298 21.0389C20.9978 20.7963 21.4647 20.3572 21.7718 19.8252L19.1738 18.3252C19.1598 18.3494 19.1671 18.316 19.2514 18.28C19.3362 18.2438 19.5944 18.1784 19.8864 18.347L18.3864 20.9451ZM14.3594 11.6278C12.7026 11.6278 11.3594 12.9709 11.3594 14.6278H14.3594V14.6278V11.6278ZM21.8225 11.6278H14.3594V14.6278H21.8225V11.6278ZM24.8225 14.6278C24.8225 12.9709 23.4793 11.6278 21.8225 11.6278V14.6278H24.8225ZM24.8225 15.4061V14.6278H21.8225V15.4061H24.8225ZM21.8225 18.4061C23.4793 18.4061 24.8225 17.063 24.8225 15.4061H21.8225V15.4061V18.4061ZM21.3748 18.4061H21.8225V15.4061H21.3748V18.4061ZM19.1449 17.413C19.7138 18.0452 20.5243 18.4061 21.3748 18.4061V15.4061L21.3748 15.4061L19.1449 17.413ZM18.7308 16.9529L19.1449 17.413L21.3748 15.4061L20.9607 14.946L18.7308 16.9529ZM18.7308 16.9529L18.7308 16.9529L20.9607 14.946C20.3918 14.3139 19.5813 13.9529 18.7308 13.9529V16.9529ZM18.091 16.9529H18.7308V13.9529H18.091V16.9529ZM17.4511 16.9529H18.091V13.9529H17.4511V16.9529ZM17.4511 16.9529L17.4511 16.9529V13.9529C16.6007 13.9529 15.7902 14.3139 15.2212 14.946L17.4511 16.9529ZM17.037 17.413L17.4511 16.9529L15.2212 14.946L14.8071 15.4061L17.037 17.413ZM14.8071 18.4061C15.6576 18.4061 16.4681 18.0452 17.037 17.413L14.8071 15.4061L14.8071 15.4061V18.4061ZM14.3594 18.4061H14.8071V15.4061H14.3594V18.4061ZM11.3594 15.4061C11.3594 17.063 12.7026 18.4061 14.3594 18.4061V15.4061L14.3594 15.4061H11.3594ZM11.3594 14.6278V15.4061H14.3594V14.6278H11.3594Z" fill="white" mask="url(#path-2-outside-1_1382_80594)"/>
</svg>
