<svg width="208" height="43" viewBox="0 0 208 43" fill="none" xmlns="http://www.w3.org/2000/svg">
<path d="M12.9356 4.96548C12.572 5.2382 12.4053 5.2382 11.3902 4.61701C9.966 3.73825 9.2236 2.37466 8.34484 1.04137C8.13272 0.708044 7.64789 0.753497 7.46608 1.10197C6.04188 3.96552 7.57213 7.55631 9.51147 9.84412C9.48116 9.91987 9.43571 9.98048 9.40541 10.0562H10.2236C10.4357 9.64715 10.6629 9.23808 10.8902 8.829C11.5872 7.64722 12.2235 6.723 12.9204 6.02606V4.96548H12.9356Z" fill="#0E5168"/>
<path d="M33.8137 0.875082C33.6471 0.587212 33.238 0.587212 33.0865 0.875082C32.8895 1.23871 32.7229 1.67809 32.632 1.8296C31.7078 3.2841 30.5108 4.57193 28.8745 5.23858V6.55672C29.4048 7.16276 29.9048 7.85971 30.3896 8.64756C30.6775 9.11724 30.9351 9.58693 31.1926 10.0718H32.1017C32.0411 9.9354 31.9653 9.79904 31.9047 9.66268C33.9501 7.39003 35.4046 3.73863 33.8137 0.875082Z" fill="#0E5168"/>
<path d="M30.1926 5.8138C30.4653 5.40473 30.9956 6.13198 31.2835 6.07137C31.3593 6.05622 32.2835 5.05625 32.4956 4.9502C32.6016 5.08655 33.344 5.90471 33.3592 5.96531C33.3592 6.08652 32.3895 7.9501 32.2683 7.9804C31.5259 7.54102 30.5259 6.60166 30.1926 5.8138Z" fill="#BFCFDB"/>
<path d="M10.9659 6.07116C10.7386 6.75296 9.70835 7.54081 9.14776 7.98019C8.9811 7.94989 8.05688 6.25297 8.05688 6.04086C8.05688 5.88935 8.70838 5.1318 8.84474 5.08635C9.31442 4.90453 9.93561 6.32873 10.3295 6.34388C10.4811 6.34388 10.7841 5.91965 10.9204 5.81359C11.0265 5.76814 10.9507 6.07116 10.9507 6.07116H10.9659Z" fill="#BFCFDB"/>
<path d="M10.9659 6.0712C10.9659 6.0712 11.0416 5.76818 10.9356 5.81363C10.7992 5.90454 10.4962 6.34392 10.3447 6.34392C9.95074 6.34392 9.32955 4.91972 8.85986 5.08638L9.61741 4.10156C9.72347 4.46519 11.3446 5.40455 11.3598 5.51061C11.3598 5.54091 11.0568 6.02574 10.9659 6.0712Z" fill="white"/>
<path d="M32.4955 4.95002C32.2834 5.05608 31.3591 6.05605 31.2834 6.0712C31.0107 6.1318 30.4652 5.40455 30.1925 5.81363C30.1471 5.72272 30.0865 5.66212 30.0562 5.51061L31.7985 4.10156C31.9046 4.10156 32.3894 4.84396 32.4955 4.96517V4.95002Z" fill="white"/>
<path d="M30.9198 8.0411C30.7228 7.78354 30.5107 7.51082 30.3289 7.25325C29.9956 6.78357 29.8289 6.22298 29.2683 5.8442C30.0562 5.26846 30.0713 6.41994 30.5258 7.02598C30.8743 7.49567 31.5107 7.93505 31.9803 8.28352L31.5561 8.84411C31.2985 8.61684 31.1319 8.32897 30.9349 8.05625L30.9198 8.0411Z" fill="#BFCFDB"/>
<path d="M32.6926 4.61691C33.0411 4.20783 32.8896 3.43513 33.5562 3.35938C33.6017 3.37453 33.7229 3.35938 33.7835 3.35938C33.9502 3.46543 33.6774 5.02599 33.5562 5.2381C33.3896 5.49567 32.7987 4.70782 32.6926 4.61691Z" fill="#BFCFDB"/>
<path d="M8.72372 4.61682C8.46615 4.85924 8.22373 5.23801 7.8298 5.26831C7.75405 5.23801 7.60254 4.11684 7.60254 3.95017L7.72375 3.84412C7.98131 3.632 8.36009 3.72291 8.4813 4.02593L8.72372 4.60167V4.61682Z" fill="#BFCFDB"/>
<path d="M8.72365 4.61677L8.49638 4.05619C8.36002 3.73801 7.96609 3.64711 7.70853 3.85922L7.60247 3.95013C7.60247 3.75316 7.43581 3.51075 7.63277 3.35924C7.67822 3.32894 8.63274 3.01076 8.69334 3.02591C8.75395 3.02591 9.4509 3.85922 9.4509 3.91983C9.4509 3.96528 8.81455 4.52587 8.72365 4.61677Z" fill="white"/>
<path d="M33.7835 3.37475C33.132 3.43536 33.0562 4.22321 32.6926 4.63229C32.5714 4.51108 31.9502 4.0111 31.9654 3.87474C31.9654 3.82929 32.5411 3.13234 32.5866 3.11719C32.7835 3.34445 33.6168 3.31415 33.7683 3.37475H33.7835Z" fill="white"/>
<path d="M11.7993 6.60156C11.3297 7.23791 10.4206 8.34393 9.95091 8.96512L9.45093 8.40454L11.1024 6.79853C11.1024 6.79853 11.7236 6.60156 11.7993 6.60156Z" fill="#BFCFDB"/>
<path d="M33.6015 1.72338C33.7379 2.07186 33.8439 2.75365 33.8136 2.89001C32.5106 3.16273 33.0561 2.42033 33.3742 1.72338C33.4197 1.61733 33.5712 1.63248 33.6015 1.72338Z" fill="white"/>
<path d="M7.78417 1.81416C7.81448 1.72325 7.92053 1.7081 7.96599 1.78386C8.26901 2.20808 8.73869 2.90503 8.02659 2.96564C7.31449 3.02624 7.61751 2.34444 7.76902 1.81416H7.78417Z" fill="white"/>
<path d="M11.163 6.9347C11.0872 6.9347 11.0872 6.8741 11.1024 6.79834C11.163 6.26806 11.5266 5.32869 12.163 5.84383C12.2084 5.93474 11.2842 6.78319 11.1782 6.9347H11.163Z" fill="white"/>
<path d="M41.2983 24.1909C41.6013 22.1911 39.6317 20.0247 38.4045 18.646C40.8589 17.6158 36.6621 13.0557 35.0561 12.9193C35.4349 11.4195 34.4046 10.7377 33.3137 10.0257C33.3592 9.98022 33.3895 9.94992 33.4349 9.90447C31.8138 9.29847 29.4654 6.60177 29.8441 4.76862C29.3139 4.92012 28.7533 5.04132 28.1927 5.16252C30.7381 3.11727 26.6927 1.73862 25.0413 2.58702C24.7988 2.46582 25.9503 0.981123 24.9201 0.466023C23.6474 -0.155127 21.6171 1.58712 20.7384 2.40522C19.8748 1.51137 17.9203 -0.0642273 16.6173 0.344823C15.5113 0.693273 16.4961 2.35977 16.2234 2.40522C14.6022 1.92042 10.4811 3.13242 13.1326 5.11707C12.6629 5.07162 12.2083 4.98072 11.769 4.85952C11.7387 6.99567 9.98114 9.23787 7.87514 9.88932C7.93575 9.96507 8.0115 10.0408 8.07211 10.1166C6.96608 10.7983 5.99642 11.4801 6.39034 12.9496C4.75403 12.9345 0.542043 17.7522 2.98136 18.6763C1.67837 19.7217 -2.01848 25.1302 1.43595 25.1757C0.920819 26.5695 -0.0943006 32.3871 2.23896 32.3568C2.31471 32.3871 3.05711 33.4476 3.26923 33.6445C3.51165 33.8718 4.63282 34.4929 4.64797 34.5838C4.37525 35.0535 4.11769 35.4171 4.39041 36.0079C3.02681 36.3109 0.920819 37.4169 1.20869 39.1288C0.390533 40.3257 -0.38217 42.0982 1.96624 41.5983C1.63292 42.7497 3.43589 42.9921 5.0116 42.3861C5.46613 42.7497 6.67821 42.7042 7.96605 42.7194C11.1326 42.4921 14.0416 43.5223 14.6477 40.5529C14.7234 39.3712 14.5567 37.3714 15.4507 37.2048C15.7234 37.1442 17.3142 37.5381 17.7839 37.5987C19.6778 37.8411 21.3141 37.8411 22.8292 37.6896C24.9807 37.5229 26.7988 36.0685 26.6624 39.3864C26.6624 39.4621 26.6624 39.5379 26.6624 39.6288C26.617 43.5829 29.7684 42.5376 33.3743 42.7194C34.6622 42.7194 35.8743 42.7648 36.3288 42.3861C37.9045 42.9921 39.7075 42.7345 39.3741 41.5983C41.7225 42.0982 40.9498 40.3257 40.1317 39.1288C40.2984 37.5381 38.6772 36.2806 37.0863 36.1443L37.0106 36.0988C37.1621 35.4171 37.2227 35.2656 36.753 34.5838C37.9196 34.0384 38.5711 33.0234 39.2378 32.2962C41.4953 32.4022 40.4499 26.5695 39.9802 25.2514L40.7832 25.2817C40.9195 24.8727 41.2529 24.6909 41.3286 24.2212L41.2983 24.1909Z" fill="#0E5168"/>
<path d="M31.2835 9.93533C30.5259 9.32929 29.8744 8.61719 29.3896 7.78389C29.2381 7.54147 28.723 6.17788 28.6472 6.14758C28.4502 6.04152 26.9957 6.64756 26.8745 6.37484C26.7988 5.37487 27.3442 4.55672 27.8745 3.76886C26.5261 3.08707 24.8291 3.34463 23.814 4.48096L24.1322 1.45076C22.6019 1.70832 21.6929 3.10222 20.6475 4.08703C19.9505 2.8598 18.6172 1.57196 17.1627 1.375L17.5112 4.49611C16.5567 2.95071 14.7234 3.02646 13.3295 3.92037C13.9204 4.46581 14.4507 5.087 14.7537 5.85971L12.6023 6.02637C12.3144 7.67783 11.3447 8.90506 10.0872 9.95048C8.67814 11.1171 5.69338 11.9656 8.31451 14.011C8.37511 14.0564 8.61753 14.2988 8.70844 14.1776C8.64783 12.8746 10.2841 12.7989 12.3598 13.011C12.8598 13.2534 13.8598 13.3595 15.1779 13.3746C17.1779 13.6473 19.0869 13.814 20.0263 13.2534C25.1928 13.011 31.1774 12.6322 32.4047 13.7231C31.4047 14.011 32.7986 13.7231 32.9198 13.7534C35.8894 12.1171 32.5562 10.9808 31.2835 9.95048V9.93533Z" fill="white"/>
<path d="M13.7385 38.6444C13.5719 40.3565 14.087 41.1444 12.0265 41.6141C9.35988 42.2201 6.19331 41.614 3.46612 42.008C3.26916 41.9171 3.1934 40.7504 3.23886 40.5232H3.29946C3.43582 40.6292 3.60248 41.0686 3.72369 41.0989C3.95096 41.1747 7.76902 41.1444 8.2387 41.0989C11.5113 40.7807 12.6628 38.099 12.1931 35.1143C12.5416 35.3567 12.9507 36.0385 13.0264 36.4324C13.1173 36.8415 13.6022 38.6293 13.7385 38.6596V38.6444Z" fill="#167BAA"/>
<path d="M37.95 40.5837C37.95 40.5837 38.0409 40.5837 38.0863 40.5837C38.1166 40.7655 38.1166 41.9321 37.9954 42.0078C37.0712 42.0078 36.147 41.8412 35.2228 41.8109C33.6925 41.7654 28.7684 42.1745 27.92 40.8109C27.6018 40.3109 27.7533 38.8867 27.6018 38.1443C27.8594 38.4928 27.8442 39.0079 28.3745 39.1443C28.223 37.5989 28.4806 36.0838 29.2836 34.7354C28.8593 38.0231 29.526 40.72 33.3137 41.0533C33.844 41.0988 37.2227 41.1442 37.5712 41.0533C37.6621 41.023 37.9045 40.6746 37.9954 40.5988L37.95 40.5837Z" fill="#167BAA"/>
<path d="M6.13281 32.2813C6.40553 32.6298 6.46613 33.4479 6.70855 33.857L6.54188 33.9479C4.29953 33.6903 3.11775 32.2055 2.22384 30.2814L2.02688 30.6753C1.69355 30.7813 1.72386 28.7966 1.73901 28.5844C1.82991 27.1603 2.10263 26.3724 2.4208 25.5088C2.63292 26.933 3.20866 30.1602 4.20863 31.0541C4.66316 31.4631 5.87524 31.9783 6.1025 32.2813H6.13281Z" fill="#167BAA"/>
<path d="M39.2377 26.2208C39.5255 27.6601 39.7225 29.251 39.4346 30.6903C39.268 30.963 39.1619 30.3418 39.0862 30.3418C38.2831 32.1751 36.9347 33.9629 34.7378 33.8569C34.6772 33.7811 35.2984 32.3872 35.3135 32.1448C37.6317 31.4327 39.4043 28.5389 39.1165 26.1602C39.1165 26.3268 39.1165 26.2814 39.2528 26.2208H39.2377Z" fill="#167BAA"/>
<path d="M34.9804 30.9933C34.7531 31.4933 34.6622 32.3266 34.3289 32.766C33.9501 33.2963 32.2229 33.7811 31.6623 33.569C31.2078 33.4023 31.1926 32.8569 31.1775 32.4024L31.4654 32.0084C32.8441 33.2205 33.9198 31.8721 34.8137 30.8418C34.8289 30.8418 34.9501 30.9479 34.9804 30.9782V30.9933Z" fill="#167BAA"/>
<path d="M9.99634 31.9482C10.0266 32.0542 10.0569 32.2361 10.1933 32.2057C10.1933 32.3118 10.0872 33.2815 10.0569 33.3269C9.72362 33.9481 7.42067 33.2209 7.02674 32.7512C6.69342 32.327 6.63281 31.4633 6.37524 30.9785C6.43585 30.9331 6.43585 30.7967 6.60251 30.8422C7.46612 32.0239 8.60245 33.1754 9.98119 31.933L9.99634 31.9482Z" fill="#167BAA"/>
<path d="M29.2534 34.7199C28.4503 36.0684 28.2079 37.5835 28.3443 39.1289C27.814 38.9925 27.8292 38.4925 27.5716 38.1289C27.4352 37.4623 27.2837 37.0683 26.7383 36.6138C27.6473 36.0987 28.4049 35.3714 28.9352 34.4775C29.0261 34.3109 29.1473 34.1745 29.2837 34.0533L29.3746 33.9775C29.3746 34.2351 29.2837 34.4624 29.2382 34.7199H29.2534Z" fill="#0C5880"/>
<path d="M12.1931 34.0077C12.6325 35.0834 13.3597 36.0228 14.4506 36.4925C13.9052 37.3106 13.8294 37.7046 13.7385 38.6439C13.6173 38.6136 13.1173 36.841 13.0264 36.4167C12.9355 35.9925 12.5416 35.341 12.1931 35.0986C12.1477 34.8562 12.0265 34.2047 11.9355 34.0077C11.9658 33.9926 12.1628 34.0077 12.1931 34.0077Z" fill="#0C5880"/>
<path d="M33.6319 35.3722C32.5865 35.0389 31.6623 35.5995 30.632 34.9783C29.9956 34.5995 29.4199 33.342 29.1775 32.6602C29.3138 32.9632 29.8896 33.0389 29.9805 33.1147C30.2381 33.3117 30.2229 33.6904 30.4047 33.9177C31.238 35.0237 32.3895 34.5843 33.5258 34.4025C33.6925 34.4783 33.6167 35.1904 33.6167 35.3722H33.6319Z" fill="#167BAA"/>
<path d="M32.4047 23.4483C32.4047 24.1755 32.4805 24.9028 32.5108 25.63C32.5259 25.9634 32.3441 26.2512 32.0411 26.3876C31.0866 26.827 30.329 27.4482 29.6321 28.2663C30.5411 26.5239 32.5259 25.1604 32.1472 22.8877L32.4047 23.4331V23.4483Z" fill="#167BAA"/>
<path d="M11.4206 27.9632C10.7842 27.1905 9.95094 26.8118 9.19339 26.2815C9.01158 26.1451 8.89037 25.9481 8.89037 25.7209C8.86007 24.7967 9.04188 23.8422 9.04188 22.9482C9.25399 24.0543 9.48126 24.9633 10.0721 25.9481C10.3903 26.4784 10.9358 26.9784 11.2994 27.4936C11.2994 27.5087 12.1175 28.2208 11.4357 27.9784L11.4206 27.9632Z" fill="#167BAA"/>
<path d="M6.58728 26.8721L6.55698 27.1902C8.87509 26.5994 11.3599 28.266 11.4205 30.7356C10.9811 30.4174 10.8902 29.6296 10.5872 29.1599C10.0417 28.3114 8.54176 27.3872 7.52665 27.3266C6.99636 27.2963 5.3752 27.7963 6.58728 26.8721Z" fill="white"/>
<path d="M10.966 34.7803C9.96599 35.5681 8.98117 35.356 7.81454 35.0984C7.81454 34.9621 7.73879 34.4015 7.90545 34.3257C9.11753 34.7348 10.2387 34.9469 11.0266 33.75L11.2841 33.9773L10.966 34.7803Z" fill="#167BAA"/>
<path d="M39.4347 22.6149C39.6771 23.0392 39.9498 23.4482 40.1468 23.9028C39.6468 23.9634 38.4953 22.5695 37.9499 22.4786C37.6166 21.8119 37.1014 21.0392 36.7227 20.3574C37.3438 20.3877 39.2226 22.9331 39.3892 22.8725C39.5104 22.827 39.3135 22.6301 39.4195 22.6149H39.4347Z" fill="#0C5880"/>
<path d="M35.1774 27.3117C32.8289 26.9178 30.8896 28.4632 30.026 30.5389C30.026 30.5389 29.9351 30.5389 29.8896 30.5389C30.1472 28.1147 32.9199 26.3875 35.1774 27.3117Z" fill="#A6DCF5"/>
<path d="M4.32988 21.0096L2.20874 23.3278C2.01177 23.4793 1.43603 24.0853 1.17847 24.0399L1.6936 23.1308L4.78441 20.1006C4.6329 20.3885 4.49654 20.7066 4.32988 21.0096Z" fill="#0C5880"/>
<path d="M39.556 39.0381C40.056 39.5229 40.4045 40.8714 39.8136 41.2956L39.9803 40.3259L39.0409 40.5229C38.9803 40.3411 38.5258 39.5835 38.3894 39.432C38.7833 39.4623 39.2379 39.3866 39.4803 39.0381H39.5409H39.556Z" fill="#1D89B9"/>
<path d="M2.92071 39.5532C2.72374 39.8107 2.52678 40.2804 2.40557 40.5834L1.3147 40.1895C1.36015 39.3562 1.52681 39.6289 1.82983 39.0986C2.10255 39.4168 2.54193 39.4471 2.92071 39.5532Z" fill="#1D89B9"/>
<path d="M13.163 34.2048C13.1933 34.3563 13.2993 34.5079 13.2236 34.6594C12.9205 34.4472 12.5266 34.1897 12.1933 34.0079C12.163 34.0079 11.9963 34.0079 11.9357 34.0079C11.9054 33.9473 11.7994 33.8564 11.7691 33.7503C11.4964 34.1745 11.36 34.4776 10.9661 34.7806L11.2842 33.9776L11.0267 33.7503C11.1479 33.5685 11.1933 33.1594 11.2236 33.1443C11.3145 33.0382 11.6024 33.0837 11.7994 32.917C11.6176 34.0533 12.9357 34.1139 13.1478 34.2048H13.163Z" fill="#167BAA"/>
<path d="M8.39026 20.1758C8.52662 21.297 8.39026 25.4786 7.73877 26.2968L8.39026 20.1758Z" fill="white"/>
<path d="M35.6319 35.0385L35.8894 36.0688C35.7834 36.1142 34.7228 36.0991 34.6622 35.9779C34.6471 35.0839 34.6925 34.887 35.6319 35.0385Z" fill="#23A0E1"/>
<path d="M4.78423 37.0381C4.37515 37.326 3.81456 37.4169 3.40548 37.6896C2.82974 38.0532 2.49642 38.7805 1.89038 38.9774C2.78429 37.5229 2.9661 37.1593 4.78423 37.0381Z" fill="#A6DCF5"/>
<path d="M12.1931 35.1141C12.1477 34.8716 12.0265 34.2202 11.9356 34.0232C11.9053 33.9626 11.7992 33.8717 11.7689 33.7656C11.4962 34.1899 11.3598 34.4929 10.9659 34.7959C9.96594 35.5837 8.98112 35.3716 7.81449 35.1141C7.78419 35.4171 7.66298 35.9625 7.75389 36.2352C7.9054 36.7049 9.89018 37.3261 9.69322 38.5837C9.69322 38.6291 9.67807 38.6746 9.66292 38.7049C9.66292 38.6594 9.67807 38.6291 9.69322 38.5837C8.57204 37.5534 7.20845 37.0989 5.69335 37.0382C5.40548 37.0382 5.07216 37.0231 4.78429 37.0382C4.37521 37.3261 3.81462 37.417 3.40554 37.6897C2.8298 38.0534 2.49648 38.7806 1.89044 38.9776C1.84499 39.0533 1.84499 39.0836 1.82983 39.0988C2.10255 39.417 2.60254 39.6291 2.98131 39.7351C3.86007 39.3867 4.02673 38.7352 4.49642 38.5079C4.95095 38.2958 5.55699 38.2655 5.81456 38.5079C5.84486 38.523 6.01152 38.3412 5.90546 38.5685C4.92064 39.0382 4.07219 39.7351 3.29948 40.5078C3.43584 40.6139 3.6025 41.0533 3.72371 41.0836C3.95098 41.1593 7.76904 41.129 8.23872 41.0836C11.5113 40.7654 12.6628 38.0837 12.1931 35.0989V35.1141Z" fill="#2EC9FD"/>
<path d="M2.40571 40.5834C2.29966 40.8409 2.2845 41.1743 2.20875 41.447C1.32999 41.3712 1.26938 40.9773 1.29969 40.1895L2.39056 40.5834H2.40571Z" fill="#0C5880"/>
<path d="M39.8135 41.2949C38.9499 41.9161 39.162 40.8706 39.0408 40.5222L39.9801 40.3252L39.8135 41.2949Z" fill="#0F6893"/>
<path d="M3.29962 40.5223H3.23901C3.42083 39.6435 4.98138 38.7042 5.81469 38.5224C5.84499 38.5375 6.01165 38.3557 5.9056 38.583C4.92078 39.0526 4.07232 39.7496 3.29962 40.5223Z" fill="#A6DCF5"/>
<path d="M4.32989 21.0098C4.07232 21.4946 3.72384 22.0249 3.49658 22.4946C3.42082 22.3279 3.31477 22.4794 3.23901 22.5249C2.89054 22.7673 2.55721 23.0703 2.20874 23.3279L4.32989 21.0098Z" fill="#167BAA"/>
<path d="M38.0711 40.5829C38.0711 40.5829 37.9499 40.5829 37.9347 40.5829C37.8438 40.4769 37.7681 40.1436 37.5863 39.9314C37.2984 39.6133 35.6924 38.6891 35.6924 38.583C36.6772 38.78 37.9196 39.5072 38.0711 40.5829Z" fill="#A6DCF5"/>
<path d="M5.69347 34.9775C5.51166 35.3412 5.82983 35.7048 5.82983 36.0684C5.69347 36.0381 5.39045 36.1442 5.3147 35.9775C5.345 35.629 5.28439 35.023 5.70862 34.9775H5.69347Z" fill="#1D89B9"/>
<path d="M35.8894 36.0684L35.6318 35.0381C36.147 35.1138 36.1015 35.9926 35.8894 36.0684Z" fill="#A6DCF5"/>
<path d="M5.8147 35.0382C5.8147 35.0382 5.73894 34.9624 5.69349 34.9776C5.51168 35.3412 5.82985 35.7048 5.8147 36.0685C5.82985 36.0685 5.86015 36.0685 5.8753 36.0685C6.11772 36.1139 6.37529 36.1291 6.6177 36.2048C6.70861 35.4624 6.66316 35.0533 5.8147 35.0382Z" fill="#23A0E1"/>
<path d="M23.814 24.8723C21.1474 25.7208 18.496 25.342 16.0718 24.0996C15.9961 24.0693 15.9355 24.1602 15.9961 24.2057C18.3899 26.5693 22.6322 26.4632 25.3442 24.6148L23.7988 26.0996C23.7079 26.0996 23.617 26.1602 23.4807 26.1602C22.0262 26.2208 20.708 26.4177 19.1929 26.3571C18.7081 26.342 17.9657 26.039 17.6172 26.039C16.6021 25.1451 15.4355 24.3117 14.784 23.1148C14.7082 22.9633 14.8597 22.7966 15.0264 22.8724C18.4354 24.5693 22.8595 24.5996 26.3442 23.0088C26.5563 22.9179 26.7533 23.1451 26.6321 23.3421C26.4957 23.5542 25.4048 24.3724 23.8291 24.8723H23.814Z" fill="#167BAA"/>
<path d="M25.3292 24.6148C22.6172 26.4632 18.3749 26.5693 15.981 24.2057C15.9204 24.1451 15.981 24.0694 16.0568 24.0997C18.481 25.3421 21.1475 25.7208 23.8141 24.8724C24.6171 24.6148 25.708 24.3572 25.3292 24.6148Z" fill="#0E5168"/>
<path d="M28.1018 34.3414C28.026 34.5233 27.6624 35.0535 27.526 35.1747C25.2988 37.2807 18.1324 37.1898 15.4506 36.0838C14.5416 35.705 13.9961 35.205 13.2234 34.6596C13.2992 34.5233 13.1931 34.3566 13.1628 34.2051C15.2991 35.0232 17.4354 35.8414 19.7687 35.9474C22.708 36.0838 25.42 35.4323 28.1018 34.3414Z" fill="#DCE4E8"/>
<path d="M17.602 26.0244C18.8596 27.2213 21.6171 27.3577 23.1019 26.6759C23.1776 26.6456 23.7685 26.282 23.4503 26.1608C23.5867 26.1608 23.6776 26.085 23.7685 26.1002C24.9048 26.1456 27.329 27.5395 27.8896 28.5849C28.6168 29.9334 28.7987 32.6 28.0866 34.3423C25.3897 35.4332 22.6928 36.0847 19.7535 35.9483C17.4354 35.8423 15.2839 35.0241 13.1476 34.206C13.1476 34.1454 13.1022 34.1151 13.087 34.009C12.4204 30.6909 13.4052 26.4335 17.602 26.0244Z" fill="white"/>
<path d="M17.6021 26.0244C17.9506 26.0244 18.693 26.3274 19.1778 26.3426C20.6929 26.4032 22.0111 26.2062 23.4656 26.1456C23.7686 26.2668 23.1929 26.6305 23.1171 26.6608C21.6323 27.3426 18.7385 27.2668 17.4809 26.085C17.4809 26.085 17.4506 26.0244 17.6173 26.0244H17.6021Z" fill="#DCE4E8"/>
<path d="M39.4348 22.6157C39.3287 22.6157 39.5257 22.8279 39.4045 22.8733C39.2378 22.9339 37.344 20.3885 36.7379 20.3582C36.2834 19.5401 35.8743 18.7068 35.3137 17.9492C35.7531 18.4492 36.45 18.7977 36.8894 19.2068C37.9652 20.1916 38.7227 21.3734 39.4348 22.6157Z" fill="#1D89B9"/>
<path d="M34.541 16.4945C36.2379 17.9944 39.6166 20.7216 40.2075 22.964C40.2681 23.1912 40.465 23.8579 40.1469 23.9033C39.9499 23.4488 39.6772 23.0397 39.4348 22.6155C38.7227 21.3579 37.9651 20.1913 36.8894 19.2065C36.45 18.7974 35.7379 18.4489 35.3137 17.949C35.8591 18.7065 36.2682 19.555 36.7379 20.358C37.1166 21.0398 37.6318 21.8276 37.9651 22.4791C38.3439 23.2518 38.6924 24.1306 38.9499 25.0245C39.0711 25.4336 39.1772 25.8275 39.2529 26.2214C39.1317 26.282 38.9045 26.4032 38.9196 26.2214C38.753 24.9033 35.147 20.4489 34.2379 19.2368C34.1016 19.0398 34.2379 17.949 34.2379 17.8732C34.2379 17.7823 34.6319 17.7217 34.6319 17.4793C34.6319 17.3732 34.1167 16.8884 33.844 16.5399C33.7077 16.3733 33.8895 16.1308 34.0864 16.2369C34.2683 16.3278 34.4349 16.449 34.5713 16.4793L34.541 16.4945Z" fill="white"/>
<path d="M4.78438 20.1007L1.69357 23.1309C1.60267 22.9491 1.79963 22.6157 1.89054 22.4491C2.61779 21.1461 3.76926 19.8734 4.81469 18.8128L6.07222 17.9492C5.61769 18.6462 5.17831 19.3734 4.78438 20.1007Z" fill="#1D89B9"/>
<path d="M36.8894 37.1742C34.8895 36.8712 33.3895 37.6893 31.935 38.9165C31.8289 38.9165 31.8896 38.6286 31.9047 38.5983C31.0714 37.5984 33.6925 36.341 33.7077 36.1895C33.7228 36.1289 33.6471 35.538 33.6471 35.3865C32.6017 35.0532 31.6774 35.6138 30.6472 34.9926C28.8139 33.2958 28.2988 30.4476 29.6472 28.2963C30.5563 26.5541 32.541 25.1906 32.1623 22.9181L32.4198 23.4635C32.435 22.3272 32.2683 21.1607 33.0713 20.2062C32.9804 22.2969 33.2986 24.3422 33.7834 26.3571C34.1925 26.7359 35.1016 26.645 35.2076 27.3267C32.8592 26.9328 30.9199 28.4781 30.0563 30.5537C30.132 30.6143 30.8441 30.8415 30.9653 30.7203C31.6774 30.0386 31.8744 28.8569 32.8895 28.6145C33.8289 28.1297 32.238 29.7204 32.1017 30.0234C31.7683 30.6294 31.6623 31.5233 31.2229 31.9626C31.2229 32.099 31.2229 32.4929 31.2229 32.6292L31.5411 32.0535C32.9198 33.2655 33.9501 31.8869 34.844 30.8567C35.2682 31.0839 35.3894 31.7051 35.3288 32.1444C42.7225 28.766 37.7985 22.1909 34.238 17.8883C34.238 17.7974 34.6319 17.7368 34.6167 17.5095C34.6167 17.4186 34.1319 16.949 33.844 16.6005C33.7077 16.4339 33.9046 16.1763 34.1016 16.2824C34.2683 16.3733 34.4349 16.4793 34.5561 16.5096C35.0107 16.6308 37.9045 17.5701 38.0712 17.4792C38.3287 17.5247 37.7076 16.343 37.7076 16.343C37.1167 15.3734 36.3288 14.5098 35.3288 14.1311C34.9804 14.0099 33.1774 13.7523 32.435 13.7069C34.6167 12.0252 32.4653 10.8587 31.5411 10.1163C29.9199 8.79826 29.5411 9.32851 28.4503 6.94996L26.4503 6.81361C26.3291 5.67736 26.6018 4.96531 27.1321 4.01086C25.8746 3.75331 24.6625 4.25326 23.5868 4.84411C23.1777 4.05631 23.405 3.16246 23.5262 2.32921L20.6323 4.52596L17.9961 2.20801L17.6779 5.10166C16.7991 4.14721 15.4658 3.45031 14.1628 3.98056C14.8295 4.75321 15.0416 5.52586 15.3295 6.49546C15.0113 6.60151 12.7993 5.84401 12.6629 6.01066C12.1478 9.26791 6.9055 11.6313 8.76908 14.1614C8.69332 14.2977 8.43575 14.0402 8.37515 13.9947C5.82978 13.7978 5.29949 14.2826 3.87529 16.3733C3.87529 16.3733 3.40561 16.8884 3.34501 17.2368C3.32986 17.358 3.43591 17.4489 3.55712 17.4186L6.9661 16.5551C4.61769 18.2064 1.29962 20.9637 1.23901 24.024L1.75415 23.115C2.16323 21.7515 4.7692 18.7064 6.1328 17.9337C3.08744 22.7363 -0.563959 28.7811 6.1934 32.2656C6.1934 31.796 6.08734 30.9627 6.67824 30.8415C7.54184 32.0232 8.67817 33.1746 10.0569 31.9323C9.7842 31.1597 9.57208 30.3719 9.14785 29.6447C9.01149 29.4023 7.93577 28.4175 8.69332 28.6448C9.8145 28.9781 10.663 31.19 11.1781 32.1293C11.4811 31.6445 11.4811 31.2506 11.466 30.7052C11.0266 30.387 10.9357 29.5992 10.6327 29.1296C10.0872 28.2812 8.58726 27.357 7.57215 27.2964C7.04186 27.2661 5.4207 27.7661 6.63278 26.8419C6.8449 26.2208 7.43579 26.8116 7.79941 26.2662L8.43575 20.1456C9.57208 23.0999 8.52666 24.7361 11.3296 27.4479C11.6023 27.7055 11.6781 27.9479 11.4508 27.9327C12.4205 29.0993 13.178 31.7808 11.8296 32.8868C11.6781 33.8261 12.5114 34.0382 13.178 34.1745C13.1326 34.0533 13.072 33.7503 13.0417 33.6291C12.4659 30.2507 13.7386 26.3571 17.6173 25.9935C16.6173 25.0997 15.4355 24.2816 14.784 23.0847C14.6931 22.9332 14.8598 22.7514 15.0265 22.8272C18.4354 24.524 22.8444 24.5543 26.314 22.9635C26.5261 22.8726 26.7382 23.0999 26.617 23.2968C26.314 23.8119 25.8291 24.2361 25.3443 24.5694L23.7989 26.0541C24.9352 26.0996 27.3594 27.4934 27.92 28.5387C28.6927 30.2507 28.9048 33.6897 27.5412 35.1441L29.1927 34.0079C29.3896 33.8715 29.4048 33.9473 29.4048 33.9473C28.6927 37.356 29.4351 39.371 31.0411 40.3557C32.5562 41.2799 34.8592 41.2496 37.556 41.0072C37.6469 40.9769 37.8894 40.6284 37.9803 40.5527C37.9045 39.8103 35.9803 38.8559 35.7228 38.5529C36.4803 38.3256 37.0409 38.7498 37.3591 39.0074C37.8288 39.477 38.3287 39.2801 38.4348 39.3861C38.8287 39.4164 39.2833 39.3407 39.5257 38.9922C38.8439 38.3256 37.8742 37.2803 36.9197 37.1288L36.8894 37.1742Z" fill="#2EC9FD"/>
<path d="M39.556 39.0382H39.4954C38.8136 38.3715 37.3137 37.9473 36.3591 37.7958C34.3592 37.4928 33.3895 37.6897 31.935 38.9018C31.829 38.9018 31.8896 38.6139 31.9047 38.5836C31.9805 38.3412 32.6168 37.9473 32.8441 37.8109C34.8289 36.5383 38.6773 36.3867 39.5712 39.0382H39.556Z" fill="#2EC9FD"/>
<path d="M33.7684 26.3574C32.9502 25.615 32.9351 21.4787 32.9351 20.297L33.0714 20.2061C32.9805 22.2969 33.2987 24.3423 33.7835 26.3574H33.7684Z" fill="#A6DCF5"/>
<path d="M31.1926 31.9483C31.2684 31.0696 32.132 29.2363 32.7987 28.6606C32.8441 28.6303 32.8593 28.6 32.8593 28.6C33.0259 28.4788 33.238 28.3878 33.1168 28.6909C33.0259 28.9333 32.2987 29.6605 32.0866 30.0393C31.7532 30.6453 31.632 31.4938 31.1775 31.9332L31.1926 31.9483Z" fill="#A6DCF5"/>
<path d="M8.64778 28.6754C9.35988 29.6905 10.178 30.9177 10.1932 32.2207C10.0568 32.251 10.0417 32.0692 9.99622 31.9632C9.7235 31.1905 9.51139 30.4026 9.08716 29.6754C8.9508 29.4329 7.87508 28.4481 8.63263 28.6754H8.64778Z" fill="white"/>
<path d="M22.8141 13.2683C24.602 14.4198 26.7231 12.3895 25.4959 10.6169C24.1777 8.67754 21.4354 10.1472 22.1475 12.3289C21.6778 12.2835 21.8748 11.2987 21.9354 10.9805C22.0717 10.2987 22.3596 9.76841 22.9505 9.49569C25.2383 8.41997 26.8746 9.93507 26.4352 12.3289C26.3443 12.8138 25.3141 13.6471 24.7989 13.7834C24.1777 13.9349 23.102 13.8895 22.799 13.2683H22.8141Z" fill="white"/>
<path d="M19.2536 12.1017C19.5414 10.7987 18.1475 9.35939 16.8143 9.70786C16.6779 9.73816 15.7082 10.6472 15.6173 10.829C14.7083 12.6926 16.9052 14.3895 18.5263 13.1926C18.9506 13.1168 18.4354 13.4653 18.4203 13.4805C17.2082 14.1471 15.6173 13.7532 14.9658 12.5714C14.7689 12.1926 14.8446 12.1926 14.8143 11.8745C14.6628 10.0109 16.1173 8.70789 17.9354 9.19273C19.1627 9.52605 19.5717 11.0866 19.2384 12.1017H19.2536Z" fill="white"/>
<path d="M19.2536 12.1013C18.4809 14.7527 14.4053 13.4497 15.6174 10.8286C16.5113 8.67716 19.6021 9.85894 19.2536 12.1013Z" fill="#0E5168"/>
<path d="M16.6022 10.2832C17.6325 10.0711 17.8446 11.571 17.0416 11.7377C16.0265 11.9498 15.8295 10.4499 16.6022 10.2832Z" fill="white"/>
<path d="M17.4051 12.1771C17.7839 11.9953 18.0717 12.5862 17.693 12.6922C17.2081 12.8286 17.3142 12.2225 17.4051 12.1771Z" fill="white"/>
<path d="M22.8142 13.2675C22.5717 13.116 22.2536 12.6161 22.1627 12.3282C21.4354 10.1464 24.1778 8.67679 25.511 10.6161C26.7231 12.3888 24.602 14.419 22.8293 13.2675H22.8142Z" fill="#0E5168"/>
<path d="M24.2383 10.2834C25.2686 10.0561 25.511 11.5409 24.6777 11.7379C23.6474 11.9803 23.5111 10.45 24.2383 10.2834Z" fill="white"/>
<path d="M23.5111 12.1766C24.0414 11.8887 24.0868 12.722 23.7232 12.7523C23.5262 12.7675 23.2535 12.313 23.5111 12.1766Z" fill="white"/>
<path fill-rule="evenodd" clip-rule="evenodd" d="M17.7535 8.61668C16.6021 8.49547 15.8445 8.79849 15.3748 9.08636C15.2688 9.14697 15.1476 9.14697 15.0415 9.08636C14.9354 9.01061 14.8748 8.8894 14.9203 8.76819C15.4203 7.52581 16.8293 7.22278 17.9657 8.08639C18.0717 8.16215 18.1172 8.31366 18.0566 8.43487C18.0111 8.55608 17.8899 8.63183 17.7535 8.61668Z" fill="#0E5168"/>
<path fill-rule="evenodd" clip-rule="evenodd" d="M22.9656 8.46531C22.8293 8.48046 22.7081 8.40471 22.6626 8.2835C22.6172 8.16229 22.6626 8.01078 22.7535 7.93503C23.8898 7.07142 25.2989 7.37444 25.7989 8.61682C25.8443 8.73803 25.7989 8.85924 25.6777 8.93499C25.5716 9.01075 25.4504 9.01075 25.3443 8.93499C24.8898 8.64712 24.1171 8.3441 22.9656 8.46531Z" fill="#0E5168"/>
<path d="M12.8901 15.5254C12.7689 17.995 13.2083 20.8282 15.1779 22.51C18.0112 24.919 23.1171 25.1766 26.0261 22.7524C25.6928 23.3736 24.7231 23.9948 24.0716 24.313C22.3595 25.1463 20.5717 25.3281 18.496 24.7372C14.178 23.5251 12.1932 19.8131 12.7235 15.4648C12.7841 15.3739 12.8144 15.5254 12.8901 15.5102V15.5254Z" fill="white"/>
<path d="M27.8442 15.2678C28.6775 15.5102 28.5563 16.1617 28.5866 16.8435L27.6776 20.4192C27.2685 21.2222 26.7231 22.1615 26.011 22.7524C23.102 25.1614 17.9961 24.919 15.1628 22.51C13.1932 20.8282 12.7538 17.995 12.875 15.5254C14.2235 15.0405 20.496 15.3587 22.3444 15.3587C23.3444 15.3587 24.3444 15.3587 25.3292 15.3587C25.6928 15.3587 25.9807 15.283 26.3291 15.283C26.8897 15.283 27.2079 15.1011 27.8291 15.283L27.8442 15.2678Z" fill="#0E5168"/>
<path d="M27.6775 20.434L28.5866 16.8584C28.6623 18.2674 28.2684 19.2523 27.6775 20.434Z" fill="#0E5168"/>
<path d="M19.905 20.7518C21.1929 20.5851 22.4656 21.0397 23.3898 21.9184L23.9655 21.0094C24.1776 21.6457 24.511 21.9639 24.92 22.4639C23.6928 23.5396 21.6323 24.3426 19.9808 24.1608C19.4657 24.1002 16.6476 23.1002 16.5264 22.6305C16.4961 22.5245 17.0415 21.1003 17.1021 21.0548C17.4809 20.7366 17.6475 22.2214 17.89 22.176C18.4202 21.5548 19.0414 20.873 19.8899 20.767L19.905 20.7518Z" fill="white"/>
<path d="M16.2841 15.9345L16.4962 17.1769C16.6932 17.1314 16.7235 16.4345 16.7841 16.389C16.9204 16.2527 19.9203 17.2981 20.5718 17.3435C21.1476 17.389 22.2536 17.2829 22.8142 17.1769C23.6475 17.0102 24.4505 16.0405 24.7232 17.2526C24.9656 17.2829 24.9808 16.2375 24.9353 16.0102C25.405 15.9951 26.0565 15.7072 26.511 15.889C26.1474 16.389 25.3596 18.5405 24.8141 18.6768C23.6929 18.9495 23.7232 17.389 23.3142 17.4344C22.1778 19.4647 18.7082 19.5101 17.9052 17.192C17.5265 17.0254 17.6022 19.2677 16.3295 18.6011C15.875 18.3587 14.6326 15.8133 14.8296 15.6921C15.3144 15.6618 15.7993 15.9042 16.2841 15.9345Z" fill="white"/>
<path d="M24.9352 16.025C24.9806 16.2674 24.9806 17.2977 24.7231 17.2674C24.4503 16.0553 23.6322 17.0249 22.814 17.1916C22.2534 17.2977 21.1474 17.4037 20.5717 17.3583C19.9202 17.3128 16.9354 16.2674 16.7839 16.4037C16.7233 16.4644 16.693 17.1461 16.496 17.1916L16.2839 15.9492C18.8445 16.1765 22.3443 16.1462 24.9352 16.025Z" fill="#CACACA"/>
<path fill-rule="evenodd" clip-rule="evenodd" d="M30.3289 15.6316C30.2077 15.7074 30.0713 15.6922 29.9653 15.6013C29.0865 14.8135 28.2684 14.6014 27.7229 14.5711C27.5866 14.5711 27.4957 14.4801 27.4502 14.3589C27.4048 14.2377 27.4502 14.1014 27.5411 14.0256C28.6926 13.2984 30.0259 13.8893 30.4501 15.2832C30.4956 15.4195 30.4501 15.5559 30.3289 15.6316Z" fill="#0E5168"/>
<path fill-rule="evenodd" clip-rule="evenodd" d="M13.0567 14.4044C12.1325 14.8741 11.6931 15.465 11.481 15.9044C11.4355 16.0104 11.3295 16.071 11.2234 16.0559C11.1173 16.0559 11.0113 15.9801 10.981 15.8741C10.7537 14.6923 11.6779 13.7832 12.9506 13.8893C13.0718 13.8893 13.1779 13.9802 13.193 14.1014C13.2233 14.2226 13.1627 14.3438 13.0415 14.3893L13.0567 14.4044Z" fill="#0E5168"/>
<path d="M7.14777 16.101C5.73873 17.3434 3.55698 18.9039 2.20853 21.0099C2.11763 21.1614 2.31459 21.2978 2.4358 21.1766C4.07211 19.2827 5.70842 18.3736 6.07205 17.9494C5.52661 18.707 5.42055 19.1463 4.96602 19.9645C4.58725 20.6463 4.07211 21.4341 3.73879 22.0856C3.36001 22.8583 3.01154 23.7371 2.75397 24.631C2.63276 25.0401 2.52671 25.434 2.45095 25.8279C4.92057 19.8281 6.84475 17.8282 7.25383 17.3888C6.61749 17.7524 6.73869 17.2979 7.01141 17.0403C7.32958 16.7373 7.6023 16.601 7.87502 16.1616C7.99623 15.9798 7.84472 15.798 7.6326 15.8586C7.40534 15.9192 7.29928 16.0101 7.14777 16.101Z" fill="white"/>
<path fill-rule="evenodd" clip-rule="evenodd" d="M31.4956 33.8118C31.6623 33.8875 31.8592 33.9027 32.041 33.8269C33.1016 33.4481 33.5561 32.7057 33.6016 32.6148C33.7683 32.2815 33.8137 31.9179 33.7076 31.6149C33.6167 31.3421 33.4349 31.13 33.1774 31.024C32.7683 30.8421 32.2986 30.9634 31.9047 31.327L31.8744 31.3573L31.8441 31.4027C31.4047 31.9936 31.1774 32.5391 31.0714 32.8875C30.9805 33.1451 31.0562 33.433 31.2532 33.6451C31.2532 33.6451 31.3895 33.7663 31.4653 33.7966L31.4956 33.8118Z" fill="#0E5168"/>
<path fill-rule="evenodd" clip-rule="evenodd" d="M33.132 32.3261C33.132 32.3261 32.7532 32.9624 31.8593 33.2957C31.7987 33.326 31.723 33.2957 31.6775 33.2503C31.6321 33.2048 31.6018 33.1291 31.6321 33.0685C31.723 32.7654 31.9351 32.2806 32.329 31.7352C32.9351 31.1594 33.435 31.7352 33.132 32.3261Z" fill="white"/>
<path fill-rule="evenodd" clip-rule="evenodd" d="M30.1776 32.1594C30.2836 32.1594 30.3897 32.1139 30.4806 32.023C30.9351 31.5382 30.9806 31.0382 30.9957 30.9776C30.9957 30.7503 30.9351 30.5534 30.7988 30.417C30.6776 30.2958 30.526 30.2352 30.3594 30.2503C30.1018 30.2503 29.8745 30.4473 29.7685 30.7503V30.7806V30.8109C29.6927 31.2352 29.723 31.5836 29.7533 31.7957C29.7685 31.9624 29.8897 32.0988 30.0564 32.1442C30.0564 32.1442 30.1624 32.1745 30.2079 32.1594H30.1776Z" fill="#0E5168"/>
<path fill-rule="evenodd" clip-rule="evenodd" d="M30.6472 30.9476C30.6472 30.9476 30.6169 31.387 30.2381 31.7809C30.2078 31.8112 30.1775 31.8263 30.1321 31.8112C30.1018 31.8112 30.0715 31.7657 30.0563 31.7203C30.026 31.5385 30.0108 31.2203 30.0715 30.8415C30.2381 30.387 30.6623 30.5537 30.6472 30.9476Z" fill="white"/>
<path fill-rule="evenodd" clip-rule="evenodd" d="M11.2083 32.4631C11.1022 32.4631 10.9962 32.4176 10.9053 32.3267C10.4507 31.8419 10.4053 31.3419 10.3901 31.2813C10.3901 31.054 10.4507 30.8571 10.5871 30.7207C10.7083 30.5995 10.8598 30.5389 11.0265 30.554C11.284 30.554 11.5113 30.751 11.6174 31.054V31.0843V31.1146C11.6931 31.5389 11.6628 31.8873 11.6325 32.0995C11.6174 32.2661 11.4962 32.4025 11.3295 32.4479C11.3295 32.4479 11.2234 32.4782 11.178 32.4631H11.2083Z" fill="#0E5168"/>
<path fill-rule="evenodd" clip-rule="evenodd" d="M10.7387 31.2659C10.7387 31.2659 10.769 31.7053 11.1478 32.0993C11.1781 32.1296 11.2084 32.1447 11.2538 32.1296C11.2841 32.1296 11.3144 32.0841 11.3296 32.0386C11.3599 31.8568 11.375 31.5387 11.3144 31.1599C11.1478 30.7054 10.7235 30.872 10.7387 31.2659Z" fill="white"/>
<path fill-rule="evenodd" clip-rule="evenodd" d="M34.9651 34.0539C35.1317 34.1297 35.3287 34.1448 35.5105 34.0691C36.5711 33.6903 37.0256 32.9479 37.0711 32.857C37.2377 32.5237 37.2832 32.1601 37.1771 31.857C37.0862 31.5843 36.9044 31.3722 36.6468 31.2661C36.2378 31.0843 35.7681 31.2055 35.3742 31.5692L35.3439 31.5995L35.3136 31.6449C34.8742 32.2358 34.6469 32.7813 34.5409 33.1297C34.4499 33.3873 34.5257 33.6752 34.7227 33.8873C34.7227 33.8873 34.859 34.0085 34.9348 34.0388L34.9651 34.0539Z" fill="#0E5168"/>
<path fill-rule="evenodd" clip-rule="evenodd" d="M36.6015 32.5839C36.6015 32.5839 36.2227 33.2202 35.3288 33.5535C35.2682 33.5838 35.1925 33.5535 35.147 33.5081C35.1016 33.4626 35.0713 33.3869 35.1016 33.3263C35.1925 33.0233 35.4046 32.5384 35.7985 31.993C36.4045 31.4172 36.9045 31.993 36.6015 32.5839Z" fill="white"/>
<path fill-rule="evenodd" clip-rule="evenodd" d="M10.4053 33.8118C10.2387 33.8875 10.0417 33.9027 9.8599 33.8269C8.79932 33.4481 8.34479 32.7057 8.29934 32.6148C8.13268 32.2815 8.08723 31.9179 8.19328 31.6149C8.28419 31.3421 8.466 31.13 8.72357 31.024C9.13265 30.8421 9.60233 30.9634 9.99626 31.327L10.0266 31.3573L10.0569 31.4027C10.4962 31.9936 10.7235 32.5391 10.8296 32.8875C10.9205 33.1451 10.8447 33.433 10.6478 33.6451C10.6478 33.6451 10.5114 33.7663 10.4356 33.7966L10.4053 33.8118Z" fill="#0E5168"/>
<path fill-rule="evenodd" clip-rule="evenodd" d="M8.78425 32.3261C8.78425 32.3261 9.16303 32.9624 10.0569 33.2957C10.1175 33.326 10.1933 33.2957 10.2387 33.2503C10.2842 33.2048 10.3145 33.1291 10.2842 33.0685C10.1933 32.7654 9.98118 32.2806 9.58725 31.7352C8.98121 31.1594 8.48123 31.7352 8.78425 32.3261Z" fill="white"/>
<path fill-rule="evenodd" clip-rule="evenodd" d="M6.93585 34.0539C6.76919 34.1297 6.57223 34.1448 6.39041 34.0691C5.32984 33.6903 4.87531 32.9479 4.82986 32.857C4.6632 32.5237 4.61774 32.1601 4.7238 31.857C4.81471 31.5843 4.99652 31.3722 5.25409 31.2661C5.66316 31.0843 6.13285 31.2055 6.52677 31.5692L6.55708 31.5995L6.58738 31.6449C7.02676 32.2358 7.25402 32.7813 7.36008 33.1297C7.45099 33.3873 7.37523 33.6752 7.17827 33.8873C7.17827 33.8873 7.04191 34.0085 6.96615 34.0388L6.93585 34.0539Z" fill="#0E5168"/>
<path fill-rule="evenodd" clip-rule="evenodd" d="M5.31452 32.5839C5.31452 32.5839 5.6933 33.2202 6.58721 33.5535C6.64781 33.5838 6.72357 33.5535 6.76902 33.5081C6.81448 33.4626 6.84478 33.3869 6.81447 33.3263C6.72357 33.0233 6.51145 32.5384 6.11753 31.993C5.51149 31.4172 5.0115 31.993 5.31452 32.5839Z" fill="white"/>
<path fill-rule="evenodd" clip-rule="evenodd" d="M2.95104 40.5222C2.95104 40.5222 3.48133 39.7495 4.01161 39.8404C4.5419 39.9313 5.52672 40.8859 5.11764 41.9313C4.70856 42.9767 2.57227 42.5525 2.57227 42.5525V41.1434L2.95104 40.5222Z" fill="#0E5168"/>
<path fill-rule="evenodd" clip-rule="evenodd" d="M3.29952 40.7494C3.19347 40.8555 2.89045 41.2645 2.69348 41.6282C2.64803 41.6888 2.66318 41.7797 2.69348 41.8403C2.73893 41.9009 2.81469 41.9463 2.89044 41.9312C3.43588 41.8706 4.43585 41.613 4.61766 41.5221C4.61766 41.5221 4.64796 41.5221 4.66312 41.5069C4.72372 41.4766 4.76917 41.416 4.78432 41.3403C4.84493 40.6888 4.4813 40.3706 3.86011 40.3555C3.81466 40.3555 3.78436 40.3555 3.7389 40.3858C3.648 40.4464 3.48134 40.5676 3.29952 40.7494Z" fill="white"/>
<path fill-rule="evenodd" clip-rule="evenodd" d="M2.98135 41.174C2.87529 41.3103 2.78439 41.477 2.69348 41.6285C2.64803 41.6891 2.66318 41.78 2.69348 41.8406C2.73893 41.9012 2.81469 41.9467 2.89044 41.9315C3.43588 41.8709 4.43585 41.6134 4.61766 41.5225C4.61766 41.5225 4.64796 41.5225 4.66312 41.5073C4.72372 41.477 4.76917 41.4164 4.78432 41.3406C4.82978 40.9164 4.69342 40.6437 4.4207 40.4922C4.01162 40.7195 3.40558 41.0225 2.98135 41.1891V41.174Z" fill="#E2E2E2"/>
<path fill-rule="evenodd" clip-rule="evenodd" d="M1.17834 39.5525C1.17834 39.5525 1.70862 38.7798 2.23891 38.8707C2.76919 38.9616 3.72371 39.4768 3.31463 40.507C3.13282 40.9616 2.69344 41.3555 2.19346 41.507C1.54196 41.704 0.799561 41.5676 0.799561 41.5676V40.1586L1.17834 39.5374V39.5525Z" fill="#0E5168"/>
<path fill-rule="evenodd" clip-rule="evenodd" d="M1.52682 39.7806C1.42076 39.8867 1.11774 40.2958 0.920777 40.6594C0.875324 40.72 0.890475 40.8109 0.920777 40.8715C0.96623 40.9321 1.04198 40.9776 1.11774 40.9624C1.66318 40.9018 2.66315 40.6443 2.84496 40.5533C2.84496 40.5533 2.87526 40.5533 2.89041 40.5382C2.95101 40.5079 2.99647 40.4473 3.01162 40.3715C3.07222 39.72 2.7086 39.4019 2.08741 39.3867C2.04195 39.3867 2.01165 39.3867 1.9662 39.417C1.87529 39.4776 1.70863 39.5988 1.52682 39.7806Z" fill="white"/>
<path fill-rule="evenodd" clip-rule="evenodd" d="M1.19351 40.2043C1.08745 40.3406 0.996546 40.5073 0.90564 40.6588C0.860187 40.7194 0.875338 40.8103 0.90564 40.8709C0.951093 40.9315 1.02685 40.977 1.1026 40.9618C1.64804 40.9012 2.64801 40.6436 2.82982 40.5527C2.82982 40.5527 2.86012 40.5527 2.87527 40.5376C2.93588 40.5073 2.98133 40.4467 2.99648 40.3709C3.04194 39.9467 2.90558 39.674 2.63286 39.5225C2.22378 39.7497 1.61774 40.0527 1.19351 40.2194V40.2043Z" fill="#E2E2E2"/>
<path fill-rule="evenodd" clip-rule="evenodd" d="M38.2074 40.1437C38.2074 40.1437 37.9347 39.2498 37.3892 39.1741C36.8438 39.0983 35.6317 39.7346 35.7226 40.8407C35.8135 41.9467 37.9801 42.174 37.9801 42.174L38.3892 40.8407L38.2074 40.1437Z" fill="#0E5168"/>
<path fill-rule="evenodd" clip-rule="evenodd" d="M37.8136 40.2653C37.6924 40.0228 37.5712 39.8713 37.5106 39.7956C37.4803 39.7653 37.45 39.735 37.4045 39.735C36.8136 39.5683 36.3742 39.7501 36.2379 40.4016C36.2227 40.4774 36.2379 40.5531 36.2985 40.5986C36.2985 40.5986 36.3136 40.6137 36.3288 40.6289C36.4652 40.7652 37.3591 41.2955 37.859 41.5228C37.9348 41.5531 38.0106 41.5379 38.0712 41.4925C38.1318 41.447 38.1621 41.3713 38.1469 41.2955C38.056 40.8865 37.8894 40.4168 37.8287 40.2804L37.8136 40.2653Z" fill="white"/>
<path fill-rule="evenodd" clip-rule="evenodd" d="M37.9954 40.7652C38.056 40.9318 38.1015 41.1136 38.1318 41.2803C38.1469 41.3561 38.1318 41.4318 38.056 41.4773C37.9954 41.5227 37.9197 41.5379 37.8439 41.5076C37.3439 41.2803 36.45 40.75 36.3137 40.6137C36.3137 40.6137 36.2985 40.5985 36.2834 40.5834C36.2228 40.5379 36.2076 40.4622 36.2227 40.3864C36.3137 39.9773 36.5258 39.7501 36.8136 39.6895C37.147 40.0228 37.6166 40.4925 37.9954 40.7803V40.7652Z" fill="#E2E2E2"/>
<path fill-rule="evenodd" clip-rule="evenodd" d="M40.1923 39.75C40.1923 39.75 39.9196 38.8561 39.3742 38.7804C38.8287 38.7046 37.7833 38.9167 37.8742 40.0379C37.9197 40.5227 38.2075 41.0379 38.6469 41.3257C39.2227 41.7045 40.162 41.6439 40.162 41.6439L40.3741 40.447L40.1923 39.75Z" fill="#0E5168"/>
<path fill-rule="evenodd" clip-rule="evenodd" d="M39.7833 39.8707C39.6621 39.6283 39.5409 39.4768 39.4803 39.401C39.45 39.3707 39.4197 39.3404 39.3742 39.3404C38.7834 39.1738 38.344 39.3556 38.2076 40.0071C38.1925 40.0828 38.2076 40.1586 38.2682 40.2041C38.2682 40.2041 38.2834 40.2192 38.2985 40.2344C38.4349 40.3707 39.3288 40.901 39.8288 41.1283C39.9045 41.1586 39.9803 41.1434 40.0409 41.098C40.1015 41.0525 40.1318 40.9768 40.1166 40.901C40.0257 40.4919 39.8591 40.0222 39.7985 39.8859L39.7833 39.8707Z" fill="white"/>
<path fill-rule="evenodd" clip-rule="evenodd" d="M39.9803 40.3706C40.0409 40.5373 40.0863 40.7191 40.1166 40.8858C40.1318 40.9615 40.1166 41.0373 40.0409 41.0827C39.9803 41.1282 39.9045 41.1433 39.8288 41.113C39.3288 40.8858 38.4349 40.3555 38.2985 40.2191C38.2985 40.2191 38.2834 40.204 38.2682 40.1888C38.2076 40.1434 38.1925 40.0676 38.2076 39.9919C38.2985 39.5828 38.5106 39.3555 38.7985 39.2949C39.1318 39.6282 39.6015 40.0979 39.9803 40.3858V40.3706Z" fill="#E2E2E2"/>
<path d="M38.1166 37.3868C38.1166 37.3868 38.0408 37.3413 37.9954 37.3262C38.0408 37.3413 38.0711 37.3716 38.1166 37.3868Z" fill="#A6DCF5"/>
<path d="M36.9802 37.0073C37.2984 37.2043 38.465 37.7649 39.0862 38.78C39.1771 38.78 39.3286 38.78 39.465 38.8103C39.2074 38.0225 38.2226 37.1588 36.9802 36.9922V37.0073Z" fill="#A6DCF5"/>
<path d="M47.8396 16.47V13.82H54.6896V16.47H52.7896V26.35H58.9796V29H47.8396V26.35H49.6696V16.47H47.8396ZM60.9696 23.2V29H57.8496V23.2H60.9696ZM70.914 29C70.474 29 70.134 28.87 69.894 28.61C69.6606 28.3433 69.544 27.97 69.544 27.49V25.12L69.754 24.72L69.634 23.52L69.544 22.85V21.98C69.544 21.6 69.464 21.2867 69.304 21.04C69.144 20.7867 68.9106 20.6 68.604 20.48C68.304 20.36 67.9406 20.3 67.514 20.3C66.914 20.3 66.424 20.4233 66.044 20.67C65.6706 20.91 65.4273 21.2933 65.314 21.82L62.514 21.39C62.634 20.61 62.8973 19.9467 63.304 19.4C63.7106 18.8533 64.2806 18.4367 65.014 18.15C65.7473 17.8633 66.664 17.72 67.764 17.72C68.7973 17.72 69.6706 17.8567 70.384 18.13C71.104 18.3967 71.6506 18.8167 72.024 19.39C72.3973 19.9633 72.584 20.7033 72.584 21.61V26.49H73.904V29H70.914ZM65.684 29.2C64.5306 29.2 63.6573 28.9333 63.064 28.4C62.4706 27.8667 62.174 27.1133 62.174 26.14C62.174 25.1933 62.4706 24.4733 63.064 23.98C63.6573 23.48 64.5873 23.1167 65.854 22.89L70.104 22.09V23.57L66.734 24.29C66.254 24.3833 65.904 24.5433 65.684 24.77C65.464 24.99 65.354 25.2833 65.354 25.65C65.354 26.0433 65.4773 26.3433 65.724 26.55C65.9773 26.7567 66.3373 26.86 66.804 26.86C67.3373 26.86 67.8173 26.7267 68.244 26.46C68.6773 26.1933 69.0173 25.8133 69.264 25.32C69.5106 24.82 69.634 24.22 69.634 23.52L70.134 25.87H69.454C69.3073 26.9833 68.9106 27.8167 68.264 28.37C67.6173 28.9233 66.7573 29.2 65.684 29.2ZM83.4122 20.48H81.7822V17.98H86.4522V26.5H88.0622V29H83.4122V20.48ZM79.1822 17.98V24.72C79.1822 25.34 79.3289 25.8333 79.6222 26.2C79.9156 26.5667 80.3456 26.75 80.9122 26.75C81.3722 26.75 81.7922 26.6233 82.1722 26.37C82.5522 26.1167 82.8522 25.7433 83.0722 25.25C83.2989 24.75 83.4122 24.1333 83.4122 23.4L83.9422 25.77H83.3022C83.1422 26.9367 82.7389 27.8133 82.0922 28.4C81.4522 28.98 80.6122 29.27 79.5722 29.27C78.4256 29.27 77.5656 28.94 76.9922 28.28C76.4256 27.62 76.1422 26.7033 76.1422 25.53V20.49H74.6422V17.98H79.1822ZM94.051 26.5H95.461V29H89.291V26.5H91.011V20.48H89.291V17.98H94.051V26.5ZM98.361 26.5V22.27C98.361 21.6433 98.211 21.1467 97.911 20.78C97.6177 20.4067 97.181 20.22 96.601 20.22C96.1077 20.22 95.6677 20.3567 95.281 20.63C94.901 20.8967 94.601 21.2833 94.381 21.79C94.161 22.29 94.051 22.8867 94.051 23.58L93.521 21.27H94.161C94.2677 20.49 94.4877 19.84 94.821 19.32C95.161 18.8 95.5943 18.41 96.121 18.15C96.6543 17.8833 97.2643 17.75 97.951 17.75C99.0643 17.75 99.9177 18.0767 100.511 18.73C101.104 19.3767 101.401 20.3067 101.401 21.52V26.5H102.991V29H96.951V26.5H98.361ZM110.127 29.23C108.894 29.23 107.827 28.99 106.927 28.51C106.027 28.0233 105.33 27.3533 104.837 26.5C104.35 25.64 104.107 24.6433 104.107 23.51C104.107 22.6633 104.237 21.8867 104.497 21.18C104.764 20.4733 105.134 19.8667 105.607 19.36C106.087 18.8467 106.644 18.45 107.277 18.17C107.91 17.89 108.597 17.75 109.337 17.75C110.01 17.75 110.567 17.8667 111.007 18.1C111.447 18.3267 111.784 18.6567 112.017 19.09C112.25 19.5233 112.394 20.05 112.447 20.67H113.097L112.557 22.55C112.497 22.0967 112.357 21.7033 112.137 21.37C111.924 21.03 111.637 20.7667 111.277 20.58C110.924 20.3933 110.514 20.3 110.047 20.3C109.48 20.3 108.984 20.4333 108.557 20.7C108.137 20.9667 107.81 21.3367 107.577 21.81C107.344 22.2833 107.227 22.8367 107.227 23.47C107.227 24.0767 107.344 24.6133 107.577 25.08C107.817 25.54 108.154 25.9 108.587 26.16C109.027 26.4133 109.55 26.54 110.157 26.54C110.79 26.54 111.324 26.4033 111.757 26.13C112.197 25.8567 112.497 25.4867 112.657 25.02L115.607 26.01C115.274 27.01 114.624 27.7967 113.657 28.37C112.69 28.9433 111.514 29.23 110.127 29.23ZM112.557 22.55V17.98H115.597V22.55H112.557ZM121.652 26.5H123.072V29H116.952V26.5H118.612V15.7H116.952V13.2H121.652V26.5ZM125.962 26.5V22.24C125.962 21.62 125.819 21.13 125.532 20.77C125.252 20.4033 124.832 20.22 124.272 20.22C123.792 20.22 123.352 20.3567 122.952 20.63C122.559 20.9033 122.242 21.31 122.002 21.85C121.769 22.3833 121.652 23.0433 121.652 23.83L121.132 21.46H121.762C121.875 20.6267 122.099 19.9333 122.432 19.38C122.765 18.82 123.199 18.4033 123.732 18.13C124.272 17.85 124.902 17.71 125.622 17.71C126.749 17.71 127.592 18.0367 128.152 18.69C128.719 19.3433 129.002 20.26 129.002 21.44V26.5H130.592V29H124.562V26.5H125.962ZM131.493 33.2V30.7H133.163V20.48H131.493V17.98H136.203V21.87L136.143 23.18V23.74L136.203 25.26V30.7H137.783V33.2H131.493ZM139.783 29.23C138.983 29.23 138.243 29.0567 137.563 28.71C136.89 28.3567 136.303 27.8267 135.803 27.12C135.303 26.4133 134.92 25.53 134.653 24.47L136.143 23.51C136.143 24.1167 136.25 24.65 136.463 25.11C136.683 25.57 137.003 25.93 137.423 26.19C137.843 26.45 138.35 26.58 138.943 26.58C139.53 26.58 140.03 26.45 140.443 26.19C140.863 25.93 141.183 25.57 141.403 25.11C141.63 24.6433 141.743 24.1033 141.743 23.49C141.743 22.8767 141.627 22.3367 141.393 21.87C141.167 21.4033 140.84 21.04 140.413 20.78C139.993 20.52 139.503 20.39 138.943 20.39C138.357 20.39 137.853 20.52 137.433 20.78C137.02 21.04 136.7 21.4067 136.473 21.88C136.253 22.3467 136.143 22.89 136.143 23.51L135.843 21.06H136.303C136.437 20.36 136.653 19.7633 136.953 19.27C137.26 18.7767 137.657 18.4 138.143 18.14C138.637 17.88 139.23 17.75 139.923 17.75C140.677 17.75 141.357 17.9 141.963 18.2C142.577 18.4933 143.1 18.9033 143.533 19.43C143.967 19.9567 144.3 20.5667 144.533 21.26C144.767 21.9533 144.883 22.6967 144.883 23.49C144.883 24.6567 144.67 25.67 144.243 26.53C143.823 27.39 143.23 28.0567 142.463 28.53C141.703 28.9967 140.81 29.23 139.783 29.23ZM155.308 29C154.868 29 154.528 28.87 154.288 28.61C154.055 28.3433 153.938 27.97 153.938 27.49V25.12L154.148 24.72L154.028 23.52L153.938 22.85V21.98C153.938 21.6 153.858 21.2867 153.698 21.04C153.538 20.7867 153.305 20.6 152.998 20.48C152.698 20.36 152.335 20.3 151.908 20.3C151.308 20.3 150.818 20.4233 150.438 20.67C150.065 20.91 149.822 21.2933 149.708 21.82L146.908 21.39C147.028 20.61 147.292 19.9467 147.698 19.4C148.105 18.8533 148.675 18.4367 149.408 18.15C150.142 17.8633 151.058 17.72 152.158 17.72C153.192 17.72 154.065 17.8567 154.778 18.13C155.498 18.3967 156.045 18.8167 156.418 19.39C156.792 19.9633 156.978 20.7033 156.978 21.61V26.49H158.298V29H155.308ZM150.078 29.2C148.925 29.2 148.052 28.9333 147.458 28.4C146.865 27.8667 146.568 27.1133 146.568 26.14C146.568 25.1933 146.865 24.4733 147.458 23.98C148.052 23.48 148.982 23.1167 150.248 22.89L154.498 22.09V23.57L151.128 24.29C150.648 24.3833 150.298 24.5433 150.078 24.77C149.858 24.99 149.748 25.2833 149.748 25.65C149.748 26.0433 149.872 26.3433 150.118 26.55C150.372 26.7567 150.732 26.86 151.198 26.86C151.732 26.86 152.212 26.7267 152.638 26.46C153.072 26.1933 153.412 25.8133 153.658 25.32C153.905 24.82 154.028 24.22 154.028 23.52L154.528 25.87H153.848C153.702 26.9833 153.305 27.8167 152.658 28.37C152.012 28.9233 151.152 29.2 150.078 29.2ZM168.275 29V24.89L168.335 24.11V22.65L168.275 20.87V15.7H166.105V13.2H171.315V26.5H172.935V29H168.275ZM164.685 17.75C165.492 17.75 166.232 17.9267 166.905 18.28C167.585 18.6267 168.172 19.1533 168.665 19.86C169.165 20.56 169.552 21.44 169.825 22.5L168.335 23.46C168.335 22.8533 168.225 22.32 168.005 21.86C167.785 21.4 167.465 21.04 167.045 20.78C166.625 20.52 166.122 20.39 165.535 20.39C164.949 20.39 164.445 20.52 164.025 20.78C163.605 21.04 163.282 21.4033 163.055 21.87C162.835 22.3367 162.725 22.8767 162.725 23.49C162.725 24.1033 162.842 24.6433 163.075 25.11C163.309 25.57 163.635 25.93 164.055 26.19C164.475 26.45 164.969 26.58 165.535 26.58C166.115 26.58 166.615 26.45 167.035 26.19C167.455 25.93 167.775 25.5667 167.995 25.1C168.222 24.6333 168.335 24.0867 168.335 23.46L168.635 25.91H168.165C168.032 26.6167 167.815 27.2167 167.515 27.71C167.215 28.1967 166.819 28.5733 166.325 28.84C165.832 29.1 165.242 29.23 164.555 29.23C163.795 29.23 163.109 29.08 162.495 28.78C161.889 28.48 161.369 28.0667 160.935 27.54C160.502 27.0133 160.169 26.4033 159.935 25.71C159.709 25.0167 159.595 24.2767 159.595 23.49C159.595 22.3233 159.805 21.31 160.225 20.45C160.652 19.59 161.245 18.9267 162.005 18.46C162.772 17.9867 163.665 17.75 164.685 17.75Z" fill="#2EC9FD"/>
</svg>
