<svg width="32" height="32" viewBox="0 0 32 32" fill="none" xmlns="http://www.w3.org/2000/svg">
<rect width="32" height="32" rx="8" fill="black"/>
<path d="M12.3155 6.69118C10.2173 7.41907 8.40781 8.80064 7.15281 10.6329C5.89781 12.4653 5.26347 14.6517 5.34296 16.8712C5.42245 19.0907 6.21158 21.2262 7.59445 22.964C8.97731 24.7018 10.881 25.9504 13.0259 26.5263C14.7649 26.975 16.5868 26.9947 18.335 26.5838C19.9187 26.228 21.3829 25.4671 22.5842 24.3755C23.8345 23.2046 24.742 21.7152 25.2092 20.0672C25.717 18.2751 25.8074 16.3904 25.4734 14.558H15.7084V18.6087H21.3636C21.2506 19.2547 21.0084 19.8714 20.6515 20.4216C20.2946 20.9719 19.8304 21.4445 19.2866 21.8112C18.596 22.268 17.8175 22.5753 17.0012 22.7135C16.1824 22.8658 15.3426 22.8658 14.5238 22.7135C13.694 22.542 12.909 22.1994 12.2187 21.7078C11.1099 20.9229 10.2774 19.8079 9.83984 18.5217C9.39493 17.2115 9.39493 15.7911 9.83984 14.4809C10.1513 13.5625 10.6661 12.7263 11.3459 12.0347C12.1239 11.2287 13.1088 10.6526 14.1927 10.3696C15.2765 10.0865 16.4174 10.1075 17.4901 10.4302C18.3281 10.6874 19.0944 11.1368 19.7279 11.7427C20.3655 11.1083 21.0021 10.4723 21.6376 9.83462C21.9657 9.49173 22.3234 9.16524 22.6466 8.81415C21.6795 7.91423 20.5444 7.21398 19.3062 6.75352C17.0515 5.93484 14.5845 5.91283 12.3155 6.69118Z" fill="white"/>
<path d="M12.3156 6.691C14.5843 5.91213 17.0514 5.93355 19.3063 6.7517C20.5446 7.21529 21.6792 7.91891 22.6449 8.82217C22.3168 9.17327 21.9706 9.50139 21.6359 9.84264C20.9994 10.4781 20.3634 11.1114 19.7279 11.7425C19.0944 11.1367 18.3281 10.6872 17.4901 10.43C16.4177 10.1062 15.2769 10.084 14.1928 10.3659C13.1087 10.6478 12.1231 11.2228 11.3443 12.028C10.6645 12.7195 10.1496 13.5557 9.83821 14.4741L6.43719 11.8409C7.65455 9.42684 9.76233 7.58026 12.3156 6.691Z" fill="#E33629"/>
<path d="M5.53485 14.4494C5.71765 13.5435 6.02114 12.6661 6.4372 11.8408L9.83821 14.4806C9.3933 15.7908 9.3933 17.2112 9.83821 18.5214C8.70509 19.3964 7.57142 20.2758 6.4372 21.1596C5.39565 19.0863 5.07799 16.7241 5.53485 14.4494Z" fill="#F8BD00"/>
<path d="M15.7084 14.5557H25.4734C25.8074 16.3881 25.717 18.2728 25.2092 20.0649C24.742 21.7129 23.8345 23.2023 22.5842 24.3732C21.4867 23.5168 20.3842 22.6669 19.2866 21.8105C19.8307 21.4435 20.2952 20.9703 20.6521 20.4195C21.009 19.8686 21.251 19.2514 21.3636 18.6047H15.7084C15.7067 17.2561 15.7084 15.9059 15.7084 14.5557Z" fill="#587DBD"/>
<path d="M6.43555 21.1596C7.56977 20.2846 8.70344 19.4052 9.83656 18.5215C10.275 19.8081 11.1087 20.9232 12.2188 21.7076C12.9111 22.1969 13.6978 22.5366 14.5288 22.7051C15.3475 22.8573 16.1873 22.8573 17.0061 22.7051C17.8225 22.5669 18.6009 22.2595 19.2915 21.8027C20.3891 22.6591 21.4916 23.509 22.5891 24.3654C21.388 25.4576 19.9238 26.2191 18.3399 26.5753C16.5917 26.9863 14.7698 26.9666 13.0309 26.5179C11.6555 26.1507 10.3709 25.5033 9.25742 24.6164C8.0789 23.6807 7.11633 22.5016 6.43555 21.1596Z" fill="#319F43"/>
<rect x="16.15" y="18.15" width="13.7" height="13.7" rx="6.85" fill="black"/>
<rect x="16.15" y="18.15" width="13.7" height="13.7" rx="6.85" stroke="#8C8C8C" stroke-width="0.3"/>
<path d="M19.9468 28C20.9676 28 21.7348 27.0673 22.1924 26.3301C22.1378 26.4841 22.1085 26.6475 22.106 26.8126C22.106 27.2431 22.3412 27.5498 22.8052 27.5498C23.4424 27.5498 24.1228 26.9627 24.4756 26.3301C24.4518 26.4123 24.4393 26.498 24.4384 26.5842C24.4384 26.8844 24.5992 27.0738 24.9272 27.0738C25.9604 27.0738 27 25.1488 27 23.4662C27 22.1546 26.3688 21 24.7848 21C22.0008 21 19 24.5753 19 26.8844C19 27.7913 19.464 28 19.9468 28ZM23.826 23.3222C23.826 22.9963 23.9992 22.7679 24.2528 22.7679C24.5004 22.7679 24.6736 22.9963 24.6736 23.3222C24.6736 23.6486 24.5004 23.8836 24.2528 23.8836C23.9992 23.8836 23.826 23.6486 23.826 23.3222ZM25.15 23.3222C25.15 22.9963 25.3232 22.7679 25.5768 22.7679C25.8248 22.7679 25.9976 22.9963 25.9976 23.3222C25.9976 23.6486 25.8244 23.8836 25.5768 23.8836C25.3232 23.8836 25.15 23.6486 25.15 23.3222Z" fill="#9987EE"/>
</svg>
