<svg width="10" height="12" viewBox="0 0 10 12" fill="none" xmlns="http://www.w3.org/2000/svg">
<path d="M4.80005 0C3.15005 0 1.80005 1.35 1.80005 3V4.2H3.00005V3C3.00005 2.01 3.81005 1.2 4.80005 1.2C5.79005 1.2 6.60005 2.01 6.60005 3V4.2H7.80005V3C7.80005 1.35 6.45005 0 4.80005 0Z" fill="#716D6D"/>
<path d="M8.4 12H1.2C0.54 12 0 11.46 0 10.8V5.39995C0 4.73995 0.54 4.19995 1.2 4.19995H8.4C9.06 4.19995 9.6 4.73995 9.6 5.39995V10.8C9.6 11.46 9.06 12 8.4 12Z" fill="#FB8C00"/>
<path d="M4.7999 8.99995C5.29696 8.99995 5.6999 8.59701 5.6999 8.09995C5.6999 7.60289 5.29696 7.19995 4.7999 7.19995C4.30285 7.19995 3.8999 7.60289 3.8999 8.09995C3.8999 8.59701 4.30285 8.99995 4.7999 8.99995Z" fill="#C76E00"/>
</svg>
