<svg width="16" height="16" viewBox="0 0 16 16" fill="none" xmlns="http://www.w3.org/2000/svg">
<g id="Coin" clip-path="url(#clip0_394_7901)">
<g id="Solana Coin">
<path id="Coin_2" d="M14.9064 9.71605C13.9575 13.5232 10.1014 15.8481 6.28721 14.8986C2.48 13.9468 0.158929 10.0907 1.10782 6.28352C2.05672 2.47632 5.91045 0.15151 9.71533 1.10098C13.5318 2.03882 15.8529 5.90652 14.9064 9.71605Z" fill="#000008"/>
<path id="Solana" d="M12.3988 10.196L10.9314 11.7291C10.8995 11.7624 10.8609 11.789 10.818 11.8071C10.7751 11.8253 10.7289 11.8346 10.6821 11.8346H3.72602C3.69282 11.8346 3.66036 11.8252 3.6326 11.8074C3.60485 11.7897 3.58301 11.7645 3.56978 11.7348C3.55655 11.7052 3.5525 11.6724 3.55813 11.6405C3.56376 11.6086 3.57882 11.5791 3.60147 11.5554L5.06995 10.0223C5.10177 9.98913 5.14024 9.96263 5.18298 9.94449C5.22574 9.92634 5.27185 9.91694 5.31849 9.91686H12.2742C12.3074 9.91686 12.3399 9.92631 12.3676 9.94404C12.3954 9.96177 12.4172 9.98702 12.4305 10.0167C12.4437 10.0463 12.4477 10.0791 12.4421 10.111C12.4365 10.1428 12.4214 10.1724 12.3988 10.196ZM10.9314 7.10883C10.8995 7.07552 10.8609 7.04897 10.818 7.03083C10.7751 7.01269 10.7289 7.00333 10.6821 7.00336H3.72602C3.69282 7.00336 3.66036 7.0128 3.6326 7.03053C3.60485 7.04827 3.58301 7.07351 3.56978 7.10316C3.55655 7.13282 3.5525 7.16559 3.55813 7.19746C3.56376 7.22932 3.57882 7.25889 3.60147 7.28254L5.06995 8.81563C5.10177 8.84885 5.14024 8.87534 5.18298 8.89349C5.22574 8.91163 5.27185 8.92103 5.31849 8.9211H12.2742C12.3074 8.9211 12.3399 8.91166 12.3676 8.89393C12.3954 8.87619 12.4172 8.85095 12.4305 8.8213C12.4437 8.79164 12.4477 8.75887 12.4421 8.727C12.4365 8.69514 12.4214 8.66557 12.3988 8.64192L10.9314 7.10883ZM3.72602 6.0076H10.6821C10.7289 6.00762 10.7751 5.99827 10.818 5.98012C10.8609 5.96198 10.8995 5.93542 10.9314 5.90212L12.3988 4.36902C12.4214 4.34538 12.4365 4.31581 12.4421 4.28395C12.4477 4.25208 12.4437 4.21931 12.4305 4.18965C12.4172 4.16 12.3954 4.13475 12.3676 4.11702C12.3399 4.09929 12.3074 4.08984 12.2742 4.08984H5.31849C5.27185 4.08992 5.22574 4.09932 5.18298 4.11747C5.14024 4.13561 5.10177 4.16211 5.06995 4.19532L3.60184 5.72842C3.57922 5.75203 3.56417 5.78158 3.55853 5.8134C3.55288 5.84523 3.5569 5.87798 3.57008 5.90762C3.58327 5.93726 3.60504 5.9625 3.63274 5.98026C3.66044 5.99802 3.69286 6.00752 3.72602 6.0076Z" fill="url(#paint0_linear_394_7901)"/>
</g>
</g>
<defs>
<linearGradient id="paint0_linear_394_7901" x1="4.30599" y1="12.0192" x2="11.3879" y2="3.82439" gradientUnits="userSpaceOnUse">
<stop offset="0.08" stop-color="#9945FF"/>
<stop offset="0.3" stop-color="#8752F3"/>
<stop offset="0.5" stop-color="#5497D5"/>
<stop offset="0.6" stop-color="#43B4CA"/>
<stop offset="0.72" stop-color="#28E0B9"/>
<stop offset="0.97" stop-color="#19FB9B"/>
</linearGradient>
<clipPath id="clip0_394_7901">
<rect width="16" height="16" fill="white"/>
</clipPath>
</defs>
</svg>
