<svg width="20" height="20" viewBox="0 0 20 20" fill="none" xmlns="http://www.w3.org/2000/svg">
<g clip-path="url(#clip0_174_630)">
<path d="M19.9982 6.94059V5.5586C19.9982 5.24982 19.7473 5 19.4385 5H18.0565C17.7478 5 17.498 5.24982 17.498 5.5586V6.94059C17.498 7.24935 17.7478 7.49918 18.0565 7.49918H19.4385C19.7473 7.49918 19.9982 7.24843 19.9982 6.94059Z" fill="white"/>
<path d="M17.4982 1.94059V0.558596C17.4982 0.249824 17.2474 0 16.9387 0H15.5567C15.2479 0 14.998 0.249824 14.998 0.558596V1.94059C14.998 2.24935 15.2488 2.49918 15.5567 2.49918H16.9387C17.2474 2.49918 17.4982 2.24841 17.4982 1.94059Z" fill="white"/>
<path d="M15.5359 5.7521V4.37011C15.5359 4.06135 15.2851 3.81152 14.9772 3.81152H13.5952C13.2865 3.81152 13.0366 4.06135 13.0366 4.37011V5.7521C13.0366 6.06087 13.2865 6.3107 13.5952 6.3107H14.9772C15.286 6.3107 15.5359 6.06087 15.5359 5.7521Z" fill="white"/>
<path d="M14.9979 10.0014H13.0564C12.7476 10.0014 12.4978 9.75153 12.4978 9.44277V8.06078C12.4978 7.752 12.2479 7.50218 11.9392 7.50218H10.5572C10.2484 7.50218 9.99859 7.25235 9.99859 6.94358V3.06054C9.99859 2.75178 9.74876 2.50195 9.43999 2.50195H5.55695C5.24818 2.50195 4.99836 2.75178 4.99836 3.06054V4.44159C4.99836 4.75037 4.74854 5.00019 4.43976 5.00019H3.05778C2.749 5.00019 2.49918 5.25002 2.49918 5.55879V6.93984C2.49918 7.24862 2.24935 7.49843 1.94059 7.49843H0.558595C0.249824 7.49843 0 7.74825 0 8.05703V14.4411C0 14.7499 0.25076 15.0007 0.559531 15.0007H1.94151C2.25029 15.0007 2.50011 15.2504 2.50011 15.5592V16.9412C2.50011 17.2501 2.75087 17.4998 3.05871 17.4998H4.4407C4.74946 17.4998 4.99929 17.7497 4.99929 18.0584V19.4404C4.99929 19.7492 5.25005 19.9999 5.55883 19.9999H11.9429C12.2517 19.9999 12.5015 19.7501 12.5015 19.4413V18.0584C12.5015 17.7497 12.7514 17.4998 13.0601 17.4998H14.4421C14.7509 17.4998 15.0006 17.2491 15.0006 16.9412V15.5583C15.0006 15.2496 15.2505 14.9997 15.5592 14.9997H16.9422C17.251 14.9997 17.5018 14.7489 17.5018 14.4402V10.5571C17.5018 10.2484 17.2519 9.99855 16.9431 9.99855H15.0006L14.9979 10.0014ZM13.0564 15.0034C12.7476 15.0034 12.4978 15.2533 12.4978 15.5629V16.9441C12.4978 17.2528 12.2479 17.5027 11.9392 17.5027H5.55601C5.24725 17.5027 4.99743 17.2528 4.99743 16.9441V15.5621C4.99743 15.2533 4.74666 15.0034 4.43883 15.0034H3.05684C2.74806 15.0034 2.49824 14.7537 2.49824 14.4448V8.06078C2.49824 7.752 2.74806 7.50218 3.05684 7.50218H4.43883C4.7476 7.50218 4.99743 7.25235 4.99743 6.94358V5.56159C4.99743 5.25282 5.24725 5.00299 5.55601 5.00299H6.938C7.24678 5.00299 7.4966 5.25282 7.4966 5.56159V6.94358C7.4966 7.25235 7.74642 7.50218 8.0552 7.50218H9.43719C9.74595 7.50218 9.99578 7.75294 9.99578 8.06078V9.44277C9.99578 9.75153 10.2465 10.0014 10.5544 10.0014H11.9364C12.2451 10.0014 12.4959 10.2521 12.4959 10.5609V11.9429C12.4959 12.2516 12.7466 12.5014 13.0545 12.5014H14.4365C14.7452 12.5014 14.996 12.7522 14.996 13.0609V14.4439C14.996 14.7527 14.7461 15.0026 14.4374 15.0026L13.0545 15.0044L13.0564 15.0034Z" fill="white"/>
</g>
<defs>
<clipPath id="clip0_174_630">
<rect width="20" height="20" fill="white"/>
</clipPath>
</defs>
</svg>
