<svg width="17" height="20" viewBox="0 0 17 20" fill="none" xmlns="http://www.w3.org/2000/svg">
<path d="M13.5 6H6.5V4C6.5 3.46957 6.71071 2.96086 7.08579 2.58579C7.46086 2.21071 7.96957 2 8.5 2C9.03043 2 9.53914 2.21071 9.91421 2.58579C10.2893 2.96086 10.5 3.46957 10.5 4C10.5 4.26522 10.6054 4.51957 10.7929 4.70711C10.9804 4.89464 11.2348 5 11.5 5C11.7652 5 12.0196 4.89464 12.2071 4.70711C12.3946 4.51957 12.5 4.26522 12.5 4C12.5 2.93913 12.0786 1.92172 11.3284 1.17157C10.5783 0.421427 9.56087 0 8.5 0C7.43913 0 6.42172 0.421427 5.67157 1.17157C4.92143 1.92172 4.5 2.93913 4.5 4V6H3.5C2.70435 6 1.94129 6.31607 1.37868 6.87868C0.816071 7.44129 0.5 8.20435 0.5 9V17C0.5 17.7956 0.816071 18.5587 1.37868 19.1213C1.94129 19.6839 2.70435 20 3.5 20H13.5C14.2956 20 15.0587 19.6839 15.6213 19.1213C16.1839 18.5587 16.5 17.7956 16.5 17V9C16.5 8.20435 16.1839 7.44129 15.6213 6.87868C15.0587 6.31607 14.2956 6 13.5 6ZM8.5 16C7.90666 16 7.32664 15.8241 6.83329 15.4944C6.33994 15.1648 5.95542 14.6962 5.72836 14.1481C5.5013 13.5999 5.44189 12.9967 5.55764 12.4147C5.6734 11.8328 5.95912 11.2982 6.37868 10.8787C6.79824 10.4591 7.33279 10.1734 7.91473 10.0576C8.49667 9.94189 9.09987 10.0013 9.64805 10.2284C10.1962 10.4554 10.6648 10.8399 10.9944 11.3333C11.3241 11.8266 11.5 12.4067 11.5 13C11.5 13.7956 11.1839 14.5587 10.6213 15.1213C10.0587 15.6839 9.29565 16 8.5 16Z" fill="white"/>
</svg>
