<svg width="113" height="36" viewBox="0 0 113 36" fill="none" xmlns="http://www.w3.org/2000/svg">
<g id="logo">
<circle id="Ellipse 369" cx="15.1581" cy="19.9139" r="6.54478" fill="white"/>
<g id="Union">
<mask id="path-2-outside-1_229_137" maskUnits="userSpaceOnUse" x="0.700195" y="0" width="112" height="36" fill="black">
<rect fill="white" x="0.700195" width="112" height="36"/>
<path fill-rule="evenodd" clip-rule="evenodd" d="M7.97893 7.47025C8.90119 4.23287 11.859 2 15.2252 2C18.5914 2 21.5492 4.23287 22.4714 7.47026L27.7502 26H2.7002L7.97893 7.47025ZM15.248 20.0761C12.7902 20.0761 10.6647 19.1286 9.21493 17.6731C9.62289 16.7925 10.2554 16.0189 11.0473 15.4116C11.1929 15.3 11.1667 15.0607 11.0071 14.9704C10.1438 14.4823 9.56113 13.5559 9.56113 12.4935C9.56113 10.9231 10.8342 9.65 12.4046 9.65H18.0916C19.662 9.65 20.935 10.9231 20.935 12.4935C20.935 13.5342 20.376 14.4443 19.5418 14.9399C19.3857 15.0326 19.3636 15.2685 19.5086 15.3777C20.2996 15.9736 20.9352 16.734 21.3517 17.6013C19.9008 19.0973 17.7461 20.0761 15.248 20.0761ZM15.248 21.7348C17.8051 21.7348 20.1314 20.8433 21.8661 19.3859C21.8887 19.5878 21.9003 19.7927 21.9003 20C21.9003 23.3137 18.9453 26 15.3003 26C11.6552 26 8.70026 23.3137 8.70026 20C8.70026 19.8199 8.70899 19.6417 8.72608 19.4656C10.4502 20.8757 12.738 21.7348 15.248 21.7348ZM14.8204 15.21C15.0822 15.6633 15.0187 16.1899 14.6787 16.3862C14.3387 16.5825 13.8509 16.3742 13.5892 15.9208C13.3274 15.4675 13.3909 14.9409 13.7309 14.7446C14.0709 14.5483 14.5587 14.7566 14.8204 15.21ZM15.9588 15.21C15.6971 15.6633 15.7605 16.1899 16.1005 16.3862C16.4405 16.5825 16.9283 16.3742 17.1901 15.9208C17.4518 15.4675 17.3883 14.9409 17.0483 14.7446C16.7083 14.5483 16.2205 14.7566 15.9588 15.21ZM12.4829 11.0718C11.6545 11.0718 10.9829 11.7434 10.9829 12.5718V12.6767C10.9829 13.4916 11.6435 14.1522 12.4584 14.1522C12.8767 14.1522 13.2753 13.9747 13.5551 13.6638L13.735 13.464C14.0194 13.1479 14.4247 12.9674 14.8499 12.9674H15.2482H15.6464C16.0717 12.9674 16.4769 13.1479 16.7614 13.464L16.9412 13.6638C17.221 13.9747 17.6196 14.1522 18.0379 14.1522C18.8528 14.1522 19.5134 13.4916 19.5134 12.6767V12.5718C19.5134 11.7434 18.8418 11.0718 18.0134 11.0718H12.4829ZM78.9808 26.474C77.2278 26.474 75.6016 26.1742 74.1023 25.5745C72.603 24.9517 71.2883 24.0982 70.158 23.0141C69.0509 21.907 68.1859 20.6153 67.5631 19.139C66.9634 17.6397 66.6635 16.0251 66.6635 14.2952C66.6635 12.5652 66.9634 10.9621 67.5631 9.4859C68.1859 7.98661 69.0509 6.69491 70.158 5.61081C71.2883 4.50364 72.603 3.6502 74.1023 3.05048C75.6016 2.4277 77.2278 2.11631 78.9808 2.11631C80.7569 2.11631 82.383 2.4277 83.8592 3.05048C85.3585 3.6502 86.6618 4.50364 87.7689 5.61081C88.8992 6.69491 89.7641 7.98661 90.3638 9.4859C90.9866 10.9621 91.298 12.5652 91.298 14.2952C91.298 16.0251 90.9866 17.6397 90.3638 19.139C89.7641 20.6153 88.8992 21.907 87.7689 23.0141C86.6618 24.0982 85.3585 24.9517 83.8592 25.5745C82.383 26.1742 80.7569 26.474 78.9808 26.474ZM78.9808 20.4192C79.7881 20.4192 80.5377 20.2693 81.2297 19.9694C81.9448 19.6465 82.556 19.2082 83.0635 18.6546C83.594 18.1011 83.9976 17.4552 84.2744 16.7171C84.5743 15.9559 84.7242 15.1486 84.7242 14.2952C84.7242 13.4187 84.5743 12.6114 84.2744 11.8732C83.9976 11.1351 83.594 10.4893 83.0635 9.93569C82.556 9.38211 81.9448 8.95538 81.2297 8.65553C80.5377 8.3326 79.7881 8.17114 78.9808 8.17114C78.1735 8.17114 77.4123 8.3326 76.6972 8.65553C76.0053 8.95538 75.394 9.38211 74.8635 9.93569C74.356 10.4893 73.9524 11.1351 73.6525 11.8732C73.3757 12.6114 73.2373 13.4187 73.2373 14.2952C73.2373 15.1486 73.3757 15.9559 73.6525 16.7171C73.9524 17.4552 74.356 18.1011 74.8635 18.6546C75.394 19.2082 76.0053 19.6465 76.6972 19.9694C77.4123 20.2693 78.1735 20.4192 78.9808 20.4192ZM101.728 14.1914C100.967 14.1914 100.356 14.3759 99.8945 14.7449C99.4332 15.114 99.0987 15.5984 98.8911 16.1981C98.6835 16.7978 98.5797 17.4667 98.5797 18.2048V25.955H92.3519V17.4437C92.3519 15.7368 92.6863 14.1798 93.3553 12.7728C94.0242 11.3658 95.0506 10.2471 96.4346 9.41669C97.8185 8.56325 99.5831 8.13652 101.728 8.13652C103.873 8.13652 105.638 8.56325 107.022 9.41669C108.406 10.2471 109.432 11.3658 110.101 12.7728C110.77 14.1798 111.105 15.7368 111.105 17.4437V25.955H104.877V18.2048C104.877 17.4667 104.773 16.7978 104.565 16.1981C104.358 15.5984 104.023 15.114 103.562 14.7449C103.101 14.3759 102.489 14.1914 101.728 14.1914ZM52.6571 25.2976C54.1333 26.0588 55.7941 26.4394 57.6394 26.4394C59.5769 26.4394 61.2607 25.9896 62.6908 25.09C64.1209 24.1674 65.205 22.8988 65.9431 21.2842L61.1685 18.8968C60.8686 19.5657 60.3957 20.1078 59.7499 20.523C59.1271 20.9382 58.4005 21.1458 57.5702 21.1458C56.809 21.1458 56.1516 20.9958 55.598 20.696C55.0444 20.373 54.6062 19.9233 54.2832 19.3466C54.1333 19.0468 54.0209 18.7238 53.9459 18.3778H65.9777V16.8209C65.9777 15.2755 65.6317 13.8338 64.9397 12.496C64.2708 11.1351 63.279 10.0395 61.9642 9.20909C60.6495 8.37871 59.0464 7.96353 57.155 7.96353C55.3328 7.96353 53.7297 8.37871 52.3457 9.20909C50.9617 10.0395 49.8776 11.1466 49.0934 12.5306C48.3322 13.9146 47.9516 15.4369 47.9516 17.0977C47.9516 18.9891 48.3668 20.6383 49.1972 22.0453C50.0506 23.4293 51.2039 24.5134 52.6571 25.2976ZM59.7845 15.1601H54.2141C54.3524 14.8141 54.5485 14.5027 54.8022 14.226C55.056 13.9492 55.3789 13.73 55.771 13.5686C56.1631 13.384 56.6014 13.2918 57.0858 13.2918C57.5702 13.2918 57.9969 13.384 58.3659 13.5686C58.735 13.73 59.0348 13.9607 59.2655 14.2606C59.5192 14.5373 59.6922 14.8372 59.7845 15.1601ZM34.8081 33.9128H28.5802V17.2707C28.5802 15.4946 28.9839 13.9261 29.7912 12.5652C30.6216 11.1812 31.7518 10.0971 33.1819 9.31289C34.612 8.52865 36.2497 8.13652 38.095 8.13652C39.8941 8.13652 41.5087 8.55171 42.9388 9.38209C44.392 10.2125 45.5338 11.3196 46.3641 12.7036C47.1945 14.0645 47.6097 15.5869 47.6097 17.2707C47.6097 19.116 47.2291 20.7306 46.4679 22.1145C45.7068 23.4985 44.6342 24.5711 43.2502 25.3322C41.8893 26.0934 40.2862 26.474 38.441 26.474C37.3338 26.474 36.2728 26.2318 35.2579 25.7474C35.1035 25.6684 34.9535 25.5861 34.8081 25.5004V33.9128ZM38.095 20.6268C38.7639 20.6268 39.3405 20.4768 39.8249 20.177C40.3093 19.8771 40.6899 19.4735 40.9667 18.966C41.2435 18.4586 41.3819 17.905 41.3819 17.3053C41.3819 16.6825 41.2435 16.1289 40.9667 15.6445C40.6899 15.1371 40.3093 14.7334 39.8249 14.4335C39.3405 14.1337 38.7639 13.9838 38.095 13.9838C37.4491 13.9838 36.8725 14.1337 36.365 14.4335C35.8806 14.7334 35.5 15.1371 35.2233 15.6445C34.9465 16.1289 34.8081 16.6825 34.8081 17.3053C34.8081 17.905 34.9465 18.4586 35.2233 18.966C35.5 19.4735 35.8806 19.8771 36.365 20.177C36.8725 20.4768 37.4491 20.6268 38.095 20.6268Z"/>
</mask>
<path fill-rule="evenodd" clip-rule="evenodd" d="M7.97893 7.47025C8.90119 4.23287 11.859 2 15.2252 2C18.5914 2 21.5492 4.23287 22.4714 7.47026L27.7502 26H2.7002L7.97893 7.47025ZM15.248 20.0761C12.7902 20.0761 10.6647 19.1286 9.21493 17.6731C9.62289 16.7925 10.2554 16.0189 11.0473 15.4116C11.1929 15.3 11.1667 15.0607 11.0071 14.9704C10.1438 14.4823 9.56113 13.5559 9.56113 12.4935C9.56113 10.9231 10.8342 9.65 12.4046 9.65H18.0916C19.662 9.65 20.935 10.9231 20.935 12.4935C20.935 13.5342 20.376 14.4443 19.5418 14.9399C19.3857 15.0326 19.3636 15.2685 19.5086 15.3777C20.2996 15.9736 20.9352 16.734 21.3517 17.6013C19.9008 19.0973 17.7461 20.0761 15.248 20.0761ZM15.248 21.7348C17.8051 21.7348 20.1314 20.8433 21.8661 19.3859C21.8887 19.5878 21.9003 19.7927 21.9003 20C21.9003 23.3137 18.9453 26 15.3003 26C11.6552 26 8.70026 23.3137 8.70026 20C8.70026 19.8199 8.70899 19.6417 8.72608 19.4656C10.4502 20.8757 12.738 21.7348 15.248 21.7348ZM14.8204 15.21C15.0822 15.6633 15.0187 16.1899 14.6787 16.3862C14.3387 16.5825 13.8509 16.3742 13.5892 15.9208C13.3274 15.4675 13.3909 14.9409 13.7309 14.7446C14.0709 14.5483 14.5587 14.7566 14.8204 15.21ZM15.9588 15.21C15.6971 15.6633 15.7605 16.1899 16.1005 16.3862C16.4405 16.5825 16.9283 16.3742 17.1901 15.9208C17.4518 15.4675 17.3883 14.9409 17.0483 14.7446C16.7083 14.5483 16.2205 14.7566 15.9588 15.21ZM12.4829 11.0718C11.6545 11.0718 10.9829 11.7434 10.9829 12.5718V12.6767C10.9829 13.4916 11.6435 14.1522 12.4584 14.1522C12.8767 14.1522 13.2753 13.9747 13.5551 13.6638L13.735 13.464C14.0194 13.1479 14.4247 12.9674 14.8499 12.9674H15.2482H15.6464C16.0717 12.9674 16.4769 13.1479 16.7614 13.464L16.9412 13.6638C17.221 13.9747 17.6196 14.1522 18.0379 14.1522C18.8528 14.1522 19.5134 13.4916 19.5134 12.6767V12.5718C19.5134 11.7434 18.8418 11.0718 18.0134 11.0718H12.4829ZM78.9808 26.474C77.2278 26.474 75.6016 26.1742 74.1023 25.5745C72.603 24.9517 71.2883 24.0982 70.158 23.0141C69.0509 21.907 68.1859 20.6153 67.5631 19.139C66.9634 17.6397 66.6635 16.0251 66.6635 14.2952C66.6635 12.5652 66.9634 10.9621 67.5631 9.4859C68.1859 7.98661 69.0509 6.69491 70.158 5.61081C71.2883 4.50364 72.603 3.6502 74.1023 3.05048C75.6016 2.4277 77.2278 2.11631 78.9808 2.11631C80.7569 2.11631 82.383 2.4277 83.8592 3.05048C85.3585 3.6502 86.6618 4.50364 87.7689 5.61081C88.8992 6.69491 89.7641 7.98661 90.3638 9.4859C90.9866 10.9621 91.298 12.5652 91.298 14.2952C91.298 16.0251 90.9866 17.6397 90.3638 19.139C89.7641 20.6153 88.8992 21.907 87.7689 23.0141C86.6618 24.0982 85.3585 24.9517 83.8592 25.5745C82.383 26.1742 80.7569 26.474 78.9808 26.474ZM78.9808 20.4192C79.7881 20.4192 80.5377 20.2693 81.2297 19.9694C81.9448 19.6465 82.556 19.2082 83.0635 18.6546C83.594 18.1011 83.9976 17.4552 84.2744 16.7171C84.5743 15.9559 84.7242 15.1486 84.7242 14.2952C84.7242 13.4187 84.5743 12.6114 84.2744 11.8732C83.9976 11.1351 83.594 10.4893 83.0635 9.93569C82.556 9.38211 81.9448 8.95538 81.2297 8.65553C80.5377 8.3326 79.7881 8.17114 78.9808 8.17114C78.1735 8.17114 77.4123 8.3326 76.6972 8.65553C76.0053 8.95538 75.394 9.38211 74.8635 9.93569C74.356 10.4893 73.9524 11.1351 73.6525 11.8732C73.3757 12.6114 73.2373 13.4187 73.2373 14.2952C73.2373 15.1486 73.3757 15.9559 73.6525 16.7171C73.9524 17.4552 74.356 18.1011 74.8635 18.6546C75.394 19.2082 76.0053 19.6465 76.6972 19.9694C77.4123 20.2693 78.1735 20.4192 78.9808 20.4192ZM101.728 14.1914C100.967 14.1914 100.356 14.3759 99.8945 14.7449C99.4332 15.114 99.0987 15.5984 98.8911 16.1981C98.6835 16.7978 98.5797 17.4667 98.5797 18.2048V25.955H92.3519V17.4437C92.3519 15.7368 92.6863 14.1798 93.3553 12.7728C94.0242 11.3658 95.0506 10.2471 96.4346 9.41669C97.8185 8.56325 99.5831 8.13652 101.728 8.13652C103.873 8.13652 105.638 8.56325 107.022 9.41669C108.406 10.2471 109.432 11.3658 110.101 12.7728C110.77 14.1798 111.105 15.7368 111.105 17.4437V25.955H104.877V18.2048C104.877 17.4667 104.773 16.7978 104.565 16.1981C104.358 15.5984 104.023 15.114 103.562 14.7449C103.101 14.3759 102.489 14.1914 101.728 14.1914ZM52.6571 25.2976C54.1333 26.0588 55.7941 26.4394 57.6394 26.4394C59.5769 26.4394 61.2607 25.9896 62.6908 25.09C64.1209 24.1674 65.205 22.8988 65.9431 21.2842L61.1685 18.8968C60.8686 19.5657 60.3957 20.1078 59.7499 20.523C59.1271 20.9382 58.4005 21.1458 57.5702 21.1458C56.809 21.1458 56.1516 20.9958 55.598 20.696C55.0444 20.373 54.6062 19.9233 54.2832 19.3466C54.1333 19.0468 54.0209 18.7238 53.9459 18.3778H65.9777V16.8209C65.9777 15.2755 65.6317 13.8338 64.9397 12.496C64.2708 11.1351 63.279 10.0395 61.9642 9.20909C60.6495 8.37871 59.0464 7.96353 57.155 7.96353C55.3328 7.96353 53.7297 8.37871 52.3457 9.20909C50.9617 10.0395 49.8776 11.1466 49.0934 12.5306C48.3322 13.9146 47.9516 15.4369 47.9516 17.0977C47.9516 18.9891 48.3668 20.6383 49.1972 22.0453C50.0506 23.4293 51.2039 24.5134 52.6571 25.2976ZM59.7845 15.1601H54.2141C54.3524 14.8141 54.5485 14.5027 54.8022 14.226C55.056 13.9492 55.3789 13.73 55.771 13.5686C56.1631 13.384 56.6014 13.2918 57.0858 13.2918C57.5702 13.2918 57.9969 13.384 58.3659 13.5686C58.735 13.73 59.0348 13.9607 59.2655 14.2606C59.5192 14.5373 59.6922 14.8372 59.7845 15.1601ZM34.8081 33.9128H28.5802V17.2707C28.5802 15.4946 28.9839 13.9261 29.7912 12.5652C30.6216 11.1812 31.7518 10.0971 33.1819 9.31289C34.612 8.52865 36.2497 8.13652 38.095 8.13652C39.8941 8.13652 41.5087 8.55171 42.9388 9.38209C44.392 10.2125 45.5338 11.3196 46.3641 12.7036C47.1945 14.0645 47.6097 15.5869 47.6097 17.2707C47.6097 19.116 47.2291 20.7306 46.4679 22.1145C45.7068 23.4985 44.6342 24.5711 43.2502 25.3322C41.8893 26.0934 40.2862 26.474 38.441 26.474C37.3338 26.474 36.2728 26.2318 35.2579 25.7474C35.1035 25.6684 34.9535 25.5861 34.8081 25.5004V33.9128ZM38.095 20.6268C38.7639 20.6268 39.3405 20.4768 39.8249 20.177C40.3093 19.8771 40.6899 19.4735 40.9667 18.966C41.2435 18.4586 41.3819 17.905 41.3819 17.3053C41.3819 16.6825 41.2435 16.1289 40.9667 15.6445C40.6899 15.1371 40.3093 14.7334 39.8249 14.4335C39.3405 14.1337 38.7639 13.9838 38.095 13.9838C37.4491 13.9838 36.8725 14.1337 36.365 14.4335C35.8806 14.7334 35.5 15.1371 35.2233 15.6445C34.9465 16.1289 34.8081 16.6825 34.8081 17.3053C34.8081 17.905 34.9465 18.4586 35.2233 18.966C35.5 19.4735 35.8806 19.8771 36.365 20.177C36.8725 20.4768 37.4491 20.6268 38.095 20.6268Z" fill="#121212"/>
<path d="M7.97893 7.47025L9.42153 7.88122V7.88122L7.97893 7.47025ZM22.4714 7.47026L23.9141 7.05929V7.05929L22.4714 7.47026ZM27.7502 26V27.5H29.7372L29.1928 25.589L27.7502 26ZM2.7002 26L1.25759 25.589L0.713197 27.5H2.7002V26ZM9.21493 17.6731L7.85387 17.0426L7.4145 17.9911L8.1522 18.7317L9.21493 17.6731ZM11.0473 15.4116L11.9601 16.6019L11.9601 16.6019L11.0473 15.4116ZM11.0071 14.9704L10.2688 16.2761L10.2688 16.2761L11.0071 14.9704ZM19.5418 14.9399L18.7757 13.6503L18.7757 13.6503L19.5418 14.9399ZM19.5086 15.3777L18.6061 16.5758L18.6061 16.5758L19.5086 15.3777ZM21.3517 17.6013L22.4285 18.6457L23.1567 17.8948L22.7039 16.9519L21.3517 17.6013ZM21.8661 19.3859L23.3568 19.2193L23.0456 16.436L20.9013 18.2374L21.8661 19.3859ZM8.72608 19.4656L9.67572 18.3045L7.50418 16.5285L7.2331 19.3207L8.72608 19.4656ZM14.6787 16.3862L15.4287 17.6853L15.4287 17.6853L14.6787 16.3862ZM14.8204 15.21L13.5214 15.96L13.5214 15.96L14.8204 15.21ZM13.5892 15.9208L12.2901 16.6708L12.2901 16.6708L13.5892 15.9208ZM13.7309 14.7446L14.4809 16.0436L14.4809 16.0436L13.7309 14.7446ZM16.1005 16.3862L15.3505 17.6853L15.3505 17.6853L16.1005 16.3862ZM15.9588 15.21L17.2578 15.96L17.2578 15.96L15.9588 15.21ZM17.1901 15.9208L18.4891 16.6708L18.4891 16.6708L17.1901 15.9208ZM17.0483 14.7446L17.7983 13.4455H17.7983L17.0483 14.7446ZM13.5551 13.6638L14.6701 14.6672L13.5551 13.6638ZM13.735 13.464L12.62 12.4605L12.62 12.4605L13.735 13.464ZM16.7614 13.464L17.8763 12.4605L17.8763 12.4605L16.7614 13.464ZM16.9412 13.6638L15.8262 14.6672L15.8262 14.6672L16.9412 13.6638ZM74.1023 25.5745L73.5269 26.9597L73.536 26.9635L73.5452 26.9672L74.1023 25.5745ZM70.158 23.0141L69.0974 24.0748L69.1084 24.0858L69.1197 24.0966L70.158 23.0141ZM67.5631 19.139L66.1704 19.6961L66.1756 19.7092L66.181 19.7221L67.5631 19.139ZM67.5631 9.4859L66.1778 8.91047L66.1734 8.92134L67.5631 9.4859ZM70.158 5.61081L71.2075 6.68258L71.2077 6.68235L70.158 5.61081ZM74.1023 3.05048L74.6594 4.4432L74.6686 4.43952L74.6777 4.43573L74.1023 3.05048ZM83.8592 3.05048L83.2762 4.43253L83.2891 4.43798L83.3021 4.4432L83.8592 3.05048ZM87.7689 5.61081L86.7083 6.67147L86.7193 6.68252L86.7306 6.69333L87.7689 5.61081ZM90.3638 9.4859L88.9711 10.043L88.9763 10.056L88.9818 10.069L90.3638 9.4859ZM90.3638 19.139L88.9786 18.5636L88.9741 18.5745L90.3638 19.139ZM87.7689 23.0141L88.8184 24.0859L88.8186 24.0857L87.7689 23.0141ZM83.8592 25.5745L84.4238 26.9642L84.4346 26.9597L83.8592 25.5745ZM81.2297 19.9694L81.8261 21.3457L81.8366 21.3412L81.8471 21.3365L81.2297 19.9694ZM83.0635 18.6546L81.9805 17.6168L81.969 17.6288L81.9577 17.6411L83.0635 18.6546ZM84.2744 16.7171L82.8788 16.1673L82.8743 16.1788L82.8699 16.1904L84.2744 16.7171ZM84.2744 11.8732L82.8699 12.3999L82.8771 12.419L82.8847 12.4378L84.2744 11.8732ZM83.0635 9.93569L81.9577 10.9493L81.969 10.9615L81.9805 10.9735L83.0635 9.93569ZM81.2297 8.65553L80.5954 10.0148L80.6223 10.0273L80.6496 10.0388L81.2297 8.65553ZM76.6972 8.65553L77.2936 10.0319L77.3042 10.0273L77.3146 10.0226L76.6972 8.65553ZM74.8635 9.93569L73.7805 8.89783L73.769 8.90984L73.7578 8.9221L74.8635 9.93569ZM73.6525 11.8732L72.2628 11.3087L72.2552 11.3275L72.248 11.3465L73.6525 11.8732ZM73.6525 16.7171L72.2428 17.2297L72.2523 17.2559L72.2628 17.2817L73.6525 16.7171ZM74.8635 18.6546L73.7578 19.6682L73.769 19.6805L73.7805 19.6925L74.8635 18.6546ZM76.6972 19.9694L76.0629 21.3287L76.0898 21.3412L76.1171 21.3527L76.6972 19.9694ZM99.8945 14.7449L100.832 15.9162V15.9162L99.8945 14.7449ZM98.5797 25.955V27.455H100.08V25.955H98.5797ZM92.3519 25.955H90.8519V27.455H92.3519V25.955ZM93.3553 12.7728L92.0006 12.1288L92.0005 12.1288L93.3553 12.7728ZM96.4346 9.41669L97.2063 10.7029L97.2141 10.6982L97.2219 10.6934L96.4346 9.41669ZM107.022 9.41669L106.235 10.6934L106.242 10.6982L106.25 10.7029L107.022 9.41669ZM110.101 12.7728L108.746 13.4168L110.101 12.7728ZM111.105 25.955V27.455H112.605V25.955H111.105ZM104.877 25.955H103.377V27.455H104.877V25.955ZM103.562 14.7449L102.625 15.9162V15.9162L103.562 14.7449ZM52.6571 25.2976L51.9447 26.6177L51.9571 26.6244L51.9697 26.6308L52.6571 25.2976ZM62.6908 25.09L63.4895 26.3597L63.4968 26.3552L63.504 26.3505L62.6908 25.09ZM65.9431 21.2842L67.3073 21.9078L67.9096 20.5903L66.6139 19.9425L65.9431 21.2842ZM61.1685 18.8968L61.8393 17.5552L60.4397 16.8554L59.7997 18.2832L61.1685 18.8968ZM59.7499 20.523L58.9388 19.2612L58.9282 19.268L58.9178 19.2749L59.7499 20.523ZM55.598 20.696L54.8422 21.9916L54.8627 22.0036L54.8836 22.0149L55.598 20.696ZM54.2832 19.3466L52.9416 20.0174L52.9573 20.0489L52.9745 20.0795L54.2832 19.3466ZM53.9459 18.3778V16.8778H52.0861L52.4799 18.6955L53.9459 18.3778ZM65.9777 18.3778V19.8778H67.4777V18.3778H65.9777ZM64.9397 12.496L63.5936 13.1577L63.6004 13.1715L63.6074 13.1851L64.9397 12.496ZM61.9642 9.20909L62.7652 7.94086L62.7652 7.94086L61.9642 9.20909ZM49.0934 12.5306L47.7884 11.7911L47.7837 11.7994L47.7791 11.8077L49.0934 12.5306ZM49.1972 22.0453L47.9054 22.8077L47.9128 22.8203L47.9204 22.8327L49.1972 22.0453ZM54.2141 15.1601L52.8213 14.603L51.9985 16.6601H54.2141V15.1601ZM59.7845 15.1601V16.6601H61.7731L61.2268 14.748L59.7845 15.1601ZM54.8022 14.226L55.908 15.2395L55.908 15.2395L54.8022 14.226ZM55.771 13.5686L56.3421 14.9556L56.3763 14.9415L56.4097 14.9258L55.771 13.5686ZM58.3659 13.5686L57.6951 14.9102L57.7295 14.9274L57.7647 14.9428L58.3659 13.5686ZM59.2655 14.2606L58.0766 15.1751L58.116 15.2264L58.1598 15.2741L59.2655 14.2606ZM28.5802 33.9128H27.0802V35.4128H28.5802V33.9128ZM34.8081 33.9128V35.4128H36.3081V33.9128H34.8081ZM29.7912 12.5652L28.505 11.7934L28.5011 11.7999L29.7912 12.5652ZM33.1819 9.31289L33.9032 10.6281H33.9032L33.1819 9.31289ZM42.9388 9.38209L42.1856 10.6793L42.1946 10.6845L42.9388 9.38209ZM46.3641 12.7036L45.0779 13.4754L45.0837 13.4849L46.3641 12.7036ZM46.4679 22.1145L45.1536 21.3917V21.3917L46.4679 22.1145ZM43.2502 25.3322L42.5273 24.0179L42.518 24.0231L43.2502 25.3322ZM35.2579 25.7474L34.5746 27.0828L34.5931 27.0922L34.6118 27.1012L35.2579 25.7474ZM34.8081 25.5004L35.5695 24.208L33.3081 22.8756V25.5004H34.8081ZM39.8249 20.177L39.0354 18.9016L39.0354 18.9016L39.8249 20.177ZM40.9667 18.966L42.2835 19.6843L42.2835 19.6843L40.9667 18.966ZM40.9667 15.6445L39.6498 16.3628L39.657 16.3758L39.6643 16.3887L40.9667 15.6445ZM36.365 14.4335L35.6019 13.1422L35.5886 13.15L35.5755 13.1582L36.365 14.4335ZM35.2233 15.6445L36.5256 16.3887L36.533 16.3758L36.5401 16.3628L35.2233 15.6445ZM35.2233 18.966L33.9064 19.6843L33.9064 19.6843L35.2233 18.966ZM36.365 20.177L35.5755 21.4524L35.5886 21.4605L35.6019 21.4684L36.365 20.177ZM15.2252 0.5C11.1888 0.5 7.64219 3.17739 6.53633 7.05929L9.42153 7.88122C10.1602 5.28834 12.5291 3.5 15.2252 3.5V0.5ZM23.9141 7.05929C22.8082 3.17739 19.2615 0.5 15.2252 0.5V3.5C17.9212 3.5 20.2902 5.28834 21.0288 7.88122L23.9141 7.05929ZM29.1928 25.589L23.9141 7.05929L21.0288 7.88122L26.3076 26.411L29.1928 25.589ZM2.7002 27.5H27.7502V24.5H2.7002V27.5ZM6.53633 7.05929L1.25759 25.589L4.1428 26.411L9.42153 7.88122L6.53633 7.05929ZM8.1522 18.7317C9.88953 20.4759 12.4001 21.5761 15.248 21.5761V18.5761C13.1803 18.5761 11.4398 17.7813 10.2777 16.6146L8.1522 18.7317ZM10.1346 14.2213C9.16157 14.9674 8.36967 15.9292 7.85387 17.0426L10.576 18.3036C10.8761 17.6558 11.3493 17.0703 11.9601 16.6019L10.1346 14.2213ZM10.2688 16.2761C9.87263 16.0521 9.682 15.6695 9.64874 15.3287C9.61489 14.982 9.73352 14.5288 10.1346 14.2213L11.9601 16.6019C13.0371 15.7761 12.7532 14.2345 11.7454 13.6647L10.2688 16.2761ZM8.06113 12.4935C8.06113 14.1183 8.95403 15.5327 10.2688 16.2761L11.7454 13.6647C11.3336 13.4318 11.0611 12.9935 11.0611 12.4935H8.06113ZM12.4046 8.15C10.0058 8.15 8.06113 10.0946 8.06113 12.4935H11.0611C11.0611 11.7515 11.6626 11.15 12.4046 11.15V8.15ZM18.0916 8.15H12.4046V11.15H18.0916V8.15ZM22.435 12.4935C22.435 10.0946 20.4904 8.15 18.0916 8.15V11.15C18.8335 11.15 19.435 11.7515 19.435 12.4935H22.435ZM20.3079 16.2295C21.5782 15.4748 22.435 14.085 22.435 12.4935H19.435C19.435 12.9834 19.1737 13.4138 18.7757 13.6503L20.3079 16.2295ZM20.4111 14.1796C20.8101 14.4802 20.9358 14.9272 20.9073 15.2752C20.8792 15.6172 20.6949 15.9995 20.3079 16.2295L18.7757 13.6503C17.7866 14.2378 17.5323 15.767 18.6061 16.5758L20.4111 14.1796ZM22.7039 16.9519C22.1776 15.8562 21.3826 14.9114 20.4111 14.1796L18.6061 16.5758C19.2166 17.0358 19.6927 17.6119 19.9996 18.2508L22.7039 16.9519ZM15.248 21.5761C18.1425 21.5761 20.6886 20.4396 22.4285 18.6457L20.275 16.557C19.113 17.7551 17.3496 18.5761 15.248 18.5761V21.5761ZM20.9013 18.2374C19.4397 19.4653 17.4559 20.2348 15.248 20.2348V23.2348C18.1542 23.2348 20.8231 22.2213 22.831 20.5345L20.9013 18.2374ZM23.4003 20C23.4003 19.7368 23.3856 19.4763 23.3568 19.2193L20.3754 19.5526C20.3918 19.6993 20.4003 19.8485 20.4003 20H23.4003ZM15.3003 27.5C19.636 27.5 23.4003 24.2735 23.4003 20H20.4003C20.4003 22.3539 18.2547 24.5 15.3003 24.5V27.5ZM7.20026 20C7.20026 24.2735 10.9645 27.5 15.3003 27.5V24.5C12.3459 24.5 10.2003 22.3539 10.2003 20H7.20026ZM7.2331 19.3207C7.21134 19.5448 7.20026 19.7714 7.20026 20H10.2003C10.2003 19.8684 10.2066 19.7385 10.2191 19.6106L7.2331 19.3207ZM15.248 20.2348C13.0808 20.2348 11.1293 19.4933 9.67572 18.3045L7.77644 20.6267C9.77109 22.2581 12.3951 23.2348 15.248 23.2348V20.2348ZM15.4287 17.6853C16.0993 17.2981 16.3963 16.6394 16.4645 16.0739C16.5325 15.509 16.3969 14.9405 16.1195 14.46L13.5214 15.96C13.5057 15.9327 13.4692 15.8543 13.486 15.7151C13.5028 15.5753 13.5982 15.278 13.9287 15.0872L15.4287 17.6853ZM12.2901 16.6708C12.5676 17.1514 12.9921 17.5531 13.5154 17.7766C14.0392 18.0003 14.7582 18.0724 15.4287 17.6853L13.9287 15.0872C14.2593 14.8964 14.5644 14.9624 14.6938 15.0177C14.8228 15.0728 14.8725 15.1436 14.8882 15.1708L12.2901 16.6708ZM12.9809 13.4455C12.3103 13.8327 12.0133 14.4914 11.9452 15.0569C11.8771 15.6218 12.0127 16.1903 12.2901 16.6708L14.8882 15.1708C14.9039 15.1981 14.9404 15.2765 14.9236 15.4157C14.9068 15.5555 14.8115 15.8527 14.4809 16.0436L12.9809 13.4455ZM16.1195 14.46C15.842 13.9794 15.4175 13.5777 14.8943 13.3542C14.3705 13.1305 13.6515 13.0584 12.9809 13.4455L14.4809 16.0436C14.1503 16.2344 13.8452 16.1684 13.7158 16.1131C13.5869 16.058 13.5371 15.9872 13.5214 15.96L16.1195 14.46ZM16.8505 15.0872C17.1811 15.278 17.2764 15.5753 17.2932 15.7151C17.31 15.8543 17.2736 15.9327 17.2578 15.96L14.6598 14.46C14.3823 14.9405 14.2467 15.509 14.3148 16.0739C14.3829 16.6394 14.68 17.2981 15.3505 17.6853L16.8505 15.0872ZM15.891 15.1708C15.9067 15.1436 15.9565 15.0728 16.0854 15.0177C16.2149 14.9624 16.52 14.8964 16.8505 15.0872L15.3505 17.6853C16.0211 18.0724 16.7401 18.0003 17.2639 17.7766C17.7871 17.5531 18.2116 17.1514 18.4891 16.6708L15.891 15.1708ZM16.2983 16.0436C15.9678 15.8527 15.8725 15.5555 15.8556 15.4157C15.8389 15.2765 15.8753 15.1981 15.891 15.1708L18.4891 16.6708C18.7666 16.1903 18.9021 15.6218 18.8341 15.0569C18.766 14.4914 18.4689 13.8327 17.7983 13.4455L16.2983 16.0436ZM17.2578 15.96C17.2421 15.9872 17.1924 16.058 17.0635 16.1131C16.934 16.1684 16.6289 16.2344 16.2983 16.0436L17.7983 13.4455C17.1278 13.0584 16.4088 13.1305 15.885 13.3542C15.3617 13.5777 14.9372 13.9794 14.6598 14.46L17.2578 15.96ZM12.4829 12.5718V9.57178C10.8261 9.57178 9.48295 10.9149 9.48295 12.5718H12.4829ZM12.4829 12.6767V12.5718H9.48295V12.6767H12.4829ZM12.4584 12.6522C12.4582 12.6522 12.4594 12.6522 12.4618 12.6527C12.464 12.6532 12.4663 12.6539 12.4684 12.6548C12.4725 12.6565 12.4746 12.6583 12.4758 12.6594C12.4769 12.6605 12.4787 12.6627 12.4804 12.6667C12.4813 12.6688 12.482 12.6711 12.4825 12.6734C12.4829 12.6757 12.4829 12.677 12.4829 12.6767H9.48295C9.48295 14.32 10.8151 15.6522 12.4584 15.6522V12.6522ZM12.4402 12.6603C12.4449 12.6552 12.4515 12.6522 12.4584 12.6522V15.6522C13.3019 15.6522 14.1058 15.2942 14.6701 14.6672L12.4402 12.6603ZM12.62 12.4605L12.4402 12.6603L14.6701 14.6672L14.8499 14.4674L12.62 12.4605ZM14.8499 11.4674C13.9994 11.4674 13.1889 11.8284 12.62 12.4605L14.8499 14.4674L14.8499 14.4674V11.4674ZM15.2482 11.4674H14.8499V14.4674H15.2482V11.4674ZM15.6464 11.4674H15.2482V14.4674H15.6464V11.4674ZM17.8763 12.4605C17.3074 11.8284 16.4969 11.4674 15.6464 11.4674V14.4674V14.4674L17.8763 12.4605ZM18.0561 12.6603L17.8763 12.4605L15.6464 14.4674L15.8262 14.6672L18.0561 12.6603ZM18.0379 12.6522C18.0448 12.6522 18.0515 12.6552 18.0561 12.6603L15.8262 14.6672C16.3905 15.2942 17.1944 15.6522 18.0379 15.6522V12.6522ZM18.0134 12.6767C18.0134 12.677 18.0134 12.6757 18.0139 12.6734C18.0143 12.6711 18.015 12.6688 18.0159 12.6667C18.0176 12.6627 18.0194 12.6605 18.0206 12.6594C18.0217 12.6583 18.0239 12.6565 18.0279 12.6548C18.03 12.6539 18.0323 12.6532 18.0345 12.6527C18.0369 12.6522 18.0382 12.6522 18.0379 12.6522V15.6522C19.6812 15.6522 21.0134 14.32 21.0134 12.6767H18.0134ZM18.0134 12.5718V12.6767H21.0134V12.5718H18.0134ZM18.0134 12.5718H21.0134C21.0134 10.9149 19.6702 9.57178 18.0134 9.57178V12.5718ZM12.4829 12.5718H18.0134V9.57178H12.4829V12.5718ZM73.5452 26.9672C75.2363 27.6436 77.0534 27.974 78.9808 27.974V24.974C77.4022 24.974 75.9669 24.7047 74.6594 24.1817L73.5452 26.9672ZM69.1197 24.0966C70.389 25.3142 71.8623 26.2682 73.5269 26.9597L74.6777 24.1892C73.3438 23.6351 72.1875 22.8823 71.1964 21.9316L69.1197 24.0966ZM66.181 19.7221C66.8773 21.3725 67.85 22.8274 69.0974 24.0748L71.2187 21.9535C70.2517 20.9865 69.4944 19.858 68.9451 18.556L66.181 19.7221ZM65.1635 14.2952C65.1635 16.2022 65.4949 18.0073 66.1704 19.6961L68.9558 18.5819C68.4319 17.2722 68.1635 15.848 68.1635 14.2952H65.1635ZM66.1734 8.92134C65.4948 10.5917 65.1635 12.3884 65.1635 14.2952H68.1635C68.1635 12.7421 68.432 11.3325 68.9528 10.0505L66.1734 8.92134ZM69.1086 4.53905C67.8504 5.77103 66.8743 7.23391 66.1779 8.91049L68.9483 10.0613C69.4975 8.73932 70.2513 7.61879 71.2075 6.68258L69.1086 4.53905ZM73.5452 1.65777C71.866 2.32944 70.3829 3.2907 69.1084 4.53927L71.2077 6.68235C72.1936 5.71658 73.34 4.97095 74.6594 4.4432L73.5452 1.65777ZM78.9808 0.616309C77.0462 0.616309 75.2227 0.960827 73.5269 1.66524L74.6777 4.43573C75.9805 3.89457 77.4093 3.61631 78.9808 3.61631V0.616309ZM84.4423 1.66843C82.7625 0.959761 80.9353 0.616309 78.9808 0.616309V3.61631C80.5784 3.61631 82.0035 3.89564 83.2762 4.43253L84.4423 1.66843ZM88.8296 4.55015C87.5742 3.29481 86.0982 2.33051 84.4163 1.65777L83.3021 4.4432C84.6189 4.96989 85.7493 5.71247 86.7083 6.67147L88.8296 4.55015ZM91.7566 8.92882C91.08 7.23747 90.0965 5.76495 88.8073 4.52829L86.7306 6.69333C87.7018 7.62488 88.4482 8.73575 88.9711 10.043L91.7566 8.92882ZM92.798 14.2952C92.798 12.3811 92.4526 10.5779 91.7459 8.90285L88.9818 10.069C89.5207 11.3464 89.798 12.7494 89.798 14.2952H92.798ZM91.7491 19.7144C92.4525 18.021 92.798 16.2095 92.798 14.2952H89.798C89.798 15.8408 89.5208 17.2584 88.9786 18.5636L91.7491 19.7144ZM88.8186 24.0857C90.0968 22.8335 91.077 21.3689 91.7535 19.7036L88.9741 18.5745C88.4513 19.8616 87.7015 20.9804 86.7193 21.9426L88.8186 24.0857ZM84.4346 26.9597C86.1019 26.2671 87.5681 25.3101 88.8184 24.0859L86.7195 21.9424C85.7554 22.8864 84.6151 23.6362 83.2838 24.1892L84.4346 26.9597ZM78.9808 27.974C80.9282 27.974 82.7488 27.6446 84.4238 26.9642L83.2947 24.1848C82.0172 24.7037 80.5855 24.974 78.9808 24.974V27.974ZM80.6333 18.5931C80.1426 18.8057 79.5976 18.9192 78.9808 18.9192V21.9192C79.9786 21.9192 80.9329 21.7328 81.8261 21.3457L80.6333 18.5931ZM81.9577 17.6411C81.5936 18.0383 81.1508 18.3592 80.6123 18.6024L81.8471 21.3365C82.7387 20.9338 83.5184 20.3782 84.1692 19.6682L81.9577 17.6411ZM82.8699 16.1904C82.6625 16.7436 82.3663 17.2142 81.9805 17.6168L84.1464 19.6925C84.8217 18.9879 85.3328 18.1668 85.6789 17.2438L82.8699 16.1904ZM83.2242 14.2952C83.2242 14.9687 83.1067 15.5888 82.8788 16.1673L85.67 17.2669C86.0418 16.3231 86.2242 15.3285 86.2242 14.2952H83.2242ZM82.8847 12.4378C83.1048 12.9794 83.2242 13.5928 83.2242 14.2952H86.2242C86.2242 13.2446 86.0438 12.2433 85.6641 11.3087L82.8847 12.4378ZM81.9805 10.9735C82.3663 11.3761 82.6625 11.8468 82.8699 12.3999L85.6789 11.3465C85.3328 10.4235 84.8217 9.60242 84.1464 8.89783L81.9805 10.9735ZM80.6496 10.0388C81.1715 10.2577 81.6015 10.5607 81.9577 10.9493L84.1692 8.9221C83.5105 8.20351 82.718 7.65311 81.8098 7.27223L80.6496 10.0388ZM78.9808 9.67114C79.5817 9.67114 80.1133 9.78984 80.5954 10.0148L81.864 7.29625C80.9621 6.87537 79.9945 6.67114 78.9808 6.67114V9.67114ZM77.3146 10.0226C77.8299 9.78985 78.38 9.67114 78.9808 9.67114V6.67114C77.9669 6.67114 76.9946 6.87535 76.0799 7.28847L77.3146 10.0226ZM75.9465 10.9735C76.3413 10.5616 76.7879 10.251 77.2936 10.0319L76.1008 7.27919C75.2226 7.65974 74.4467 8.20266 73.7805 8.89783L75.9465 10.9735ZM75.0422 12.4378C75.279 11.8549 75.5896 11.3634 75.9692 10.9493L73.7578 8.9221C73.1225 9.61512 72.6257 10.4153 72.2628 11.3087L75.0422 12.4378ZM74.7373 14.2952C74.7373 13.5785 74.8501 12.9518 75.057 12.3999L72.248 11.3465C71.9014 12.2709 71.7373 13.2588 71.7373 14.2952H74.7373ZM75.0622 16.2045C74.8483 15.6163 74.7373 14.9833 74.7373 14.2952H71.7373C71.7373 15.314 71.9031 16.2956 72.2428 17.2297L75.0622 16.2045ZM75.9692 17.6411C75.5896 17.2269 75.279 16.7354 75.0422 16.1525L72.2628 17.2817C72.6257 18.175 73.1225 18.9752 73.7578 19.6682L75.9692 17.6411ZM77.3316 18.6101C76.8084 18.366 76.3492 18.037 75.9465 17.6168L73.7805 19.6925C74.4389 20.3795 75.2021 20.927 76.0629 21.3287L77.3316 18.6101ZM78.9808 18.9192C78.3643 18.9192 77.8011 18.8058 77.2773 18.5861L76.1171 21.3527C77.0235 21.7328 77.9826 21.9192 78.9808 21.9192V18.9192ZM100.832 15.9162C100.958 15.8148 101.208 15.6914 101.728 15.6914V12.6914C100.726 12.6914 99.7532 12.937 98.9574 13.5736L100.832 15.9162ZM100.309 16.6888C100.431 16.336 100.608 16.0951 100.832 15.9162L98.9574 13.5736C98.2584 14.1329 97.7667 14.8607 97.4736 15.7074L100.309 16.6888ZM100.08 18.2048C100.08 17.6071 100.164 17.1073 100.309 16.6888L97.4736 15.7074C97.2033 16.4884 97.0797 17.3264 97.0797 18.2048H100.08ZM100.08 25.955V18.2048H97.0797V25.955H100.08ZM92.3519 27.455H98.5797V24.455H92.3519V27.455ZM90.8519 17.4437V25.955H93.8519V17.4437H90.8519ZM92.0005 12.1288C91.2271 13.7556 90.8519 15.5356 90.8519 17.4437H93.8519C93.8519 15.938 94.1456 14.604 94.71 13.4168L92.0005 12.1288ZM95.6628 8.13045C94.0352 9.10703 92.801 10.445 92.0006 12.1288L94.71 13.4168C95.2473 12.2866 96.066 11.3871 97.2063 10.7029L95.6628 8.13045ZM101.728 6.63652C99.3917 6.63652 97.3321 7.1009 95.6472 8.13993L97.2219 10.6934C98.3049 10.0256 99.7745 9.63652 101.728 9.63652V6.63652ZM107.809 8.13993C106.124 7.1009 104.065 6.63652 101.728 6.63652V9.63652C103.682 9.63652 105.152 10.0256 106.235 10.6934L107.809 8.13993ZM111.456 12.1288C110.655 10.445 109.421 9.10704 107.794 8.13045L106.25 10.7029C107.39 11.3871 108.209 12.2866 108.746 13.4168L111.456 12.1288ZM112.605 17.4437C112.605 15.5356 112.229 13.7556 111.456 12.1288L108.746 13.4168C109.311 14.604 109.605 15.938 109.605 17.4437H112.605ZM112.605 25.955V17.4437H109.605V25.955H112.605ZM104.877 27.455H111.105V24.455H104.877V27.455ZM103.377 18.2048V25.955H106.377V18.2048H103.377ZM103.148 16.6888C103.293 17.1073 103.377 17.6071 103.377 18.2048H106.377C106.377 17.3264 106.253 16.4883 105.983 15.7074L103.148 16.6888ZM102.625 15.9162C102.849 16.0951 103.026 16.336 103.148 16.6888L105.983 15.7074C105.69 14.8608 105.198 14.1329 104.499 13.5736L102.625 15.9162ZM101.728 15.6914C102.248 15.6914 102.498 15.8148 102.625 15.9162L104.499 13.5736C103.703 12.937 102.73 12.6914 101.728 12.6914V15.6914ZM57.6394 24.9394C56.0063 24.9394 54.5855 24.6043 53.3445 23.9644L51.9697 26.6308C53.6812 27.5133 55.5819 27.9394 57.6394 27.9394V24.9394ZM61.8921 23.8204C60.7348 24.5484 59.3367 24.9394 57.6394 24.9394V27.9394C59.8171 27.9394 61.7866 27.4309 63.4895 26.3597L61.8921 23.8204ZM64.5789 20.6605C63.9545 22.0264 63.0563 23.0692 61.8776 23.8296L63.504 26.3505C65.1855 25.2656 66.4555 23.7711 67.3073 21.9078L64.5789 20.6605ZM60.4976 20.2385L65.2723 22.6258L66.6139 19.9425L61.8393 17.5552L60.4976 20.2385ZM60.561 21.7847C61.4395 21.22 62.1125 20.4579 62.5372 19.5104L59.7997 18.2832C59.6247 18.6736 59.352 18.9956 58.9388 19.2612L60.561 21.7847ZM57.5702 22.6458C58.663 22.6458 59.6862 22.3682 60.5819 21.7711L58.9178 19.2749C58.5681 19.5081 58.1381 19.6458 57.5702 19.6458V22.6458ZM54.8836 22.0149C55.698 22.456 56.6113 22.6458 57.5702 22.6458V19.6458C57.0067 19.6458 56.6052 19.5356 56.3124 19.377L54.8836 22.0149ZM52.9745 20.0795C53.4239 20.8821 54.0499 21.5295 54.8422 21.9916L56.3538 19.4003C56.0389 19.2166 55.7884 18.9644 55.592 18.6137L52.9745 20.0795ZM52.4799 18.6955C52.5799 19.1571 52.7326 19.5994 52.9416 20.0174L55.6249 18.6758C55.534 18.4941 55.4618 18.2906 55.4119 18.0602L52.4799 18.6955ZM65.9777 16.8778H53.9459V19.8778H65.9777V16.8778ZM64.4777 16.8209V18.3778H67.4777V16.8209H64.4777ZM63.6074 13.1851C64.1863 14.3043 64.4777 15.5088 64.4777 16.8209H67.4777C67.4777 15.0421 67.0772 13.3634 66.2721 11.8069L63.6074 13.1851ZM61.1632 10.4773C62.25 11.1637 63.0501 12.052 63.5936 13.1577L66.2859 11.8343C65.4915 10.2182 64.308 8.91522 62.7652 7.94086L61.1632 10.4773ZM57.155 9.46353C58.8245 9.46353 60.1355 9.82821 61.1632 10.4773L62.7652 7.94086C61.1635 6.92922 59.2683 6.46353 57.155 6.46353V9.46353ZM53.1174 10.4953C54.2393 9.82221 55.5687 9.46353 57.155 9.46353V6.46353C55.0968 6.46353 53.22 6.93522 51.574 7.92285L53.1174 10.4953ZM50.3984 13.2701C51.0531 12.1148 51.952 11.1946 53.1174 10.4953L51.574 7.92285C49.9714 8.88437 48.7022 10.1785 47.7884 11.7911L50.3984 13.2701ZM49.4516 17.0977C49.4516 15.6762 49.7747 14.4045 50.4077 13.2535L47.7791 11.8077C46.8898 13.4247 46.4516 15.1976 46.4516 17.0977H49.4516ZM50.489 21.283C49.8152 20.1412 49.4516 18.7638 49.4516 17.0977H46.4516C46.4516 19.2144 46.9185 21.1354 47.9054 22.8077L50.489 21.283ZM53.3695 23.9776C52.1441 23.3163 51.187 22.4143 50.4739 21.258L47.9204 22.8327C48.9143 24.4443 50.2637 25.7105 51.9447 26.6177L53.3695 23.9776ZM54.2141 16.6601H59.7845V13.6601H54.2141V16.6601ZM53.6965 13.2124C53.3213 13.6217 53.0276 14.0875 52.8213 14.603L55.6068 15.7172C55.6773 15.5408 55.7757 15.3838 55.908 15.2395L53.6965 13.2124ZM55.1999 12.1816C54.6307 12.4159 54.117 12.7536 53.6965 13.2124L55.908 15.2395C55.9949 15.1447 56.127 15.0442 56.3421 14.9556L55.1999 12.1816ZM57.0858 11.7918C56.4067 11.7918 55.7466 11.9223 55.1323 12.2113L56.4097 14.9258C56.5796 14.8458 56.796 14.7918 57.0858 14.7918V11.7918ZM59.0368 12.2269C58.4261 11.9216 57.7627 11.7918 57.0858 11.7918V14.7918C57.3776 14.7918 57.5677 14.8465 57.6951 14.9102L59.0368 12.2269ZM60.4544 13.346C60.0597 12.8329 59.5522 12.4503 58.9672 12.1943L57.7647 14.9428C57.9178 15.0098 58.01 15.0885 58.0766 15.1751L60.4544 13.346ZM61.2268 14.748C61.0633 14.1759 60.7635 13.6749 60.3712 13.247L58.1598 15.2741C58.2749 15.3997 58.3211 15.4985 58.3422 15.5722L61.2268 14.748ZM28.5802 35.4128H34.8081V32.4128H28.5802V35.4128ZM27.0802 17.2707V33.9128H30.0802V17.2707H27.0802ZM28.5011 11.7999C27.5401 13.4198 27.0802 15.259 27.0802 17.2707H30.0802C30.0802 15.7301 30.4276 14.4324 31.0813 13.3305L28.5011 11.7999ZM32.4607 7.99767C30.8 8.90837 29.4737 10.1789 28.505 11.7935L31.0774 13.3369C31.7695 12.1835 32.7037 11.2859 33.9032 10.6281L32.4607 7.99767ZM38.095 6.63652C36.0312 6.63652 34.1395 7.07701 32.4607 7.99767L33.9032 10.6281C35.0845 9.98029 36.4682 9.63652 38.095 9.63652V6.63652ZM43.692 8.08491C42.0133 7.11014 40.1347 6.63652 38.095 6.63652V9.63652C39.6535 9.63652 41.0042 9.99329 42.1856 10.6793L43.692 8.08491ZM47.6504 11.9319C46.6828 10.3192 45.3508 9.03271 43.683 8.07973L42.1946 10.6845C43.4332 11.3922 44.3848 12.3201 45.0779 13.4753L47.6504 11.9319ZM49.1097 17.2707C49.1097 15.3274 48.6267 13.5319 47.6446 11.9223L45.0837 13.4849C45.7623 14.597 46.1097 15.8463 46.1097 17.2707H49.1097ZM47.7823 22.8374C48.6843 21.1973 49.1097 19.326 49.1097 17.2707H46.1097C46.1097 18.906 45.7739 20.2638 45.1536 21.3917L47.7823 22.8374ZM43.9731 26.6466C45.6063 25.7483 46.884 24.4706 47.7823 22.8374L45.1536 21.3917C44.5295 22.5264 43.6621 23.3938 42.5273 24.0179L43.9731 26.6466ZM38.441 27.974C40.4955 27.974 42.36 27.5489 43.9825 26.6414L42.518 24.0231C41.4187 24.638 40.077 24.974 38.441 24.974V27.974ZM34.6118 27.1012C35.8252 27.6803 37.1066 27.974 38.441 27.974V24.974C37.561 24.974 36.7204 24.7834 35.9039 24.3937L34.6118 27.1012ZM34.0466 26.7927C34.2184 26.894 34.3944 26.9906 34.5746 27.0828L35.9411 24.4121C35.8125 24.3463 35.6886 24.2782 35.5695 24.208L34.0466 26.7927ZM36.3081 33.9128V25.5004H33.3081V33.9128H36.3081ZM39.0354 18.9016C38.8268 19.0307 38.5342 19.1268 38.095 19.1268V22.1268C38.9936 22.1268 39.8542 21.923 40.6145 21.4524L39.0354 18.9016ZM39.6498 18.2477C39.4957 18.5304 39.2953 18.7407 39.0354 18.9016L40.6145 21.4524C41.3233 21.0136 41.8841 20.4165 42.2835 19.6843L39.6498 18.2477ZM39.8819 17.3053C39.8819 17.6638 39.8019 17.9691 39.6498 18.2477L42.2835 19.6843C42.6851 18.9481 42.8819 18.1462 42.8819 17.3053H39.8819ZM39.6643 16.3887C39.797 16.621 39.8819 16.9125 39.8819 17.3053H42.8819C42.8819 16.4525 42.6899 15.6368 42.2691 14.9003L39.6643 16.3887ZM39.0354 15.7089C39.2953 15.8699 39.4957 16.0801 39.6498 16.3628L42.2835 14.9262C41.8841 14.194 41.3233 13.597 40.6145 13.1582L39.0354 15.7089ZM38.095 15.4838C38.5342 15.4838 38.8268 15.5798 39.0354 15.7089L40.6145 13.1582C39.8542 12.6875 38.9936 12.4838 38.095 12.4838V15.4838ZM37.1281 15.7249C37.3827 15.5745 37.6911 15.4838 38.095 15.4838V12.4838C37.2072 12.4838 36.3623 12.6929 35.6019 13.1422L37.1281 15.7249ZM36.5401 16.3628C36.6943 16.0801 36.8946 15.8699 37.1546 15.7089L35.5755 13.1582C34.8666 13.597 34.3058 14.194 33.9064 14.9262L36.5401 16.3628ZM36.3081 17.3053C36.3081 16.9125 36.3929 16.621 36.5256 16.3887L33.9209 14.9003C33.5 15.6368 33.3081 16.4525 33.3081 17.3053H36.3081ZM36.5401 18.2477C36.3881 17.9691 36.3081 17.6638 36.3081 17.3053H33.3081C33.3081 18.1462 33.5048 18.9481 33.9064 19.6843L36.5401 18.2477ZM37.1546 18.9016C36.8946 18.7407 36.6943 18.5304 36.5401 18.2477L33.9064 19.6843C34.3058 20.4165 34.8666 21.0136 35.5755 21.4524L37.1546 18.9016ZM38.095 19.1268C37.6911 19.1268 37.3827 19.036 37.1281 18.8856L35.6019 21.4684C36.3623 21.9177 37.2072 22.1268 38.095 22.1268V19.1268Z" fill="white" mask="url(#path-2-outside-1_229_137)"/>
</g>
</g>
</svg>
